<svg xmlns="http://www.w3.org/2000/svg" xmlns:xlink="http://www.w3.org/1999/xlink" width="500" zoomAndPan="magnify" viewBox="0 0 375 374.999991" height="500" preserveAspectRatio="xMidYMid meet" version="1.0"><defs><filter x="0%" y="0%" width="100%" height="100%" id="a6a53b857e"><feColorMatrix values="0 0 0 0 1 0 0 0 0 1 0 0 0 0 1 0 0 0 1 0" color-interpolation-filters="sRGB"/></filter><clipPath id="5a149f9217"><path d="M 14.214844 14.214844 L 360.785156 14.214844 L 360.785156 360.785156 L 14.214844 360.785156 Z M 14.214844 14.214844 " clip-rule="nonzero"/></clipPath><clipPath id="129867c405"><path d="M 187.5 14.214844 C 91.796875 14.214844 14.214844 91.796875 14.214844 187.5 C 14.214844 283.203125 91.796875 360.785156 187.5 360.785156 C 283.203125 360.785156 360.785156 283.203125 360.785156 187.5 C 360.785156 91.796875 283.203125 14.214844 187.5 14.214844 Z M 187.5 14.214844 " clip-rule="nonzero"/></clipPath><mask id="891b673397"><g filter="url(#a6a53b857e)"><rect x="-37.5" width="450" fill="#000000" y="-37.499999" height="449.999989" fill-opacity="0.37"/></g></mask><clipPath id="6fbbf9869d"><path d="M 0.398438 1 L 68.800781 1 L 68.800781 7 L 0.398438 7 Z M 0.398438 1 " clip-rule="nonzero"/></clipPath><clipPath id="a345af15dd"><rect x="0" width="69" y="0" height="8"/></clipPath></defs><g clip-path="url(#5a149f9217)"><g clip-path="url(#129867c405)"><path fill="#f2f4f3" d="M 14.214844 14.214844 L 360.785156 14.214844 L 360.785156 360.785156 L 14.214844 360.785156 Z M 14.214844 14.214844 " fill-opacity="1" fill-rule="nonzero"/></g></g><path fill="#3f3f3f" d="M 137.757812 217.679688 L 218.929688 217.679688 L 218.929688 239.882812 L 137.757812 239.882812 Z M 137.757812 217.679688 " fill-opacity="1" fill-rule="nonzero"/><path fill="#3f3f3f" d="M 182.050781 108.925781 L 203.105469 126.855469 C 205.980469 129.304688 207.378906 132.398438 206.238281 133.738281 C 205.085938 135.089844 201.816406 134.179688 198.941406 131.730469 L 177.890625 113.804688 C 175.011719 111.355469 173.613281 108.257812 174.753906 106.921875 C 175.925781 105.582031 179.175781 106.476562 182.050781 108.925781 Z M 182.050781 108.925781 " fill-opacity="1" fill-rule="nonzero"/><path fill="#3f3f3f" d="M 184.34375 111.859375 C 183.472656 111.117188 182.15625 111.207031 181.398438 112.089844 C 178.5625 115.414062 177.714844 120.03125 179.164062 124.148438 C 180.632812 128.28125 184.195312 131.316406 188.496094 132.09375 C 192.816406 132.890625 197.210938 131.324219 200.0625 127.984375 C 200.804688 127.117188 200.714844 125.800781 199.828125 125.042969 C 198.957031 124.304688 197.640625 124.394531 196.882812 125.277344 C 195.003906 127.484375 192.105469 128.507812 189.257812 127.988281 C 186.414062 127.464844 184.070312 125.472656 183.089844 122.730469 C 182.125 120.007812 182.679688 116.988281 184.558594 114.785156 C 185.332031 113.914062 185.210938 112.597656 184.34375 111.859375 Z M 184.34375 111.859375 " fill-opacity="1" fill-rule="nonzero"/><path fill="#3f3f3f" d="M 193.238281 121.367188 L 150.898438 170.972656 L 146.699219 167.398438 L 189.042969 117.792969 Z M 193.238281 121.367188 " fill-opacity="1" fill-rule="nonzero"/><path fill="#5c5c5c" d="M 148.898438 138.445312 C 148.898438 138.445312 156.738281 127.867188 161.1875 128.515625 C 165.632812 129.164062 181.566406 142.9375 184.460938 146.925781 C 187.410156 150.917969 175.871094 179.160156 175.871094 179.160156 L 165.332031 177.261719 Z M 148.898438 138.445312 " fill-opacity="1" fill-rule="nonzero"/><path fill="#5c5c5c" d="M 254.890625 149.671875 C 243.003906 148.574219 223.773438 148.273438 220.875 160.25 C 217.980469 172.222656 227.21875 173.171875 234.363281 170.976562 C 241.554688 168.832031 254.941406 164.292969 262.234375 164.441406 C 269.527344 164.640625 272.675781 162.894531 274.621094 155.109375 C 276.570312 147.328125 282.664062 129.5625 287.808594 120.234375 C 292.953125 110.902344 275.023438 106.511719 269.027344 115.992188 C 263.082031 125.421875 260.6875 144.632812 260.136719 148.125 C 259.6875 151.71875 254.890625 149.671875 254.890625 149.671875 Z M 254.890625 149.671875 " fill-opacity="1" fill-rule="nonzero"/><path fill="#b0d627" d="M 105.992188 192.230469 L 120.925781 220.125 L 282.316406 220.125 L 282.316406 174.621094 L 254.792969 165.140625 L 226.171875 177.015625 L 205.839844 205.503906 L 180.316406 204.707031 L 186.011719 169.082031 L 112.984375 162.644531 Z M 105.992188 192.230469 " fill-opacity="1" fill-rule="nonzero"/><path fill="#3f3f3f" d="M 105.992188 192.230469 L 120.925781 220.125 L 282.316406 220.125 L 282.316406 174.621094 L 254.792969 165.140625 L 226.171875 177.015625 L 205.839844 205.503906 L 180.316406 204.707031 L 186.011719 169.082031 L 112.984375 162.644531 Z M 105.992188 192.230469 " fill-opacity="0.36" fill-rule="nonzero"/><path fill="#3f3f3f" d="M 146.699219 138.246094 L 153.492188 136.800781 C 156.539062 136.152344 160.238281 137.796875 161.835938 140.441406 C 164.832031 145.53125 169.527344 153.5625 172.425781 159.050781 C 173.871094 161.796875 174.621094 166.585938 174.421875 169.679688 C 173.472656 184.050781 172.074219 214.785156 172.074219 214.785156 L 86.410156 218.226562 C 84.210938 218.328125 81.765625 216.78125 81.015625 214.734375 C 79.066406 209.546875 75.871094 199.914062 76.070312 193.679688 C 99.597656 173.472656 146.699219 138.246094 146.699219 138.246094 Z M 146.699219 138.246094 " fill-opacity="1" fill-rule="nonzero"/><path fill="#5c5c5c" d="M 116.230469 196.800781 C 117.246094 196.964844 118.253906 197.183594 119.25 197.449219 C 120.246094 197.710938 121.226562 198.027344 122.191406 198.386719 C 123.15625 198.75 124.101562 199.15625 125.027344 199.609375 C 125.949219 200.066406 126.851562 200.5625 127.726562 201.105469 C 128.601562 201.648438 129.449219 202.234375 130.269531 202.859375 C 131.085938 203.484375 131.871094 204.148438 132.625 204.851562 C 133.378906 205.554688 134.09375 206.292969 134.777344 207.066406 C 135.457031 207.839844 136.097656 208.644531 136.699219 209.480469 C 137.300781 210.316406 137.859375 211.179688 138.375 212.070312 C 138.890625 212.960938 139.363281 213.875 139.789062 214.8125 C 140.214844 215.75 140.59375 216.707031 140.925781 217.679688 C 141.261719 218.65625 141.542969 219.644531 141.777344 220.644531 C 142.015625 221.648438 142.199219 222.660156 142.335938 223.679688 C 142.472656 224.699219 142.558594 225.722656 142.59375 226.753906 C 142.625 227.78125 142.609375 228.808594 142.546875 229.835938 C 142.480469 230.863281 142.363281 231.886719 142.195312 232.902344 C 142.027344 233.917969 141.8125 234.925781 141.546875 235.917969 C 141.28125 236.914062 140.96875 237.894531 140.605469 238.855469 C 140.246094 239.820312 139.835938 240.765625 139.382812 241.6875 C 138.925781 242.613281 138.429688 243.511719 137.882812 244.386719 C 137.339844 245.261719 136.757812 246.109375 136.128906 246.925781 C 135.503906 247.742188 134.839844 248.527344 134.136719 249.28125 C 133.429688 250.03125 132.691406 250.75 131.917969 251.429688 C 131.144531 252.109375 130.339844 252.746094 129.5 253.347656 C 128.664062 253.949219 127.800781 254.507812 126.910156 255.023438 C 126.015625 255.539062 125.101562 256.011719 124.164062 256.4375 C 123.226562 256.863281 122.269531 257.242188 121.292969 257.574219 C 120.316406 257.90625 119.328125 258.1875 118.324219 258.421875 C 117.320312 258.660156 116.308594 258.84375 115.285156 258.980469 C 114.265625 259.113281 113.238281 259.199219 112.207031 259.234375 C 111.179688 259.269531 110.148438 259.253906 109.121094 259.1875 C 108.09375 259.121094 107.070312 259.007812 106.050781 258.839844 C 105.035156 258.671875 104.027344 258.457031 103.035156 258.191406 C 102.039062 257.925781 101.058594 257.613281 100.09375 257.253906 C 99.128906 256.890625 98.183594 256.484375 97.257812 256.027344 C 96.332031 255.574219 95.433594 255.074219 94.554688 254.535156 C 93.679688 253.992188 92.832031 253.40625 92.015625 252.78125 C 91.195312 252.15625 90.410156 251.492188 89.65625 250.789062 C 88.90625 250.085938 88.1875 249.347656 87.507812 248.574219 C 86.828125 247.800781 86.1875 246.996094 85.585938 246.160156 C 84.984375 245.324219 84.425781 244.460938 83.90625 243.570312 C 83.390625 242.679688 82.921875 241.765625 82.492188 240.828125 C 82.066406 239.890625 81.6875 238.933594 81.355469 237.960938 C 81.023438 236.984375 80.738281 235.996094 80.503906 234.996094 C 80.269531 233.992188 80.082031 232.980469 79.945312 231.960938 C 79.8125 230.941406 79.726562 229.914062 79.691406 228.886719 C 79.65625 227.855469 79.671875 226.828125 79.738281 225.800781 C 79.804688 224.773438 79.921875 223.753906 80.085938 222.738281 C 80.253906 221.722656 80.46875 220.714844 80.734375 219.71875 C 81 218.726562 81.316406 217.746094 81.675781 216.78125 C 82.039062 215.820312 82.445312 214.875 82.902344 213.949219 C 83.355469 213.027344 83.855469 212.128906 84.398438 211.253906 C 84.941406 210.378906 85.527344 209.53125 86.152344 208.714844 C 86.777344 207.898438 87.445312 207.113281 88.148438 206.359375 C 88.851562 205.605469 89.589844 204.890625 90.363281 204.210938 C 91.136719 203.53125 91.945312 202.890625 92.78125 202.292969 C 93.617188 201.691406 94.480469 201.132812 95.375 200.617188 C 96.265625 200.101562 97.179688 199.628906 98.121094 199.203125 C 99.058594 198.777344 100.015625 198.398438 100.992188 198.066406 C 101.964844 197.734375 102.957031 197.449219 103.957031 197.214844 C 104.960938 196.980469 105.976562 196.796875 106.996094 196.660156 C 108.019531 196.523438 109.042969 196.4375 110.074219 196.402344 C 111.105469 196.371094 112.132812 196.386719 113.160156 196.449219 C 114.191406 196.515625 115.214844 196.632812 116.230469 196.800781 Z M 116.230469 196.800781 " fill-opacity="1" fill-rule="nonzero"/><path fill="#ffffff" d="M 139.15625 227.808594 C 139.15625 228.722656 139.113281 229.636719 139.023438 230.550781 C 138.933594 231.460938 138.796875 232.367188 138.621094 233.269531 C 138.441406 234.167969 138.21875 235.054688 137.949219 235.933594 C 137.683594 236.808594 137.375 237.671875 137.023438 238.519531 C 136.671875 239.367188 136.28125 240.191406 135.847656 241 C 135.417969 241.808594 134.945312 242.59375 134.433594 243.359375 C 133.925781 244.121094 133.378906 244.855469 132.796875 245.5625 C 132.214844 246.273438 131.597656 246.953125 130.949219 247.597656 C 130.300781 248.246094 129.621094 248.863281 128.914062 249.445312 C 128.203125 250.027344 127.46875 250.570312 126.703125 251.082031 C 125.941406 251.589844 125.15625 252.058594 124.34375 252.492188 C 123.535156 252.925781 122.707031 253.316406 121.859375 253.667969 C 121.011719 254.019531 120.148438 254.328125 119.269531 254.59375 C 118.390625 254.859375 117.503906 255.082031 116.601562 255.261719 C 115.703125 255.4375 114.796875 255.574219 113.882812 255.664062 C 112.96875 255.753906 112.054688 255.796875 111.136719 255.796875 C 110.21875 255.796875 109.300781 255.753906 108.390625 255.664062 C 107.476562 255.574219 106.570312 255.4375 105.667969 255.261719 C 104.769531 255.082031 103.878906 254.859375 103 254.59375 C 102.121094 254.328125 101.261719 254.019531 100.410156 253.667969 C 99.5625 253.316406 98.734375 252.925781 97.925781 252.492188 C 97.117188 252.058594 96.332031 251.589844 95.566406 251.082031 C 94.804688 250.570312 94.066406 250.027344 93.359375 249.445312 C 92.648438 248.863281 91.96875 248.246094 91.320312 247.597656 C 90.671875 246.953125 90.054688 246.273438 89.472656 245.5625 C 88.890625 244.855469 88.347656 244.121094 87.835938 243.359375 C 87.328125 242.59375 86.855469 241.808594 86.421875 241 C 85.988281 240.191406 85.597656 239.367188 85.246094 238.519531 C 84.894531 237.671875 84.585938 236.808594 84.320312 235.933594 C 84.054688 235.054688 83.832031 234.167969 83.652344 233.269531 C 83.472656 232.367188 83.339844 231.460938 83.25 230.550781 C 83.160156 229.636719 83.113281 228.722656 83.113281 227.808594 C 83.113281 226.890625 83.160156 225.976562 83.25 225.0625 C 83.339844 224.152344 83.472656 223.246094 83.652344 222.347656 C 83.832031 221.445312 84.054688 220.558594 84.320312 219.679688 C 84.585938 218.804688 84.894531 217.941406 85.246094 217.09375 C 85.597656 216.25 85.988281 215.421875 86.421875 214.613281 C 86.855469 213.804688 87.328125 213.019531 87.835938 212.257812 C 88.347656 211.492188 88.890625 210.757812 89.472656 210.050781 C 90.054688 209.339844 90.671875 208.664062 91.320312 208.015625 C 91.96875 207.367188 92.648438 206.75 93.359375 206.167969 C 94.066406 205.589844 94.804688 205.042969 95.566406 204.535156 C 96.332031 204.023438 97.117188 203.554688 97.925781 203.121094 C 98.734375 202.6875 99.5625 202.296875 100.410156 201.945312 C 101.261719 201.597656 102.121094 201.289062 103 201.019531 C 103.878906 200.753906 104.769531 200.53125 105.667969 200.355469 C 106.570312 200.175781 107.476562 200.039062 108.390625 199.949219 C 109.300781 199.859375 110.21875 199.816406 111.136719 199.816406 C 112.054688 199.816406 112.96875 199.859375 113.882812 199.949219 C 114.796875 200.039062 115.703125 200.175781 116.601562 200.355469 C 117.503906 200.53125 118.390625 200.753906 119.269531 201.019531 C 120.148438 201.289062 121.011719 201.597656 121.859375 201.945312 C 122.707031 202.296875 123.535156 202.6875 124.34375 203.121094 C 125.15625 203.554688 125.941406 204.023438 126.703125 204.535156 C 127.46875 205.042969 128.203125 205.589844 128.914062 206.167969 C 129.621094 206.75 130.300781 207.367188 130.949219 208.015625 C 131.597656 208.664062 132.214844 209.339844 132.796875 210.050781 C 133.378906 210.757812 133.925781 211.492188 134.433594 212.257812 C 134.945312 213.019531 135.417969 213.804688 135.847656 214.613281 C 136.28125 215.421875 136.671875 216.25 137.023438 217.09375 C 137.375 217.941406 137.683594 218.804688 137.949219 219.679688 C 138.21875 220.558594 138.441406 221.445312 138.621094 222.347656 C 138.796875 223.246094 138.933594 224.152344 139.023438 225.0625 C 139.113281 225.976562 139.15625 226.890625 139.15625 227.808594 Z M 139.15625 227.808594 " fill-opacity="0.09" fill-rule="nonzero"/><path fill="#3f3f3f" d="M 125.160156 213.800781 C 125.621094 214.257812 126.054688 214.738281 126.46875 215.242188 C 126.878906 215.742188 127.265625 216.261719 127.628906 216.800781 C 127.988281 217.339844 128.320312 217.898438 128.628906 218.46875 C 128.933594 219.042969 129.210938 219.628906 129.460938 220.226562 C 129.707031 220.824219 129.925781 221.4375 130.117188 222.058594 C 130.304688 222.675781 130.460938 223.304688 130.589844 223.941406 C 130.714844 224.578125 130.8125 225.21875 130.875 225.867188 C 130.9375 226.511719 130.96875 227.15625 130.96875 227.808594 C 130.96875 228.457031 130.9375 229.101562 130.875 229.75 C 130.8125 230.394531 130.714844 231.035156 130.589844 231.671875 C 130.460938 232.308594 130.304688 232.9375 130.117188 233.558594 C 129.925781 234.175781 129.710938 234.789062 129.460938 235.386719 C 129.210938 235.988281 128.933594 236.570312 128.628906 237.144531 C 128.324219 237.714844 127.988281 238.273438 127.628906 238.8125 C 127.265625 239.351562 126.882812 239.871094 126.46875 240.375 C 126.058594 240.875 125.621094 241.355469 125.164062 241.8125 C 124.703125 242.273438 124.222656 242.707031 123.71875 243.117188 C 123.21875 243.53125 122.695312 243.917969 122.15625 244.277344 C 121.617188 244.636719 121.0625 244.96875 120.488281 245.277344 C 119.914062 245.582031 119.328125 245.859375 118.730469 246.105469 C 118.128906 246.355469 117.519531 246.574219 116.898438 246.761719 C 116.273438 246.949219 115.644531 247.109375 115.007812 247.234375 C 114.371094 247.359375 113.730469 247.457031 113.082031 247.519531 C 112.4375 247.582031 111.789062 247.617188 111.140625 247.617188 C 110.492188 247.617188 109.84375 247.582031 109.195312 247.519531 C 108.550781 247.457031 107.910156 247.363281 107.273438 247.234375 C 106.632812 247.109375 106.003906 246.949219 105.382812 246.761719 C 104.761719 246.574219 104.152344 246.355469 103.550781 246.109375 C 102.953125 245.859375 102.363281 245.582031 101.792969 245.277344 C 101.21875 244.972656 100.664062 244.636719 100.125 244.277344 C 99.582031 243.917969 99.0625 243.53125 98.558594 243.121094 C 98.058594 242.707031 97.578125 242.273438 97.117188 241.8125 C 96.660156 241.355469 96.222656 240.875 95.8125 240.375 C 95.398438 239.871094 95.011719 239.351562 94.652344 238.8125 C 94.289062 238.273438 93.957031 237.71875 93.652344 237.144531 C 93.34375 236.574219 93.066406 235.988281 92.820312 235.386719 C 92.570312 234.789062 92.351562 234.179688 92.164062 233.558594 C 91.976562 232.9375 91.816406 232.308594 91.691406 231.671875 C 91.5625 231.035156 91.46875 230.394531 91.40625 229.75 C 91.339844 229.101562 91.308594 228.457031 91.308594 227.808594 C 91.308594 227.160156 91.339844 226.511719 91.40625 225.867188 C 91.46875 225.21875 91.5625 224.578125 91.691406 223.941406 C 91.816406 223.308594 91.976562 222.679688 92.164062 222.058594 C 92.351562 221.4375 92.570312 220.828125 92.820312 220.226562 C 93.066406 219.628906 93.34375 219.042969 93.652344 218.46875 C 93.957031 217.898438 94.289062 217.34375 94.652344 216.800781 C 95.011719 216.261719 95.398438 215.742188 95.8125 215.242188 C 96.222656 214.738281 96.660156 214.257812 97.117188 213.800781 C 97.578125 213.34375 98.058594 212.90625 98.558594 212.496094 C 99.0625 212.082031 99.582031 211.699219 100.121094 211.335938 C 100.664062 210.976562 101.21875 210.644531 101.792969 210.339844 C 102.363281 210.03125 102.949219 209.753906 103.550781 209.507812 C 104.152344 209.257812 104.761719 209.039062 105.382812 208.851562 C 106.003906 208.664062 106.632812 208.507812 107.269531 208.378906 C 107.90625 208.253906 108.550781 208.15625 109.195312 208.09375 C 109.84375 208.03125 110.488281 208 111.140625 208 C 111.789062 208 112.4375 208.03125 113.082031 208.09375 C 113.730469 208.15625 114.371094 208.253906 115.007812 208.378906 C 115.644531 208.507812 116.273438 208.664062 116.894531 208.851562 C 117.515625 209.039062 118.128906 209.257812 118.726562 209.507812 C 119.328125 209.753906 119.914062 210.03125 120.488281 210.335938 C 121.058594 210.644531 121.617188 210.976562 122.15625 211.335938 C 122.695312 211.699219 123.21875 212.082031 123.71875 212.496094 C 124.222656 212.90625 124.703125 213.339844 125.160156 213.800781 Z M 125.160156 213.800781 " fill-opacity="1" fill-rule="nonzero"/><path fill="#ffffff" d="M 113.839844 211.363281 C 114.378906 211.449219 114.914062 211.5625 115.441406 211.703125 C 115.96875 211.84375 116.488281 212.011719 117 212.203125 C 117.511719 212.394531 118.015625 212.609375 118.503906 212.847656 C 118.996094 213.089844 119.472656 213.355469 119.9375 213.640625 C 120.402344 213.929688 120.851562 214.238281 121.285156 214.570312 C 121.71875 214.902344 122.136719 215.253906 122.535156 215.625 C 122.933594 215.996094 123.316406 216.386719 123.675781 216.796875 C 124.039062 217.207031 124.378906 217.632812 124.695312 218.078125 C 125.015625 218.519531 125.3125 218.976562 125.585938 219.449219 C 125.859375 219.921875 126.109375 220.40625 126.335938 220.902344 C 126.5625 221.398438 126.765625 221.90625 126.941406 222.421875 C 127.117188 222.941406 127.269531 223.464844 127.394531 223.996094 C 127.519531 224.527344 127.617188 225.0625 127.691406 225.601562 C 127.761719 226.144531 127.808594 226.6875 127.828125 227.234375 C 127.84375 227.777344 127.835938 228.324219 127.804688 228.867188 C 127.769531 229.414062 127.707031 229.953125 127.617188 230.492188 C 127.53125 231.03125 127.417969 231.566406 127.277344 232.09375 C 127.136719 232.621094 126.96875 233.140625 126.777344 233.648438 C 126.585938 234.160156 126.371094 234.660156 126.128906 235.152344 C 125.890625 235.640625 125.625 236.117188 125.335938 236.582031 C 125.050781 237.046875 124.738281 237.496094 124.40625 237.929688 C 124.074219 238.363281 123.722656 238.78125 123.351562 239.179688 C 122.976562 239.578125 122.585938 239.957031 122.175781 240.316406 C 121.765625 240.679688 121.339844 241.019531 120.894531 241.335938 C 120.453125 241.65625 119.996094 241.953125 119.519531 242.226562 C 119.046875 242.5 118.5625 242.75 118.066406 242.976562 C 117.570312 243.203125 117.0625 243.402344 116.546875 243.578125 C 116.027344 243.753906 115.503906 243.90625 114.972656 244.03125 C 114.441406 244.15625 113.902344 244.253906 113.359375 244.328125 C 112.820312 244.398438 112.277344 244.445312 111.730469 244.464844 C 111.183594 244.484375 110.636719 244.472656 110.09375 244.441406 C 109.546875 244.40625 109.003906 244.34375 108.464844 244.257812 C 107.925781 244.167969 107.394531 244.054688 106.863281 243.914062 C 106.335938 243.773438 105.816406 243.609375 105.304688 243.417969 C 104.792969 243.226562 104.292969 243.007812 103.800781 242.769531 C 103.3125 242.527344 102.832031 242.265625 102.371094 241.976562 C 101.90625 241.6875 101.457031 241.378906 101.019531 241.046875 C 100.585938 240.71875 100.171875 240.363281 99.769531 239.992188 C 99.371094 239.621094 98.992188 239.230469 98.628906 238.820312 C 98.269531 238.410156 97.929688 237.984375 97.609375 237.539062 C 97.292969 237.097656 96.996094 236.640625 96.71875 236.167969 C 96.445312 235.695312 96.195312 235.210938 95.96875 234.714844 C 95.742188 234.21875 95.542969 233.710938 95.363281 233.195312 C 95.1875 232.679688 95.039062 232.152344 94.914062 231.621094 C 94.789062 231.089844 94.6875 230.554688 94.617188 230.015625 C 94.542969 229.472656 94.5 228.929688 94.480469 228.382812 C 94.460938 227.839844 94.46875 227.292969 94.503906 226.75 C 94.539062 226.203125 94.601562 225.664062 94.6875 225.125 C 94.777344 224.585938 94.890625 224.050781 95.03125 223.523438 C 95.171875 222.996094 95.335938 222.476562 95.527344 221.96875 C 95.71875 221.457031 95.9375 220.957031 96.175781 220.464844 C 96.417969 219.976562 96.683594 219.5 96.96875 219.035156 C 97.257812 218.570312 97.566406 218.121094 97.898438 217.6875 C 98.230469 217.253906 98.582031 216.839844 98.957031 216.4375 C 99.328125 216.039062 99.71875 215.660156 100.128906 215.300781 C 100.539062 214.9375 100.96875 214.597656 101.410156 214.28125 C 101.855469 213.960938 102.3125 213.664062 102.785156 213.390625 C 103.257812 213.117188 103.742188 212.867188 104.238281 212.640625 C 104.738281 212.414062 105.246094 212.214844 105.761719 212.039062 C 106.277344 211.863281 106.804688 211.710938 107.335938 211.585938 C 107.867188 211.460938 108.402344 211.363281 108.945312 211.289062 C 109.488281 211.21875 110.03125 211.171875 110.578125 211.152344 C 111.121094 211.136719 111.667969 211.144531 112.214844 211.175781 C 112.757812 211.210938 113.300781 211.273438 113.839844 211.363281 Z M 113.839844 211.363281 " fill-opacity="0.43" fill-rule="nonzero"/><path fill="#5c5c5c" d="M 120.710938 218.246094 C 121.339844 218.875 121.902344 219.558594 122.394531 220.292969 C 122.890625 221.03125 123.304688 221.8125 123.644531 222.632812 C 123.984375 223.453125 124.242188 224.296875 124.417969 225.167969 C 124.589844 226.039062 124.675781 226.917969 124.675781 227.808594 C 124.675781 228.695312 124.589844 229.574219 124.417969 230.445312 C 124.242188 231.316406 123.984375 232.160156 123.644531 232.980469 C 123.304688 233.800781 122.890625 234.582031 122.394531 235.320312 C 121.902344 236.058594 121.339844 236.742188 120.710938 237.367188 C 120.082031 237.996094 119.398438 238.554688 118.660156 239.050781 C 117.921875 239.542969 117.140625 239.960938 116.320312 240.300781 C 115.5 240.640625 114.652344 240.894531 113.78125 241.070312 C 112.910156 241.242188 112.027344 241.328125 111.140625 241.328125 C 110.25 241.328125 109.371094 241.242188 108.5 241.070312 C 107.628906 240.894531 106.78125 240.640625 105.960938 240.300781 C 105.140625 239.960938 104.359375 239.542969 103.621094 239.050781 C 102.878906 238.558594 102.195312 237.996094 101.566406 237.367188 C 100.941406 236.742188 100.378906 236.058594 99.886719 235.320312 C 99.390625 234.582031 98.972656 233.800781 98.632812 232.980469 C 98.292969 232.160156 98.035156 231.316406 97.863281 230.445312 C 97.691406 229.574219 97.601562 228.695312 97.601562 227.808594 C 97.601562 226.917969 97.691406 226.039062 97.863281 225.167969 C 98.035156 224.296875 98.292969 223.453125 98.632812 222.632812 C 98.972656 221.8125 99.390625 221.035156 99.882812 220.296875 C 100.378906 219.558594 100.941406 218.875 101.566406 218.246094 C 102.195312 217.617188 102.878906 217.058594 103.621094 216.566406 C 104.359375 216.070312 105.136719 215.65625 105.960938 215.316406 C 106.78125 214.976562 107.628906 214.71875 108.5 214.546875 C 109.371094 214.371094 110.25 214.285156 111.140625 214.285156 C 112.027344 214.285156 112.910156 214.371094 113.78125 214.546875 C 114.652344 214.71875 115.5 214.976562 116.320312 215.316406 C 117.140625 215.65625 117.921875 216.070312 118.660156 216.5625 C 119.398438 217.058594 120.082031 217.617188 120.710938 218.246094 Z M 120.710938 218.246094 " fill-opacity="1" fill-rule="nonzero"/><path fill="#ffffff" d="M 111.136719 220.324219 C 115.28125 220.324219 118.628906 223.664062 118.628906 227.808594 C 118.628906 231.949219 115.28125 235.292969 111.136719 235.292969 C 106.988281 235.292969 103.644531 231.949219 103.644531 227.808594 C 103.691406 223.664062 106.988281 220.324219 111.136719 220.324219 Z M 111.136719 220.324219 " fill-opacity="0.43" fill-rule="nonzero"/><path fill="#5c5c5c" d="M 111.136719 224.464844 C 112.984375 224.464844 114.480469 225.960938 114.480469 227.808594 C 114.480469 229.652344 112.984375 231.148438 111.136719 231.148438 C 109.289062 231.148438 107.789062 229.652344 107.789062 227.808594 C 107.789062 225.960938 109.289062 224.464844 111.136719 224.464844 Z M 111.136719 224.464844 " fill-opacity="1" fill-rule="nonzero"/><path fill="#5c5c5c" d="M 111.136719 220.871094 C 110.238281 220.871094 109.488281 221.621094 109.488281 222.519531 C 109.488281 223.417969 110.238281 224.164062 111.136719 224.164062 C 112.035156 224.164062 112.785156 223.417969 112.785156 222.519531 C 112.785156 221.570312 112.035156 220.871094 111.136719 220.871094 Z M 111.136719 231.550781 C 110.238281 231.550781 109.488281 232.296875 109.488281 233.195312 C 109.488281 234.09375 110.238281 234.84375 111.136719 234.84375 C 112.035156 234.84375 112.785156 234.09375 112.785156 233.195312 C 112.785156 232.296875 112.035156 231.550781 111.136719 231.550781 Z M 111.136719 231.550781 " fill-opacity="1" fill-rule="nonzero"/><path fill="#5c5c5c" d="M 116.082031 222.917969 C 115.429688 222.269531 114.433594 222.269531 113.78125 222.917969 C 113.132812 223.566406 113.132812 224.5625 113.78125 225.210938 C 114.433594 225.859375 115.429688 225.859375 116.082031 225.210938 C 116.679688 224.5625 116.679688 223.566406 116.082031 222.917969 Z M 108.488281 230.5 C 107.839844 229.851562 106.839844 229.851562 106.191406 230.5 C 105.542969 231.148438 105.542969 232.148438 106.191406 232.796875 C 106.839844 233.445312 107.839844 233.445312 108.488281 232.796875 C 109.136719 232.148438 109.136719 231.101562 108.488281 230.5 Z M 108.488281 230.5 " fill-opacity="1" fill-rule="nonzero"/><path fill="#5c5c5c" d="M 118.128906 227.855469 C 118.128906 226.957031 117.378906 226.210938 116.480469 226.210938 C 115.582031 226.210938 114.832031 226.957031 114.832031 227.855469 C 114.832031 228.753906 115.582031 229.503906 116.480469 229.503906 C 117.429688 229.453125 118.128906 228.753906 118.128906 227.855469 Z M 107.390625 227.855469 C 107.390625 226.957031 106.640625 226.210938 105.742188 226.210938 C 104.84375 226.210938 104.09375 226.957031 104.09375 227.855469 C 104.09375 228.753906 104.84375 229.503906 105.742188 229.503906 C 106.691406 229.453125 107.390625 228.753906 107.390625 227.855469 Z M 107.390625 227.855469 " fill-opacity="1" fill-rule="nonzero"/><path fill="#5c5c5c" d="M 116.082031 232.796875 C 116.730469 232.148438 116.730469 231.148438 116.082031 230.5 C 115.429688 229.851562 114.433594 229.851562 113.78125 230.5 C 113.132812 231.148438 113.132812 232.148438 113.78125 232.796875 C 114.433594 233.445312 115.429688 233.445312 116.082031 232.796875 Z M 108.488281 225.210938 C 109.136719 224.5625 109.1875 223.566406 108.539062 222.917969 C 108.539062 222.917969 108.488281 222.867188 108.488281 222.917969 C 107.839844 222.269531 106.839844 222.269531 106.191406 222.917969 C 105.542969 223.566406 105.542969 224.5625 106.191406 225.210938 C 106.839844 225.859375 107.839844 225.859375 108.488281 225.210938 Z M 108.488281 225.210938 " fill-opacity="1" fill-rule="nonzero"/><path fill="#5c5c5c" d="M 297.449219 216.828125 C 297.449219 218.21875 297.382812 219.605469 297.246094 220.988281 C 297.109375 222.371094 296.90625 223.742188 296.632812 225.105469 C 296.363281 226.464844 296.023438 227.8125 295.621094 229.140625 C 295.21875 230.46875 294.75 231.777344 294.21875 233.058594 C 293.683594 234.34375 293.089844 235.597656 292.4375 236.820312 C 291.78125 238.046875 291.066406 239.238281 290.292969 240.390625 C 289.523438 241.546875 288.695312 242.660156 287.8125 243.734375 C 286.929688 244.808594 285.996094 245.835938 285.015625 246.820312 C 284.03125 247.800781 283 248.734375 281.925781 249.613281 C 280.851562 250.496094 279.734375 251.320312 278.578125 252.09375 C 277.425781 252.863281 276.234375 253.578125 275.007812 254.234375 C 273.78125 254.886719 272.523438 255.480469 271.238281 256.011719 C 269.953125 256.542969 268.648438 257.011719 267.316406 257.414062 C 265.984375 257.816406 264.640625 258.15625 263.273438 258.425781 C 261.910156 258.695312 260.539062 258.898438 259.152344 259.035156 C 257.769531 259.171875 256.382812 259.242188 254.992188 259.242188 C 253.601562 259.242188 252.214844 259.171875 250.832031 259.035156 C 249.445312 258.898438 248.074219 258.695312 246.707031 258.425781 C 245.34375 258.15625 243.996094 257.816406 242.667969 257.414062 C 241.335938 257.011719 240.027344 256.542969 238.742188 256.011719 C 237.460938 255.480469 236.203125 254.886719 234.976562 254.234375 C 233.75 253.578125 232.558594 252.863281 231.402344 252.09375 C 230.246094 251.320312 229.132812 250.496094 228.058594 249.613281 C 226.980469 248.734375 225.953125 247.800781 224.96875 246.820312 C 223.988281 245.835938 223.054688 244.808594 222.171875 243.734375 C 221.289062 242.660156 220.460938 241.546875 219.691406 240.390625 C 218.917969 239.238281 218.203125 238.046875 217.546875 236.820312 C 216.890625 235.597656 216.296875 234.34375 215.765625 233.058594 C 215.234375 231.777344 214.765625 230.46875 214.363281 229.140625 C 213.957031 227.8125 213.621094 226.464844 213.351562 225.105469 C 213.078125 223.742188 212.875 222.371094 212.738281 220.988281 C 212.601562 219.605469 212.535156 218.21875 212.535156 216.828125 C 212.535156 215.441406 212.601562 214.054688 212.738281 212.671875 C 212.875 211.289062 213.078125 209.917969 213.351562 208.554688 C 213.621094 207.195312 213.957031 205.847656 214.363281 204.519531 C 214.765625 203.191406 215.234375 201.882812 215.765625 200.601562 C 216.296875 199.316406 216.890625 198.0625 217.546875 196.839844 C 218.203125 195.613281 218.917969 194.421875 219.691406 193.269531 C 220.460938 192.113281 221.289062 191 222.171875 189.925781 C 223.054688 188.851562 223.988281 187.824219 224.96875 186.839844 C 225.953125 185.859375 226.980469 184.925781 228.058594 184.046875 C 229.132812 183.164062 230.246094 182.339844 231.402344 181.566406 C 232.558594 180.796875 233.75 180.082031 234.976562 179.425781 C 236.203125 178.773438 237.460938 178.179688 238.742188 177.648438 C 240.027344 177.117188 241.335938 176.648438 242.667969 176.246094 C 243.996094 175.84375 245.34375 175.503906 246.707031 175.234375 C 248.074219 174.964844 249.445312 174.761719 250.832031 174.625 C 252.214844 174.488281 253.601562 174.417969 254.992188 174.417969 C 256.382812 174.417969 257.769531 174.488281 259.152344 174.625 C 260.539062 174.761719 261.910156 174.964844 263.273438 175.234375 C 264.640625 175.503906 265.984375 175.84375 267.316406 176.246094 C 268.648438 176.648438 269.953125 177.117188 271.238281 177.648438 C 272.523438 178.179688 273.78125 178.773438 275.007812 179.425781 C 276.234375 180.082031 277.425781 180.796875 278.578125 181.566406 C 279.734375 182.339844 280.851562 183.164062 281.925781 184.046875 C 283 184.925781 284.03125 185.859375 285.015625 186.839844 C 285.996094 187.824219 286.929688 188.851562 287.8125 189.925781 C 288.695312 191 289.523438 192.113281 290.292969 193.269531 C 291.066406 194.421875 291.78125 195.613281 292.4375 196.839844 C 293.089844 198.0625 293.683594 199.316406 294.21875 200.601562 C 294.75 201.882812 295.21875 203.191406 295.621094 204.519531 C 296.023438 205.847656 296.363281 207.195312 296.632812 208.554688 C 296.90625 209.917969 297.109375 211.289062 297.246094 212.671875 C 297.382812 214.054688 297.449219 215.441406 297.449219 216.828125 Z M 297.449219 216.828125 " fill-opacity="1" fill-rule="nonzero"/><path fill="#ffffff" d="M 281.734375 190.117188 C 282.609375 190.992188 283.441406 191.90625 284.226562 192.863281 C 285.011719 193.820312 285.75 194.8125 286.4375 195.839844 C 287.125 196.867188 287.761719 197.929688 288.34375 199.019531 C 288.929688 200.109375 289.457031 201.226562 289.933594 202.371094 C 290.40625 203.511719 290.824219 204.675781 291.183594 205.859375 C 291.542969 207.042969 291.84375 208.242188 292.082031 209.457031 C 292.324219 210.667969 292.507812 211.890625 292.628906 213.121094 C 292.75 214.351562 292.808594 215.585938 292.808594 216.824219 C 292.808594 218.0625 292.75 219.296875 292.628906 220.527344 C 292.507812 221.757812 292.324219 222.980469 292.082031 224.191406 C 291.84375 225.40625 291.542969 226.605469 291.183594 227.789062 C 290.824219 228.972656 290.40625 230.136719 289.933594 231.277344 C 289.457031 232.421875 288.929688 233.539062 288.347656 234.628906 C 287.761719 235.71875 287.125 236.78125 286.4375 237.808594 C 285.75 238.835938 285.011719 239.828125 284.226562 240.785156 C 283.441406 241.742188 282.613281 242.65625 281.734375 243.53125 C 280.859375 244.40625 279.945312 245.238281 278.988281 246.019531 C 278.027344 246.804688 277.035156 247.542969 276.007812 248.230469 C 274.976562 248.917969 273.914062 249.550781 272.824219 250.136719 C 271.730469 250.71875 270.613281 251.246094 269.46875 251.71875 C 268.324219 252.191406 267.160156 252.609375 265.976562 252.96875 C 264.789062 253.328125 263.589844 253.628906 262.375 253.871094 C 261.160156 254.109375 259.9375 254.292969 258.703125 254.414062 C 257.472656 254.535156 256.238281 254.59375 255 254.59375 C 253.761719 254.59375 252.523438 254.535156 251.292969 254.414062 C 250.058594 254.292969 248.835938 254.109375 247.621094 253.871094 C 246.40625 253.628906 245.207031 253.328125 244.023438 252.96875 C 242.835938 252.609375 241.671875 252.195312 240.527344 251.71875 C 239.382812 251.246094 238.265625 250.71875 237.175781 250.136719 C 236.082031 249.550781 235.019531 248.917969 233.992188 248.230469 C 232.960938 247.542969 231.96875 246.808594 231.011719 246.023438 C 230.054688 245.238281 229.136719 244.40625 228.261719 243.53125 C 227.386719 242.660156 226.554688 241.742188 225.769531 240.785156 C 224.984375 239.832031 224.246094 238.839844 223.558594 237.808594 C 222.871094 236.78125 222.234375 235.722656 221.652344 234.628906 C 221.066406 233.539062 220.539062 232.421875 220.0625 231.28125 C 219.589844 230.136719 219.171875 228.972656 218.8125 227.789062 C 218.453125 226.605469 218.152344 225.40625 217.914062 224.195312 C 217.671875 222.980469 217.488281 221.757812 217.367188 220.527344 C 217.246094 219.296875 217.1875 218.0625 217.1875 216.824219 C 217.1875 215.589844 217.246094 214.355469 217.367188 213.125 C 217.488281 211.890625 217.671875 210.671875 217.914062 209.457031 C 218.152344 208.242188 218.453125 207.046875 218.8125 205.863281 C 219.171875 204.679688 219.589844 203.515625 220.0625 202.371094 C 220.539062 201.230469 221.066406 200.113281 221.648438 199.019531 C 222.234375 197.929688 222.871094 196.871094 223.558594 195.839844 C 224.246094 194.8125 224.984375 193.820312 225.769531 192.863281 C 226.554688 191.90625 227.382812 190.992188 228.261719 190.117188 C 229.136719 189.242188 230.050781 188.414062 231.007812 187.628906 C 231.96875 186.84375 232.960938 186.109375 233.988281 185.421875 C 235.019531 184.734375 236.082031 184.097656 237.171875 183.515625 C 238.265625 182.933594 239.382812 182.402344 240.527344 181.929688 C 241.671875 181.457031 242.835938 181.039062 244.019531 180.679688 C 245.207031 180.320312 246.40625 180.023438 247.621094 179.78125 C 248.835938 179.539062 250.058594 179.359375 251.292969 179.238281 C 252.523438 179.117188 253.757812 179.054688 254.996094 179.054688 C 256.234375 179.054688 257.472656 179.117188 258.703125 179.238281 C 259.9375 179.359375 261.160156 179.539062 262.375 179.78125 C 263.589844 180.023438 264.789062 180.320312 265.972656 180.679688 C 267.160156 181.039062 268.324219 181.457031 269.46875 181.929688 C 270.613281 182.402344 271.730469 182.929688 272.820312 183.515625 C 273.914062 184.097656 274.976562 184.734375 276.003906 185.417969 C 277.035156 186.105469 278.027344 186.84375 278.984375 187.628906 C 279.941406 188.414062 280.859375 189.242188 281.734375 190.117188 Z M 281.734375 190.117188 " fill-opacity="0.09" fill-rule="nonzero"/><path fill="#3f3f3f" d="M 281.765625 216.828125 C 281.765625 217.707031 281.722656 218.578125 281.636719 219.453125 C 281.550781 220.324219 281.421875 221.1875 281.25 222.046875 C 281.078125 222.90625 280.867188 223.753906 280.613281 224.59375 C 280.359375 225.429688 280.0625 226.253906 279.726562 227.0625 C 279.390625 227.875 279.015625 228.664062 278.605469 229.4375 C 278.191406 230.210938 277.738281 230.960938 277.253906 231.6875 C 276.765625 232.417969 276.246094 233.117188 275.6875 233.796875 C 275.132812 234.472656 274.542969 235.121094 273.921875 235.742188 C 273.304688 236.359375 272.65625 236.949219 271.976562 237.503906 C 271.300781 238.058594 270.59375 238.578125 269.867188 239.066406 C 269.136719 239.554688 268.386719 240.003906 267.613281 240.414062 C 266.839844 240.828125 266.046875 241.203125 265.238281 241.539062 C 264.425781 241.871094 263.601562 242.167969 262.765625 242.421875 C 261.925781 242.675781 261.074219 242.890625 260.214844 243.058594 C 259.355469 243.230469 258.488281 243.359375 257.617188 243.445312 C 256.742188 243.53125 255.867188 243.574219 254.992188 243.574219 C 254.113281 243.574219 253.242188 243.53125 252.367188 243.445312 C 251.496094 243.359375 250.628906 243.230469 249.769531 243.058594 C 248.910156 242.890625 248.058594 242.675781 247.21875 242.421875 C 246.382812 242.167969 245.554688 241.871094 244.746094 241.539062 C 243.9375 241.203125 243.144531 240.828125 242.371094 240.414062 C 241.597656 240.003906 240.847656 239.554688 240.117188 239.066406 C 239.386719 238.578125 238.683594 238.058594 238.007812 237.503906 C 237.328125 236.949219 236.679688 236.359375 236.058594 235.742188 C 235.441406 235.121094 234.851562 234.472656 234.296875 233.796875 C 233.738281 233.117188 233.21875 232.417969 232.730469 231.6875 C 232.242188 230.960938 231.792969 230.210938 231.378906 229.4375 C 230.964844 228.664062 230.59375 227.875 230.257812 227.0625 C 229.921875 226.253906 229.625 225.429688 229.371094 224.59375 C 229.117188 223.753906 228.902344 222.90625 228.734375 222.046875 C 228.5625 221.1875 228.433594 220.324219 228.347656 219.453125 C 228.261719 218.578125 228.21875 217.707031 228.21875 216.828125 C 228.21875 215.953125 228.261719 215.082031 228.347656 214.207031 C 228.433594 213.335938 228.5625 212.472656 228.734375 211.613281 C 228.902344 210.753906 229.117188 209.90625 229.371094 209.066406 C 229.625 208.230469 229.921875 207.40625 230.257812 206.597656 C 230.59375 205.785156 230.964844 204.996094 231.378906 204.222656 C 231.792969 203.449219 232.242188 202.699219 232.730469 201.972656 C 233.21875 201.242188 233.738281 200.542969 234.296875 199.863281 C 234.851562 199.1875 235.441406 198.539062 236.058594 197.917969 C 236.679688 197.300781 237.328125 196.710938 238.007812 196.15625 C 238.683594 195.601562 239.386719 195.082031 240.117188 194.59375 C 240.847656 194.105469 241.597656 193.65625 242.371094 193.246094 C 243.144531 192.832031 243.9375 192.457031 244.746094 192.121094 C 245.554688 191.785156 246.382812 191.492188 247.21875 191.238281 C 248.058594 190.984375 248.910156 190.769531 249.769531 190.601562 C 250.628906 190.429688 251.496094 190.300781 252.367188 190.214844 C 253.242188 190.128906 254.113281 190.085938 254.992188 190.085938 C 255.867188 190.085938 256.742188 190.128906 257.617188 190.214844 C 258.488281 190.300781 259.355469 190.429688 260.214844 190.601562 C 261.074219 190.769531 261.925781 190.984375 262.765625 191.238281 C 263.601562 191.492188 264.425781 191.785156 265.238281 192.121094 C 266.046875 192.457031 266.839844 192.832031 267.613281 193.246094 C 268.386719 193.65625 269.136719 194.105469 269.867188 194.59375 C 270.59375 195.082031 271.300781 195.601562 271.976562 196.15625 C 272.65625 196.710938 273.304688 197.300781 273.921875 197.917969 C 274.542969 198.539062 275.132812 199.1875 275.6875 199.863281 C 276.246094 200.542969 276.765625 201.242188 277.253906 201.972656 C 277.738281 202.699219 278.191406 203.449219 278.605469 204.222656 C 279.015625 204.996094 279.390625 205.785156 279.726562 206.597656 C 280.0625 207.40625 280.359375 208.230469 280.613281 209.066406 C 280.867188 209.90625 281.078125 210.753906 281.25 211.613281 C 281.421875 212.472656 281.550781 213.335938 281.636719 214.207031 C 281.722656 215.082031 281.765625 215.953125 281.765625 216.828125 Z M 281.765625 216.828125 " fill-opacity="1" fill-rule="nonzero"/><path fill="#ffffff" d="M 277.46875 216.828125 C 277.46875 217.566406 277.433594 218.300781 277.359375 219.03125 C 277.289062 219.761719 277.179688 220.488281 277.039062 221.210938 C 276.894531 221.929688 276.714844 222.644531 276.5 223.347656 C 276.289062 224.050781 276.039062 224.742188 275.757812 225.421875 C 275.476562 226.101562 275.164062 226.765625 274.816406 227.414062 C 274.46875 228.0625 274.089844 228.691406 273.679688 229.304688 C 273.273438 229.914062 272.835938 230.503906 272.367188 231.074219 C 271.898438 231.640625 271.40625 232.1875 270.886719 232.707031 C 270.367188 233.226562 269.820312 233.71875 269.25 234.1875 C 268.683594 234.652344 268.09375 235.089844 267.480469 235.5 C 266.867188 235.90625 266.238281 236.285156 265.585938 236.632812 C 264.9375 236.976562 264.273438 237.292969 263.59375 237.574219 C 262.914062 237.855469 262.222656 238.101562 261.515625 238.316406 C 260.8125 238.53125 260.097656 238.707031 259.378906 238.851562 C 258.65625 238.996094 257.925781 239.101562 257.195312 239.175781 C 256.460938 239.246094 255.726562 239.28125 254.992188 239.28125 C 254.253906 239.28125 253.519531 239.246094 252.789062 239.175781 C 252.054688 239.101562 251.328125 238.996094 250.605469 238.851562 C 249.882812 238.707031 249.171875 238.53125 248.46875 238.316406 C 247.761719 238.101562 247.070312 237.855469 246.390625 237.574219 C 245.710938 237.292969 245.046875 236.976562 244.394531 236.632812 C 243.746094 236.285156 243.117188 235.90625 242.503906 235.5 C 241.890625 235.089844 241.300781 234.652344 240.730469 234.1875 C 240.164062 233.71875 239.617188 233.226562 239.097656 232.707031 C 238.578125 232.1875 238.082031 231.640625 237.617188 231.074219 C 237.148438 230.503906 236.710938 229.914062 236.300781 229.304688 C 235.894531 228.691406 235.515625 228.0625 235.167969 227.414062 C 234.820312 226.765625 234.507812 226.101562 234.226562 225.421875 C 233.945312 224.742188 233.695312 224.050781 233.480469 223.347656 C 233.269531 222.644531 233.089844 221.929688 232.945312 221.210938 C 232.800781 220.488281 232.695312 219.761719 232.621094 219.03125 C 232.550781 218.300781 232.515625 217.566406 232.515625 216.828125 C 232.515625 216.09375 232.550781 215.359375 232.621094 214.628906 C 232.695312 213.898438 232.800781 213.171875 232.945312 212.449219 C 233.089844 211.730469 233.269531 211.015625 233.480469 210.3125 C 233.695312 209.609375 233.945312 208.917969 234.226562 208.238281 C 234.507812 207.558594 234.820312 206.894531 235.167969 206.246094 C 235.515625 205.597656 235.894531 204.96875 236.300781 204.355469 C 236.710938 203.746094 237.148438 203.15625 237.617188 202.585938 C 238.082031 202.019531 238.578125 201.472656 239.097656 200.953125 C 239.617188 200.433594 240.164062 199.941406 240.730469 199.472656 C 241.300781 199.007812 241.890625 198.570312 242.503906 198.160156 C 243.117188 197.753906 243.746094 197.375 244.394531 197.027344 C 245.046875 196.683594 245.710938 196.367188 246.390625 196.085938 C 247.070312 195.804688 247.761719 195.558594 248.46875 195.34375 C 249.171875 195.128906 249.882812 194.953125 250.605469 194.808594 C 251.328125 194.664062 252.054688 194.558594 252.789062 194.484375 C 253.519531 194.414062 254.253906 194.378906 254.992188 194.378906 C 255.726562 194.378906 256.460938 194.414062 257.195312 194.484375 C 257.925781 194.558594 258.65625 194.664062 259.378906 194.808594 C 260.097656 194.953125 260.8125 195.128906 261.515625 195.34375 C 262.222656 195.558594 262.914062 195.804688 263.59375 196.085938 C 264.273438 196.367188 264.9375 196.683594 265.585938 197.027344 C 266.238281 197.375 266.867188 197.753906 267.480469 198.160156 C 268.09375 198.570312 268.683594 199.007812 269.25 199.472656 C 269.820312 199.941406 270.367188 200.433594 270.886719 200.953125 C 271.40625 201.472656 271.898438 202.019531 272.367188 202.585938 C 272.835938 203.15625 273.273438 203.746094 273.679688 204.355469 C 274.089844 204.96875 274.46875 205.597656 274.816406 206.246094 C 275.164062 206.894531 275.476562 207.558594 275.757812 208.238281 C 276.039062 208.917969 276.289062 209.609375 276.5 210.3125 C 276.714844 211.015625 276.894531 211.730469 277.039062 212.449219 C 277.179688 213.171875 277.289062 213.898438 277.359375 214.628906 C 277.433594 215.359375 277.46875 216.09375 277.46875 216.828125 Z M 277.46875 216.828125 " fill-opacity="0.43" fill-rule="nonzero"/><path fill="#5c5c5c" d="M 267.890625 203.949219 C 268.3125 204.367188 268.710938 204.808594 269.089844 205.273438 C 269.46875 205.734375 269.824219 206.210938 270.15625 206.707031 C 270.488281 207.203125 270.796875 207.714844 271.078125 208.238281 C 271.359375 208.765625 271.613281 209.304688 271.84375 209.855469 C 272.070312 210.40625 272.269531 210.96875 272.445312 211.539062 C 272.617188 212.109375 272.761719 212.6875 272.878906 213.273438 C 272.996094 213.855469 273.082031 214.445312 273.140625 215.039062 C 273.199219 215.632812 273.230469 216.226562 273.230469 216.824219 C 273.230469 217.421875 273.199219 218.015625 273.140625 218.609375 C 273.082031 219.203125 272.996094 219.792969 272.878906 220.378906 C 272.761719 220.960938 272.617188 221.539062 272.445312 222.109375 C 272.273438 222.683594 272.070312 223.242188 271.84375 223.792969 C 271.613281 224.34375 271.359375 224.882812 271.078125 225.410156 C 270.796875 225.9375 270.488281 226.445312 270.15625 226.941406 C 269.824219 227.4375 269.46875 227.917969 269.089844 228.378906 C 268.710938 228.839844 268.3125 229.28125 267.890625 229.703125 C 267.46875 230.125 267.027344 230.523438 266.5625 230.902344 C 266.101562 231.28125 265.625 231.636719 265.128906 231.96875 C 264.632812 232.296875 264.121094 232.605469 263.59375 232.886719 C 263.066406 233.167969 262.527344 233.421875 261.976562 233.648438 C 261.421875 233.878906 260.863281 234.078125 260.289062 234.253906 C 259.71875 234.425781 259.140625 234.570312 258.554688 234.6875 C 257.96875 234.804688 257.378906 234.890625 256.785156 234.949219 C 256.191406 235.007812 255.59375 235.035156 255 235.035156 C 254.402344 235.035156 253.804688 235.007812 253.210938 234.949219 C 252.617188 234.890625 252.027344 234.804688 251.441406 234.6875 C 250.855469 234.570312 250.277344 234.425781 249.707031 234.253906 C 249.132812 234.078125 248.574219 233.878906 248.019531 233.652344 C 247.46875 233.421875 246.929688 233.167969 246.402344 232.886719 C 245.878906 232.605469 245.367188 232.300781 244.871094 231.96875 C 244.371094 231.636719 243.894531 231.28125 243.433594 230.902344 C 242.96875 230.523438 242.527344 230.125 242.105469 229.703125 C 241.683594 229.28125 241.285156 228.839844 240.90625 228.378906 C 240.527344 227.917969 240.171875 227.4375 239.839844 226.941406 C 239.507812 226.445312 239.199219 225.9375 238.917969 225.410156 C 238.636719 224.882812 238.382812 224.34375 238.152344 223.792969 C 237.925781 223.242188 237.726562 222.683594 237.550781 222.113281 C 237.378906 221.542969 237.234375 220.964844 237.117188 220.378906 C 237 219.792969 236.914062 219.203125 236.855469 218.609375 C 236.796875 218.015625 236.765625 217.421875 236.765625 216.824219 C 236.765625 216.230469 236.796875 215.632812 236.855469 215.039062 C 236.914062 214.445312 237 213.859375 237.117188 213.273438 C 237.234375 212.6875 237.378906 212.109375 237.550781 211.539062 C 237.722656 210.96875 237.925781 210.40625 238.152344 209.855469 C 238.382812 209.304688 238.636719 208.765625 238.917969 208.242188 C 239.199219 207.714844 239.507812 207.203125 239.839844 206.707031 C 240.171875 206.210938 240.527344 205.734375 240.90625 205.273438 C 241.285156 204.8125 241.683594 204.371094 242.105469 203.949219 C 242.527344 203.527344 242.96875 203.125 243.433594 202.746094 C 243.894531 202.367188 244.371094 202.015625 244.867188 201.683594 C 245.367188 201.351562 245.875 201.046875 246.402344 200.765625 C 246.929688 200.484375 247.46875 200.226562 248.019531 200 C 248.574219 199.773438 249.132812 199.570312 249.707031 199.398438 C 250.277344 199.222656 250.855469 199.078125 251.441406 198.964844 C 252.027344 198.847656 252.617188 198.757812 253.210938 198.703125 C 253.804688 198.644531 254.402344 198.613281 254.996094 198.613281 C 255.59375 198.613281 256.191406 198.644531 256.785156 198.699219 C 257.378906 198.757812 257.96875 198.847656 258.554688 198.964844 C 259.140625 199.078125 259.71875 199.222656 260.289062 199.398438 C 260.863281 199.570312 261.421875 199.769531 261.976562 200 C 262.527344 200.226562 263.066406 200.484375 263.59375 200.765625 C 264.117188 201.042969 264.628906 201.351562 265.125 201.683594 C 265.625 202.015625 266.101562 202.367188 266.5625 202.746094 C 267.027344 203.125 267.46875 203.527344 267.890625 203.949219 Z M 267.890625 203.949219 " fill-opacity="1" fill-rule="nonzero"/><path fill="#ffffff" d="M 265.082031 216.828125 C 265.082031 217.492188 265.015625 218.148438 264.886719 218.796875 C 264.757812 219.445312 264.566406 220.074219 264.3125 220.6875 C 264.058594 221.296875 263.75 221.878906 263.382812 222.429688 C 263.011719 222.980469 262.59375 223.488281 262.125 223.957031 C 261.65625 224.425781 261.148438 224.84375 260.597656 225.210938 C 260.046875 225.578125 259.464844 225.886719 258.851562 226.140625 C 258.242188 226.394531 257.609375 226.585938 256.960938 226.714844 C 256.308594 226.84375 255.65625 226.910156 254.992188 226.910156 C 254.328125 226.910156 253.671875 226.84375 253.023438 226.714844 C 252.375 226.585938 251.742188 226.394531 251.128906 226.140625 C 250.519531 225.886719 249.9375 225.578125 249.386719 225.210938 C 248.835938 224.84375 248.324219 224.425781 247.855469 223.957031 C 247.390625 223.488281 246.96875 222.980469 246.601562 222.429688 C 246.234375 221.878906 245.921875 221.296875 245.671875 220.6875 C 245.417969 220.074219 245.226562 219.445312 245.097656 218.796875 C 244.964844 218.148438 244.902344 217.492188 244.902344 216.828125 C 244.902344 216.167969 244.964844 215.511719 245.097656 214.863281 C 245.226562 214.214844 245.417969 213.585938 245.671875 212.972656 C 245.921875 212.363281 246.234375 211.78125 246.601562 211.230469 C 246.96875 210.679688 247.390625 210.171875 247.855469 209.703125 C 248.324219 209.234375 248.835938 208.816406 249.386719 208.449219 C 249.9375 208.082031 250.519531 207.773438 251.128906 207.519531 C 251.742188 207.265625 252.375 207.074219 253.023438 206.945312 C 253.671875 206.816406 254.328125 206.75 254.992188 206.75 C 255.65625 206.75 256.308594 206.816406 256.960938 206.945312 C 257.609375 207.074219 258.242188 207.265625 258.851562 207.519531 C 259.464844 207.773438 260.046875 208.082031 260.597656 208.449219 C 261.148438 208.816406 261.65625 209.234375 262.125 209.703125 C 262.59375 210.171875 263.011719 210.679688 263.382812 211.230469 C 263.75 211.78125 264.058594 212.363281 264.3125 212.972656 C 264.566406 213.585938 264.757812 214.214844 264.886719 214.863281 C 265.015625 215.511719 265.082031 216.167969 265.082031 216.828125 Z M 265.082031 216.828125 " fill-opacity="0.43" fill-rule="nonzero"/><path fill="#5c5c5c" d="M 259.539062 216.828125 C 259.539062 217.128906 259.507812 217.421875 259.449219 217.714844 C 259.390625 218.007812 259.304688 218.292969 259.191406 218.566406 C 259.078125 218.84375 258.9375 219.105469 258.769531 219.351562 C 258.605469 219.601562 258.417969 219.828125 258.207031 220.039062 C 257.996094 220.25 257.765625 220.441406 257.515625 220.605469 C 257.269531 220.769531 257.007812 220.910156 256.730469 221.023438 C 256.457031 221.140625 256.171875 221.226562 255.878906 221.285156 C 255.585938 221.339844 255.289062 221.371094 254.992188 221.371094 C 254.695312 221.371094 254.398438 221.339844 254.105469 221.285156 C 253.8125 221.226562 253.527344 221.140625 253.253906 221.023438 C 252.976562 220.910156 252.714844 220.769531 252.464844 220.605469 C 252.21875 220.441406 251.988281 220.25 251.777344 220.039062 C 251.566406 219.828125 251.378906 219.601562 251.210938 219.351562 C 251.046875 219.105469 250.90625 218.84375 250.792969 218.566406 C 250.679688 218.292969 250.59375 218.007812 250.535156 217.714844 C 250.476562 217.421875 250.445312 217.128906 250.445312 216.828125 C 250.445312 216.53125 250.476562 216.238281 250.535156 215.945312 C 250.59375 215.652344 250.679688 215.367188 250.792969 215.09375 C 250.90625 214.816406 251.046875 214.554688 251.210938 214.308594 C 251.378906 214.058594 251.566406 213.832031 251.777344 213.621094 C 251.988281 213.410156 252.21875 213.21875 252.464844 213.054688 C 252.714844 212.890625 252.976562 212.75 253.253906 212.636719 C 253.527344 212.519531 253.8125 212.433594 254.105469 212.375 C 254.398438 212.320312 254.695312 212.289062 254.992188 212.289062 C 255.289062 212.289062 255.585938 212.320312 255.878906 212.375 C 256.171875 212.433594 256.457031 212.519531 256.730469 212.636719 C 257.007812 212.75 257.269531 212.890625 257.515625 213.054688 C 257.765625 213.21875 257.996094 213.410156 258.207031 213.621094 C 258.417969 213.832031 258.605469 214.058594 258.769531 214.308594 C 258.9375 214.554688 259.078125 214.816406 259.191406 215.09375 C 259.304688 215.367188 259.390625 215.652344 259.449219 215.945312 C 259.507812 216.238281 259.539062 216.53125 259.539062 216.828125 Z M 259.539062 216.828125 " fill-opacity="1" fill-rule="nonzero"/><path fill="#5c5c5c" d="M 254.992188 207.449219 C 253.792969 207.449219 252.792969 208.449219 252.792969 209.644531 C 252.792969 210.84375 253.792969 211.839844 254.992188 211.839844 C 256.191406 211.839844 257.191406 210.84375 257.191406 209.644531 C 257.191406 208.398438 256.191406 207.449219 254.992188 207.449219 Z M 254.992188 221.917969 C 253.792969 221.917969 252.792969 222.917969 252.792969 224.113281 C 252.792969 225.3125 253.792969 226.308594 254.992188 226.308594 C 256.191406 226.308594 257.191406 225.3125 257.191406 224.113281 C 257.191406 222.867188 256.191406 221.917969 254.992188 221.917969 Z M 254.992188 221.917969 " fill-opacity="1" fill-rule="nonzero"/><path fill="#5c5c5c" d="M 261.683594 210.195312 C 260.835938 209.347656 259.4375 209.347656 258.589844 210.195312 C 257.738281 211.042969 257.738281 212.4375 258.589844 213.289062 C 259.4375 214.136719 260.835938 214.136719 261.683594 213.289062 C 262.484375 212.4375 262.484375 211.09375 261.683594 210.195312 Z M 251.445312 220.421875 C 250.597656 219.574219 249.199219 219.574219 248.347656 220.421875 C 247.5 221.269531 247.5 222.667969 248.347656 223.515625 C 249.199219 224.363281 250.597656 224.363281 251.445312 223.515625 C 252.292969 222.667969 252.292969 221.269531 251.445312 220.421875 Z M 251.445312 220.421875 " fill-opacity="1" fill-rule="nonzero"/><path fill="#5c5c5c" d="M 264.433594 216.878906 C 264.433594 215.683594 263.433594 214.683594 262.234375 214.683594 C 261.035156 214.683594 260.035156 215.683594 260.035156 216.878906 C 260.035156 218.078125 261.035156 219.074219 262.234375 219.074219 C 263.433594 219.074219 264.433594 218.078125 264.433594 216.878906 Z M 249.945312 216.878906 C 249.945312 215.683594 248.949219 214.683594 247.75 214.683594 C 246.550781 214.683594 245.550781 215.683594 245.550781 216.878906 C 245.550781 218.078125 246.550781 219.074219 247.75 219.074219 C 248.949219 219.074219 249.945312 218.078125 249.945312 216.878906 Z M 249.945312 216.878906 " fill-opacity="1" fill-rule="nonzero"/><path fill="#5c5c5c" d="M 261.683594 223.515625 C 262.535156 222.667969 262.535156 221.269531 261.683594 220.421875 C 260.835938 219.574219 259.4375 219.574219 258.589844 220.421875 C 257.738281 221.269531 257.738281 222.667969 258.589844 223.515625 C 259.386719 224.414062 260.785156 224.414062 261.683594 223.515625 Z M 251.445312 213.289062 C 252.34375 212.4375 252.394531 211.09375 251.546875 210.195312 C 251.546875 210.195312 251.496094 210.144531 251.445312 210.144531 C 250.597656 209.296875 249.199219 209.296875 248.347656 210.144531 C 247.5 210.992188 247.5 212.390625 248.347656 213.238281 C 249.148438 214.1875 250.546875 214.1875 251.445312 213.289062 Z M 251.445312 213.289062 " fill-opacity="1" fill-rule="nonzero"/><path fill="#b0d627" d="M 288.707031 186.394531 L 294.453125 174.917969 C 294.453125 174.917969 290.707031 165.636719 271.125 162.746094 C 251.546875 159.851562 233.5625 167.335938 221.574219 176.566406 C 209.585938 185.796875 204.59375 199.667969 204.59375 199.667969 L 149.046875 201.5625 L 146.351562 206.75 L 151.09375 209.746094 L 209.886719 210.394531 C 209.886719 210.394531 211.234375 191.035156 230.617188 179.507812 C 249.996094 167.984375 271.625 171.226562 288.707031 186.394531 Z M 288.707031 186.394531 " fill-opacity="1" fill-rule="nonzero"/><path fill="#b0d627" d="M 154.242188 140.140625 L 163.632812 158.453125 C 165.429688 161.894531 165.382812 166.039062 163.582031 169.480469 L 159.636719 176.964844 C 158.039062 180.007812 154.144531 183.449219 150.894531 184.546875 C 136.761719 189.339844 99.695312 200.765625 69.078125 199.765625 C 66.332031 181.703125 71.226562 167.335938 71.226562 167.335938 L 80.417969 163.59375 C 80.417969 163.59375 82.863281 152.765625 87.460938 148.675781 C 106.441406 141.191406 133.3125 137 145.25 135.402344 C 148.648438 134.953125 152.695312 137.097656 154.242188 140.140625 Z M 154.242188 140.140625 " fill-opacity="1" fill-rule="nonzero"/><path fill="#5c5c5c" d="M 180.402344 231.089844 C 196.488281 231.089844 209.425781 233.785156 209.425781 237.078125 L 209.425781 250.300781 L 151.382812 250.300781 L 151.382812 237.078125 C 151.382812 233.785156 164.320312 231.089844 180.402344 231.089844 Z M 180.402344 231.089844 " fill-opacity="1" fill-rule="nonzero"/><path fill="#5c5c5c" d="M 148.835938 246.257812 L 212.023438 246.257812 C 213.171875 246.257812 214.121094 247.207031 214.121094 248.351562 L 214.121094 249.800781 C 214.121094 250.949219 213.171875 251.894531 212.023438 251.894531 L 148.835938 251.894531 C 147.6875 251.894531 146.738281 250.949219 146.738281 249.800781 L 146.738281 248.351562 C 146.738281 247.207031 147.6875 246.257812 148.835938 246.257812 Z M 148.835938 246.257812 " fill-opacity="1" fill-rule="nonzero"/><g mask="url(#891b673397)"><g transform="matrix(1, 0, 0, 1, 146, 245)"><g clip-path="url(#a345af15dd)"><g clip-path="url(#6fbbf9869d)"><path fill="#3f3f3f" d="M 2.835938 1.257812 L 66.023438 1.257812 C 67.171875 1.257812 68.121094 2.207031 68.121094 3.351562 L 68.121094 4.800781 C 68.121094 5.949219 67.171875 6.894531 66.023438 6.894531 L 2.835938 6.894531 C 1.6875 6.894531 0.738281 5.949219 0.738281 4.800781 L 0.738281 3.351562 C 0.738281 2.207031 1.6875 1.257812 2.835938 1.257812 Z M 2.835938 1.257812 " fill-opacity="1" fill-rule="nonzero"/></g></g></g></g><path fill="#ffffff" d="M 283.914062 115.34375 C 279.617188 114.445312 274.472656 113.148438 271.324219 117.890625 C 268.179688 122.628906 262.433594 142.488281 265.082031 145.332031 C 267.730469 148.226562 284.910156 119.683594 283.914062 115.34375 Z M 283.914062 115.34375 " fill-opacity="0.2" fill-rule="nonzero"/><path fill="#ffffff" d="M 253.242188 151.917969 C 253.242188 151.917969 235.363281 150.269531 229.269531 155.710938 C 223.171875 161.097656 226.871094 162.992188 232.863281 161.746094 C 238.957031 160.449219 255.042969 155.558594 253.242188 151.917969 Z M 253.242188 151.917969 " fill-opacity="0.2" fill-rule="nonzero"/><path fill="#ffffff" d="M 155.542969 135.550781 C 155.542969 135.550781 159.335938 130.113281 161.984375 130.863281 C 164.632812 131.609375 170.976562 136.398438 170.976562 136.398438 C 170.976562 136.398438 167.28125 135.054688 165.730469 137.546875 C 164.183594 140.09375 164.933594 143.984375 164.933594 143.984375 C 164.933594 143.984375 160.636719 134.554688 155.542969 135.550781 Z M 155.542969 135.550781 " fill-opacity="0.2" fill-rule="nonzero"/><path fill="#ffffff" d="M 157.191406 235.640625 C 158.136719 235.191406 166.53125 233.496094 172.425781 233.296875 C 167.328125 237.535156 168.230469 242.527344 172.273438 244.320312 C 167.429688 244.320312 156.941406 244.570312 156.941406 244.570312 C 156.941406 244.570312 161.535156 238.984375 157.191406 235.640625 Z M 157.191406 235.640625 " fill-opacity="0.21" fill-rule="nonzero"/><path fill="#5c5c5c" d="M 167.078125 168.78125 C 167.078125 168.78125 156.242188 195.375 157.738281 197.421875 C 159.238281 199.515625 168.429688 200.363281 169.578125 198.417969 C 170.777344 196.472656 171.425781 170.429688 171.125 168.832031 C 170.824219 167.234375 169.027344 165.488281 167.078125 168.78125 Z M 167.078125 168.78125 " fill-opacity="1" fill-rule="nonzero"/><path fill="#5c5c5c" d="M 136.558594 191.984375 C 137.660156 191.882812 154.59375 184.949219 156.242188 185.546875 C 157.839844 186.144531 152.394531 198.71875 152.394531 198.71875 C 152.394531 198.71875 139.957031 201.460938 139.308594 200.117188 C 138.65625 198.769531 136.558594 191.984375 136.558594 191.984375 Z M 136.558594 191.984375 " fill-opacity="1" fill-rule="nonzero"/><path fill="#5c5c5c" d="M 124.671875 195.625 C 124.671875 195.625 132.214844 192.582031 134.0625 194.378906 C 135.910156 196.171875 141.855469 208.996094 141.503906 210.34375 C 141.15625 211.691406 139.808594 211.789062 139.308594 209.746094 C 138.757812 207.648438 134.011719 201.460938 130.667969 199.265625 C 127.320312 197.023438 124.671875 195.625 124.671875 195.625 Z M 124.671875 195.625 " fill-opacity="1" fill-rule="nonzero"/><path fill="#5c5c5c" d="M 79.917969 201.511719 C 79.917969 201.511719 80.617188 209.496094 82.214844 209.445312 C 83.8125 209.394531 88.957031 202.660156 89.90625 201.113281 C 90.855469 199.667969 79.917969 201.511719 79.917969 201.511719 Z M 79.917969 201.511719 " fill-opacity="1" fill-rule="nonzero"/><path fill="#5c5c5c" d="M 137.710938 163.441406 L 142.953125 163.441406 C 144.402344 163.441406 145.601562 164.640625 145.601562 166.085938 L 145.601562 179.410156 C 145.601562 180.855469 144.402344 182.054688 142.953125 182.054688 L 137.710938 182.054688 C 136.261719 182.054688 135.0625 180.855469 135.0625 179.410156 L 135.0625 166.085938 C 135.0625 164.640625 136.210938 163.441406 137.710938 163.441406 Z M 137.710938 163.441406 " fill-opacity="1" fill-rule="nonzero"/><path fill="#b0d627" d="M 138.058594 165.140625 L 142.605469 165.140625 C 143.253906 165.140625 143.753906 165.636719 143.753906 166.1875 C 143.753906 166.785156 143.253906 167.234375 142.605469 167.234375 L 138.058594 167.234375 C 137.410156 167.234375 136.910156 166.734375 136.910156 166.1875 C 136.910156 165.636719 137.410156 165.140625 138.058594 165.140625 Z M 138.058594 165.140625 " fill-opacity="1" fill-rule="nonzero"/><path fill="#b0d627" d="M 138.058594 168.433594 L 142.605469 168.433594 C 143.253906 168.433594 143.753906 168.929688 143.753906 169.480469 C 143.753906 170.078125 143.253906 170.527344 142.605469 170.527344 L 138.058594 170.527344 C 137.410156 170.527344 136.910156 170.027344 136.910156 169.480469 C 136.910156 168.929688 137.410156 168.433594 138.058594 168.433594 Z M 138.058594 168.433594 " fill-opacity="1" fill-rule="nonzero"/><path fill="#b0d627" d="M 138.058594 171.726562 L 142.605469 171.726562 C 143.253906 171.726562 143.753906 172.222656 143.753906 172.773438 C 143.753906 173.371094 143.253906 173.820312 142.605469 173.820312 L 138.058594 173.820312 C 137.410156 173.820312 136.910156 173.320312 136.910156 172.773438 C 136.910156 172.222656 137.410156 171.726562 138.058594 171.726562 Z M 138.058594 171.726562 " fill-opacity="1" fill-rule="nonzero"/><path fill="#b0d627" d="M 138.058594 175.019531 L 142.605469 175.019531 C 143.253906 175.019531 143.753906 175.515625 143.753906 176.066406 C 143.753906 176.664062 143.253906 177.113281 142.605469 177.113281 L 138.058594 177.113281 C 137.410156 177.113281 136.910156 176.613281 136.910156 176.066406 C 136.910156 175.515625 137.410156 175.019531 138.058594 175.019531 Z M 138.058594 175.019531 " fill-opacity="1" fill-rule="nonzero"/><path fill="#b0d627" d="M 138.058594 178.3125 L 142.605469 178.3125 C 143.253906 178.3125 143.753906 178.808594 143.753906 179.359375 C 143.753906 179.957031 143.253906 180.40625 142.605469 180.40625 L 138.058594 180.40625 C 137.410156 180.40625 136.910156 179.90625 136.910156 179.359375 C 136.910156 178.808594 137.410156 178.3125 138.058594 178.3125 Z M 138.058594 178.3125 " fill-opacity="1" fill-rule="nonzero"/><path fill="#d83535" d="M 72.425781 196.472656 C 72.425781 196.472656 71.925781 182.601562 74.222656 177.664062 C 86.558594 175.316406 95 175.316406 95 175.316406 C 95 175.316406 90.40625 191.933594 86.011719 194.578125 C 81.566406 197.222656 72.425781 196.472656 72.425781 196.472656 Z M 72.425781 196.472656 " fill-opacity="1" fill-rule="nonzero"/><path fill="#ffffff" d="M 76.320312 178.460938 L 75.519531 185.945312 L 83.164062 185.296875 C 83.164062 185.296875 81.964844 179.507812 83.914062 177.664062 C 79.867188 178.160156 76.320312 178.460938 76.320312 178.460938 Z M 76.320312 178.460938 " fill-opacity="0.12" fill-rule="nonzero"/><path fill="#5c5c5c" d="M 91.003906 186.792969 L 72.472656 188.691406 C 72.324219 192.878906 72.425781 196.472656 72.425781 196.472656 C 72.425781 196.472656 81.566406 197.222656 85.960938 194.578125 C 87.707031 193.527344 89.507812 190.335938 91.003906 186.792969 Z M 91.003906 186.792969 " fill-opacity="1" fill-rule="nonzero"/><path fill="#ffffff" d="M 100.796875 145.382812 C 100.796875 145.382812 128.816406 137.796875 137.609375 137.25 C 128.617188 142.136719 127.769531 148.523438 133.8125 151.117188 C 121.324219 154.3125 97.949219 158.355469 97.949219 158.355469 C 97.949219 158.355469 106.589844 153.113281 107.738281 150.269531 C 108.835938 147.425781 100.796875 145.382812 100.796875 145.382812 Z M 100.796875 145.382812 " fill-opacity="0.5" fill-rule="nonzero"/><path fill="#ffffff" d="M 77.320312 165.636719 C 77.320312 165.636719 113.734375 155.109375 154.390625 149.773438 C 158.988281 150.019531 162.832031 154.910156 163.234375 158.753906 C 158.738281 153.066406 156.039062 152.167969 153.042969 151.867188 C 149.996094 151.617188 85.160156 163.992188 77.320312 165.636719 Z M 77.320312 165.636719 " fill-opacity="0.5" fill-rule="nonzero"/><path fill="#ffffff" d="M 106.691406 171.425781 C 106.691406 171.425781 121.976562 167.832031 123.472656 168.683594 C 124.972656 169.53125 124.671875 181.953125 123.324219 183.601562 C 121.976562 185.195312 108.238281 186.941406 108.238281 186.941406 C 108.238281 186.941406 119.628906 184.449219 121.277344 182.953125 C 122.921875 181.453125 123.421875 172.425781 122.222656 171.125 C 120.976562 169.828125 106.691406 171.425781 106.691406 171.425781 Z M 106.691406 171.425781 " fill-opacity="0.5" fill-rule="nonzero"/><path fill="#ffffff" d="M 240.605469 167.234375 C 240.605469 167.234375 253.941406 162.542969 265.082031 163.640625 C 259.085938 166.1875 260.085938 167.234375 263.382812 171.125 C 253.195312 167.785156 240.105469 171.976562 236.410156 174.269531 C 241.953125 169.578125 240.605469 167.234375 240.605469 167.234375 Z M 240.605469 167.234375 " fill-opacity="0.5" fill-rule="nonzero"/></svg>