<svg xmlns="http://www.w3.org/2000/svg" xmlns:xlink="http://www.w3.org/1999/xlink" width="500" zoomAndPan="magnify" viewBox="0 0 375 374.999991" height="500" preserveAspectRatio="xMidYMid meet" version="1.0"><defs><clipPath id="51d3154f26"><path d="M 14.214844 14.214844 L 360.785156 14.214844 L 360.785156 360.785156 L 14.214844 360.785156 Z M 14.214844 14.214844 " clip-rule="nonzero"/></clipPath><clipPath id="b1f4e9bf90"><path d="M 187.5 14.214844 C 91.796875 14.214844 14.214844 91.796875 14.214844 187.5 C 14.214844 283.203125 91.796875 360.785156 187.5 360.785156 C 283.203125 360.785156 360.785156 283.203125 360.785156 187.5 C 360.785156 91.796875 283.203125 14.214844 187.5 14.214844 Z M 187.5 14.214844 " clip-rule="nonzero"/></clipPath><clipPath id="d7a0a5e8ad"><path d="M 246 92.390625 L 253 92.390625 L 253 100 L 246 100 Z M 246 92.390625 " clip-rule="nonzero"/></clipPath><clipPath id="352bff4b4e"><path d="M 248 92.390625 L 251 92.390625 L 251 94 L 248 94 Z M 248 92.390625 " clip-rule="nonzero"/></clipPath><clipPath id="08c8d44b85"><path d="M 248 92.390625 L 252 92.390625 L 252 96 L 248 96 Z M 248 92.390625 " clip-rule="nonzero"/></clipPath><clipPath id="ff9eea3e04"><path d="M 69.167969 242 L 209 242 L 209 274 L 69.167969 274 Z M 69.167969 242 " clip-rule="nonzero"/></clipPath><clipPath id="c2a1e43f13"><path d="M 69.167969 241 L 210 241 L 210 275 L 69.167969 275 Z M 69.167969 241 " clip-rule="nonzero"/></clipPath><clipPath id="aebb747c0c"><path d="M 211.523438 231 L 217 231 L 217 235.941406 L 211.523438 235.941406 Z M 211.523438 231 " clip-rule="nonzero"/></clipPath><clipPath id="c29fe4b4c1"><path d="M 214.371094 235.789062 C 213.050781 235.789062 211.980469 234.714844 211.980469 233.394531 C 211.980469 232.074219 213.050781 231 214.371094 231 C 215.695312 231 216.765625 232.074219 216.765625 233.394531 C 216.765625 234.714844 215.695312 235.789062 214.371094 235.789062 " clip-rule="nonzero"/></clipPath><clipPath id="f3a7526763"><path d="M 247 264 L 277 264 L 277 282.890625 L 247 282.890625 Z M 247 264 " clip-rule="nonzero"/></clipPath><clipPath id="d4e0e855b5"><path d="M 276 264 L 306.167969 264 L 306.167969 282.890625 L 276 282.890625 Z M 276 264 " clip-rule="nonzero"/></clipPath><clipPath id="e99616ac42"><path d="M 188 264 L 218 264 L 218 282.890625 L 188 282.890625 Z M 188 264 " clip-rule="nonzero"/></clipPath><clipPath id="74b61a0f03"><path d="M 217 264 L 248 264 L 248 282.890625 L 217 282.890625 Z M 217 264 " clip-rule="nonzero"/></clipPath></defs><g clip-path="url(#51d3154f26)"><g clip-path="url(#b1f4e9bf90)"><path fill="#f2f4f3" d="M 14.214844 14.214844 L 360.785156 14.214844 L 360.785156 360.785156 L 14.214844 360.785156 Z M 14.214844 14.214844 " fill-opacity="1" fill-rule="nonzero"/></g></g><path fill="#968b8d" d="M 238.609375 206.074219 C 236.84375 205.464844 234.6875 204.007812 233.792969 202.292969 C 233.476562 201.6875 233.386719 201.082031 233.382812 200.472656 C 233.6875 200.046875 234.011719 199.625 234.371094 199.207031 C 235.78125 197.5625 236.308594 196.210938 236.847656 194.117188 C 237.710938 190.757812 240.828125 189.8125 243.152344 187.546875 C 244.046875 186.671875 244.691406 185.925781 245.21875 184.796875 C 245.628906 183.914062 245.816406 182.675781 246.613281 182.148438 C 247.242188 181.730469 248.121094 181.757812 248.964844 181.78125 C 249.476562 181.796875 249.972656 181.816406 250.398438 181.734375 C 251.667969 181.488281 252.894531 180.882812 254.101562 180.425781 C 256.808594 179.402344 259.015625 179.433594 261.9375 179.90625 C 264.5625 180.332031 267.25 180.972656 269.890625 180.285156 C 271.03125 179.992188 272.214844 179.074219 273.390625 178.941406 C 274.628906 178.800781 275.722656 179.390625 276.796875 180.03125 C 278.484375 181.039062 281.933594 183.570312 280.792969 185.054688 C 271.808594 196.707031 256.484375 202.851562 245.167969 205.964844 C 242.984375 206.472656 240.667969 206.78125 238.609375 206.074219 " fill-opacity="1" fill-rule="nonzero"/><path fill="#f8f0e6" d="M 241.300781 206.492188 C 240.375 206.492188 239.472656 206.371094 238.609375 206.074219 C 236.84375 205.464844 234.6875 204.007812 233.792969 202.292969 C 233.710938 202.140625 233.644531 201.984375 233.59375 201.832031 C 233.644531 201.984375 233.710938 202.140625 233.792969 202.292969 C 234.6875 204.007812 236.84375 205.464844 238.609375 206.074219 C 239.472656 206.371094 240.375 206.492188 241.300781 206.492188 C 242.585938 206.492188 243.898438 206.261719 245.167969 205.964844 C 256.371094 202.886719 271.5 196.832031 280.511719 185.410156 C 271.5 196.832031 256.371094 202.886719 245.167969 205.964844 C 243.898438 206.261719 242.585938 206.492188 241.300781 206.492188 M 253.648438 180.605469 C 253.800781 180.542969 253.949219 180.484375 254.101562 180.425781 C 253.949219 180.484375 253.800781 180.542969 253.648438 180.605469 " fill-opacity="1" fill-rule="nonzero"/><path fill="#928382" d="M 241.300781 206.492188 C 240.375 206.492188 239.472656 206.371094 238.609375 206.074219 C 236.84375 205.464844 234.6875 204.007812 233.792969 202.292969 C 233.710938 202.140625 233.644531 201.984375 233.59375 201.832031 C 233.511719 201.59375 233.457031 201.355469 233.425781 201.113281 C 233.511719 201.046875 233.597656 200.976562 233.679688 200.90625 C 233.679688 200.949219 233.683594 200.996094 233.699219 201.046875 C 233.75 201.171875 233.875 201.25 234.003906 201.25 C 234.042969 201.25 234.078125 201.242188 234.113281 201.230469 C 234.28125 201.167969 234.359375 200.984375 234.304688 200.816406 C 234.253906 200.691406 234.128906 200.613281 234.003906 200.613281 C 233.996094 200.613281 233.992188 200.613281 233.988281 200.613281 C 234.945312 199.632812 235.808594 198.277344 237.054688 198.277344 C 237.113281 198.277344 237.171875 198.28125 237.230469 198.285156 C 238.316406 198.398438 239.304688 198.449219 240.21875 198.449219 C 245.207031 198.449219 248.019531 196.910156 251.726562 195.125 C 252.128906 194.933594 252.515625 194.710938 252.894531 194.464844 C 252.898438 194.515625 252.90625 194.566406 252.925781 194.613281 C 253.003906 194.816406 253.199219 194.941406 253.402344 194.941406 C 253.460938 194.941406 253.523438 194.929688 253.582031 194.90625 C 253.84375 194.808594 253.972656 194.515625 253.878906 194.253906 C 253.824219 194.121094 253.726562 194.023438 253.605469 193.96875 C 256.972656 191.464844 259.640625 187.304688 263.523438 186.078125 C 264.816406 185.675781 267.894531 185.128906 268.613281 184.558594 C 269.292969 184.019531 268.167969 183.492188 267.355469 183.492188 C 267.214844 183.492188 267.089844 183.507812 266.980469 183.539062 C 266.25 183.753906 265.632812 183.847656 265.101562 183.847656 C 263.8125 183.847656 263.035156 183.316406 262.394531 182.789062 C 261.9375 182.414062 261.550781 182.035156 261.101562 181.851562 C 261.128906 181.855469 261.160156 181.859375 261.1875 181.859375 C 261.246094 181.859375 261.304688 181.847656 261.363281 181.824219 C 261.628906 181.726562 261.761719 181.433594 261.664062 181.171875 C 261.585938 180.96875 261.390625 180.84375 261.1875 180.84375 C 261.125 180.84375 261.066406 180.855469 261.007812 180.878906 C 260.746094 180.976562 260.613281 181.269531 260.714844 181.53125 C 260.757812 181.648438 260.839844 181.738281 260.941406 181.792969 C 260.808594 181.753906 260.667969 181.734375 260.523438 181.734375 C 260.515625 181.734375 260.507812 181.734375 260.496094 181.734375 C 260.445312 181.734375 260.390625 181.734375 260.339844 181.734375 C 258.210938 181.734375 256.128906 181.0625 254.003906 180.949219 C 253.640625 180.933594 253.285156 180.914062 252.925781 180.902344 C 253.167969 180.800781 253.410156 180.703125 253.648438 180.605469 C 253.800781 180.542969 253.949219 180.484375 254.101562 180.425781 C 255.683594 179.828125 257.097656 179.589844 258.582031 179.589844 C 259.636719 179.589844 260.726562 179.707031 261.9375 179.90625 C 263.730469 180.195312 265.558594 180.585938 267.375 180.585938 C 268.214844 180.585938 269.054688 180.503906 269.890625 180.285156 C 270.847656 180.039062 271.84375 179.347656 272.832031 179.058594 L 276.597656 187.808594 L 280 185.726562 L 280.511719 185.410156 C 271.5 196.832031 256.371094 202.886719 245.167969 205.964844 C 243.898438 206.261719 242.585938 206.492188 241.300781 206.492188 M 242.996094 198.878906 C 242.9375 198.878906 242.878906 198.890625 242.820312 198.910156 C 242.558594 199.007812 242.425781 199.300781 242.523438 199.566406 C 242.601562 199.765625 242.789062 199.890625 242.992188 199.890625 C 243.054688 199.890625 243.117188 199.878906 243.179688 199.855469 C 243.433594 199.757812 243.570312 199.464844 243.46875 199.203125 C 243.394531 199.003906 243.199219 198.878906 242.996094 198.878906 M 247.859375 197.425781 C 247.820312 197.425781 247.78125 197.433594 247.746094 197.445312 C 247.578125 197.507812 247.5 197.695312 247.558594 197.859375 C 247.605469 197.984375 247.730469 198.066406 247.859375 198.066406 C 247.898438 198.066406 247.933594 198.058594 247.972656 198.042969 C 248.136719 197.980469 248.222656 197.792969 248.15625 197.632812 C 248.109375 197.503906 247.988281 197.425781 247.859375 197.425781 M 259.839844 189.488281 C 259.800781 189.488281 259.765625 189.492188 259.726562 189.503906 C 259.5625 189.570312 259.480469 189.75 259.542969 189.917969 C 259.589844 190.046875 259.710938 190.128906 259.84375 190.128906 C 259.878906 190.128906 259.917969 190.121094 259.957031 190.105469 C 260.117188 190.042969 260.203125 189.859375 260.136719 189.695312 C 260.089844 189.566406 259.96875 189.488281 259.839844 189.488281 M 264.136719 186.75 C 264.101562 186.75 264.0625 186.757812 264.027344 186.773438 C 263.863281 186.835938 263.78125 187.019531 263.839844 187.179688 C 263.890625 187.3125 264.011719 187.390625 264.140625 187.390625 C 264.175781 187.390625 264.214844 187.382812 264.25 187.371094 C 264.417969 187.304688 264.5 187.121094 264.4375 186.957031 C 264.390625 186.832031 264.269531 186.75 264.136719 186.75 M 269.617188 184.679688 C 269.578125 184.679688 269.539062 184.683594 269.503906 184.695312 C 269.335938 184.761719 269.257812 184.945312 269.316406 185.109375 C 269.367188 185.238281 269.484375 185.316406 269.613281 185.316406 C 269.652344 185.316406 269.691406 185.308594 269.730469 185.296875 C 269.898438 185.234375 269.980469 185.050781 269.917969 184.886719 C 269.863281 184.757812 269.742188 184.679688 269.617188 184.679688 M 272.53125 183.277344 C 272.472656 183.277344 272.410156 183.289062 272.351562 183.308594 C 272.085938 183.40625 271.957031 183.699219 272.054688 183.964844 C 272.128906 184.167969 272.320312 184.289062 272.527344 184.289062 C 272.585938 184.289062 272.648438 184.28125 272.707031 184.257812 C 272.96875 184.15625 273.101562 183.867188 273 183.601562 C 272.925781 183.402344 272.734375 183.277344 272.53125 183.277344 M 267.464844 181.675781 C 267.40625 181.675781 267.34375 181.6875 267.285156 181.710938 C 267.023438 181.808594 266.894531 182.097656 266.992188 182.363281 C 267.070312 182.566406 267.261719 182.691406 267.464844 182.691406 C 267.523438 182.691406 267.585938 182.679688 267.644531 182.65625 C 267.910156 182.558594 268.035156 182.265625 267.9375 182.003906 C 267.863281 181.800781 267.671875 181.675781 267.464844 181.675781 M 271.125 181.019531 C 271.085938 181.019531 271.046875 181.027344 271.011719 181.042969 C 270.839844 181.105469 270.757812 181.289062 270.824219 181.453125 C 270.871094 181.582031 270.996094 181.660156 271.125 181.660156 C 271.164062 181.660156 271.199219 181.65625 271.234375 181.640625 C 271.402344 181.578125 271.480469 181.390625 271.417969 181.226562 C 271.375 181.101562 271.25 181.019531 271.125 181.019531 " fill-opacity="1" fill-rule="nonzero"/><path fill="#8d7a75" d="M 267.464844 182.691406 C 267.261719 182.691406 267.070312 182.566406 266.992188 182.363281 C 266.894531 182.097656 267.023438 181.808594 267.285156 181.710938 C 267.34375 181.6875 267.40625 181.675781 267.464844 181.675781 C 267.671875 181.675781 267.863281 181.800781 267.9375 182.003906 C 268.035156 182.265625 267.910156 182.558594 267.644531 182.65625 C 267.585938 182.679688 267.523438 182.691406 267.464844 182.691406 " fill-opacity="1" fill-rule="nonzero"/><path fill="#91817f" d="M 256.773438 183.285156 C 256.570312 183.285156 256.378906 183.160156 256.300781 182.960938 C 256.203125 182.699219 256.332031 182.40625 256.59375 182.304688 C 256.652344 182.285156 256.714844 182.273438 256.773438 182.273438 C 256.976562 182.273438 257.171875 182.398438 257.246094 182.601562 C 257.347656 182.863281 257.214844 183.15625 256.953125 183.253906 C 256.894531 183.273438 256.832031 183.285156 256.773438 183.285156 " fill-opacity="1" fill-rule="nonzero"/><path fill="#8d7a75" d="M 271.125 181.660156 C 270.996094 181.660156 270.871094 181.582031 270.824219 181.453125 C 270.757812 181.289062 270.839844 181.105469 271.011719 181.042969 C 271.046875 181.027344 271.085938 181.019531 271.125 181.019531 C 271.25 181.019531 271.375 181.101562 271.417969 181.226562 C 271.480469 181.390625 271.402344 181.578125 271.234375 181.640625 C 271.199219 181.65625 271.164062 181.660156 271.125 181.660156 " fill-opacity="1" fill-rule="nonzero"/><path fill="#91817f" d="M 253.992188 181.878906 C 253.863281 181.878906 253.738281 181.796875 253.695312 181.671875 C 253.628906 181.507812 253.710938 181.320312 253.878906 181.257812 C 253.914062 181.246094 253.953125 181.238281 253.988281 181.238281 C 254.117188 181.238281 254.242188 181.316406 254.292969 181.445312 C 254.355469 181.609375 254.269531 181.796875 254.101562 181.859375 C 254.066406 181.871094 254.03125 181.878906 253.992188 181.878906 " fill-opacity="1" fill-rule="nonzero"/><path fill="#91817f" d="M 262.316406 184.652344 C 262.1875 184.652344 262.0625 184.574219 262.015625 184.441406 C 261.953125 184.28125 262.035156 184.09375 262.199219 184.03125 C 262.238281 184.015625 262.273438 184.011719 262.3125 184.011719 C 262.441406 184.011719 262.566406 184.089844 262.609375 184.21875 C 262.671875 184.382812 262.59375 184.566406 262.425781 184.632812 C 262.390625 184.644531 262.351562 184.652344 262.316406 184.652344 " fill-opacity="1" fill-rule="nonzero"/><path fill="#91817f" d="M 261.101562 181.851562 C 261.046875 181.84375 260.992188 181.824219 260.941406 181.792969 C 260.996094 181.808594 261.050781 181.828125 261.101562 181.851562 " fill-opacity="1" fill-rule="nonzero"/><path fill="#8d7a75" d="M 261.1875 181.859375 C 261.160156 181.859375 261.128906 181.855469 261.101562 181.851562 C 261.050781 181.828125 260.996094 181.808594 260.941406 181.792969 C 260.839844 181.738281 260.757812 181.648438 260.714844 181.53125 C 260.613281 181.269531 260.746094 180.976562 261.007812 180.878906 C 261.066406 180.855469 261.125 180.84375 261.1875 180.84375 C 261.390625 180.84375 261.585938 180.96875 261.664062 181.171875 C 261.761719 181.433594 261.628906 181.726562 261.363281 181.824219 C 261.304688 181.847656 261.246094 181.859375 261.1875 181.859375 " fill-opacity="1" fill-rule="nonzero"/><path fill="#8d7a75" d="M 272.527344 184.289062 C 272.320312 184.289062 272.128906 184.167969 272.054688 183.964844 C 271.957031 183.699219 272.085938 183.40625 272.351562 183.308594 C 272.410156 183.289062 272.472656 183.277344 272.53125 183.277344 C 272.734375 183.277344 272.925781 183.402344 273 183.601562 C 273.101562 183.867188 272.96875 184.15625 272.707031 184.257812 C 272.648438 184.28125 272.585938 184.289062 272.527344 184.289062 " fill-opacity="1" fill-rule="nonzero"/><path fill="#8d7a75" d="M 264.140625 187.390625 C 264.011719 187.390625 263.890625 187.3125 263.839844 187.179688 C 263.78125 187.019531 263.863281 186.835938 264.027344 186.773438 C 264.0625 186.757812 264.101562 186.75 264.136719 186.75 C 264.269531 186.75 264.390625 186.832031 264.4375 186.957031 C 264.5 187.121094 264.417969 187.304688 264.25 187.371094 C 264.214844 187.382812 264.175781 187.390625 264.140625 187.390625 " fill-opacity="1" fill-rule="nonzero"/><path fill="#8d7a75" d="M 269.613281 185.316406 C 269.484375 185.316406 269.367188 185.238281 269.316406 185.109375 C 269.257812 184.945312 269.335938 184.761719 269.503906 184.695312 C 269.539062 184.683594 269.578125 184.679688 269.617188 184.679688 C 269.742188 184.679688 269.863281 184.757812 269.917969 184.886719 C 269.980469 185.050781 269.898438 185.234375 269.730469 185.296875 C 269.691406 185.308594 269.652344 185.316406 269.613281 185.316406 " fill-opacity="1" fill-rule="nonzero"/><path fill="#91817f" d="M 250.832031 190.464844 C 250.699219 190.464844 250.574219 190.386719 250.523438 190.253906 C 250.460938 190.089844 250.546875 189.910156 250.710938 189.84375 C 250.75 189.832031 250.785156 189.824219 250.820312 189.824219 C 250.953125 189.824219 251.074219 189.902344 251.121094 190.03125 C 251.183594 190.195312 251.101562 190.382812 250.9375 190.445312 C 250.902344 190.457031 250.867188 190.464844 250.832031 190.464844 " fill-opacity="1" fill-rule="nonzero"/><path fill="#8d7a75" d="M 247.859375 198.066406 C 247.730469 198.066406 247.605469 197.984375 247.558594 197.859375 C 247.5 197.695312 247.578125 197.507812 247.746094 197.445312 C 247.78125 197.433594 247.820312 197.425781 247.859375 197.425781 C 247.988281 197.425781 248.109375 197.503906 248.15625 197.632812 C 248.222656 197.792969 248.136719 197.980469 247.972656 198.042969 C 247.933594 198.058594 247.898438 198.066406 247.859375 198.066406 " fill-opacity="1" fill-rule="nonzero"/><path fill="#91817f" d="M 252.925781 187.570312 C 252.800781 187.570312 252.679688 187.488281 252.628906 187.363281 C 252.566406 187.199219 252.652344 187.011719 252.816406 186.949219 C 252.855469 186.9375 252.890625 186.929688 252.929688 186.929688 C 253.058594 186.929688 253.179688 187.007812 253.226562 187.136719 C 253.289062 187.300781 253.207031 187.488281 253.039062 187.550781 C 253.003906 187.5625 252.964844 187.570312 252.925781 187.570312 " fill-opacity="1" fill-rule="nonzero"/><path fill="#91817f" d="M 241.996094 196.179688 C 241.792969 196.179688 241.601562 196.054688 241.527344 195.851562 C 241.425781 195.59375 241.558594 195.300781 241.816406 195.203125 C 241.878906 195.179688 241.9375 195.167969 241.996094 195.167969 C 242.203125 195.167969 242.394531 195.292969 242.472656 195.496094 C 242.566406 195.757812 242.4375 196.050781 242.179688 196.144531 C 242.117188 196.167969 242.058594 196.179688 241.996094 196.179688 " fill-opacity="1" fill-rule="nonzero"/><path fill="#91817f" d="M 243.816406 192.03125 C 243.691406 192.03125 243.570312 191.953125 243.523438 191.824219 C 243.457031 191.660156 243.542969 191.476562 243.707031 191.410156 C 243.742188 191.398438 243.78125 191.390625 243.816406 191.390625 C 243.945312 191.390625 244.070312 191.46875 244.121094 191.597656 C 244.183594 191.765625 244.097656 191.949219 243.933594 192.007812 C 243.894531 192.023438 243.859375 192.03125 243.816406 192.03125 " fill-opacity="1" fill-rule="nonzero"/><path fill="#91817f" d="M 233.679688 200.90625 C 233.691406 200.785156 233.765625 200.675781 233.886719 200.632812 C 233.917969 200.621094 233.953125 200.613281 233.988281 200.613281 C 233.882812 200.714844 233.785156 200.8125 233.679688 200.90625 " fill-opacity="1" fill-rule="nonzero"/><path fill="#8d7a75" d="M 234.003906 201.25 C 233.875 201.25 233.75 201.171875 233.699219 201.046875 C 233.683594 200.996094 233.679688 200.949219 233.679688 200.90625 C 233.785156 200.8125 233.882812 200.714844 233.988281 200.613281 C 233.992188 200.613281 233.996094 200.613281 234.003906 200.613281 C 234.128906 200.613281 234.253906 200.691406 234.304688 200.816406 C 234.359375 200.984375 234.28125 201.167969 234.113281 201.230469 C 234.078125 201.242188 234.042969 201.25 234.003906 201.25 " fill-opacity="1" fill-rule="nonzero"/><path fill="#8d7a75" d="M 259.84375 190.128906 C 259.710938 190.128906 259.589844 190.046875 259.542969 189.917969 C 259.480469 189.75 259.5625 189.570312 259.726562 189.503906 C 259.765625 189.492188 259.800781 189.488281 259.839844 189.488281 C 259.96875 189.488281 260.089844 189.566406 260.136719 189.695312 C 260.203125 189.859375 260.117188 190.042969 259.957031 190.105469 C 259.917969 190.121094 259.878906 190.128906 259.84375 190.128906 " fill-opacity="1" fill-rule="nonzero"/><path fill="#91817f" d="M 256.519531 187.539062 C 256.394531 187.539062 256.273438 187.460938 256.226562 187.332031 C 256.164062 187.167969 256.246094 186.984375 256.410156 186.921875 C 256.449219 186.90625 256.484375 186.898438 256.523438 186.898438 C 256.652344 186.898438 256.773438 186.976562 256.824219 187.105469 C 256.882812 187.269531 256.804688 187.457031 256.636719 187.519531 C 256.601562 187.535156 256.558594 187.539062 256.519531 187.539062 " fill-opacity="1" fill-rule="nonzero"/><path fill="#91817f" d="M 237.34375 197.183594 C 237.214844 197.183594 237.09375 197.105469 237.046875 196.976562 C 236.984375 196.8125 237.0625 196.628906 237.230469 196.566406 C 237.265625 196.550781 237.304688 196.546875 237.34375 196.546875 C 237.472656 196.546875 237.59375 196.625 237.640625 196.75 C 237.707031 196.917969 237.621094 197.101562 237.457031 197.167969 C 237.417969 197.179688 237.382812 197.183594 237.34375 197.183594 " fill-opacity="1" fill-rule="nonzero"/><path fill="#91817f" d="M 247.429688 191.394531 C 247.226562 191.394531 247.03125 191.273438 246.957031 191.066406 C 246.855469 190.804688 246.988281 190.511719 247.25 190.414062 C 247.308594 190.390625 247.367188 190.378906 247.429688 190.378906 C 247.632812 190.378906 247.824219 190.503906 247.90625 190.707031 C 248.003906 190.972656 247.871094 191.261719 247.609375 191.359375 C 247.550781 191.382812 247.492188 191.394531 247.429688 191.394531 " fill-opacity="1" fill-rule="nonzero"/><path fill="#8d7a75" d="M 242.992188 199.890625 C 242.789062 199.890625 242.601562 199.765625 242.523438 199.566406 C 242.425781 199.300781 242.558594 199.007812 242.820312 198.910156 C 242.878906 198.890625 242.9375 198.878906 242.996094 198.878906 C 243.199219 198.878906 243.394531 199.003906 243.46875 199.203125 C 243.570312 199.464844 243.433594 199.757812 243.179688 199.855469 C 243.117188 199.878906 243.054688 199.890625 242.992188 199.890625 " fill-opacity="1" fill-rule="nonzero"/><path fill="#91817f" d="M 252.894531 194.464844 C 252.878906 194.25 253.007812 194.039062 253.222656 193.960938 C 253.28125 193.9375 253.339844 193.925781 253.402344 193.925781 C 253.472656 193.925781 253.542969 193.941406 253.605469 193.96875 C 253.371094 194.144531 253.136719 194.308594 252.894531 194.464844 " fill-opacity="1" fill-rule="nonzero"/><path fill="#8d7a75" d="M 253.402344 194.941406 C 253.199219 194.941406 253.003906 194.816406 252.925781 194.613281 C 252.90625 194.566406 252.898438 194.515625 252.894531 194.464844 C 253.136719 194.308594 253.371094 194.144531 253.605469 193.96875 C 253.726562 194.023438 253.824219 194.121094 253.878906 194.253906 C 253.972656 194.515625 253.84375 194.808594 253.582031 194.90625 C 253.523438 194.929688 253.460938 194.941406 253.402344 194.941406 " fill-opacity="1" fill-rule="nonzero"/><path fill="#91817f" d="M 245.5625 187.765625 C 245.359375 187.765625 245.167969 187.644531 245.089844 187.4375 C 244.988281 187.179688 245.121094 186.886719 245.382812 186.785156 C 245.441406 186.765625 245.503906 186.757812 245.5625 186.757812 C 245.765625 186.757812 245.960938 186.878906 246.039062 187.082031 C 246.132812 187.347656 246.003906 187.636719 245.742188 187.734375 C 245.683594 187.757812 245.621094 187.765625 245.5625 187.765625 " fill-opacity="1" fill-rule="nonzero"/><path fill="#91817f" d="M 248.011719 183.785156 C 247.808594 183.785156 247.613281 183.660156 247.539062 183.457031 C 247.445312 183.195312 247.574219 182.902344 247.835938 182.804688 C 247.898438 182.78125 247.957031 182.769531 248.015625 182.769531 C 248.214844 182.769531 248.410156 182.894531 248.488281 183.097656 C 248.585938 183.363281 248.457031 183.652344 248.195312 183.75 C 248.136719 183.773438 248.074219 183.785156 248.011719 183.785156 " fill-opacity="1" fill-rule="nonzero"/><path fill="#91817f" d="M 240.703125 191.332031 C 240.5 191.332031 240.304688 191.203125 240.230469 191.003906 C 240.128906 190.742188 240.261719 190.449219 240.527344 190.351562 C 240.585938 190.328125 240.644531 190.316406 240.703125 190.316406 C 240.90625 190.316406 241.101562 190.441406 241.179688 190.644531 C 241.277344 190.90625 241.148438 191.199219 240.886719 191.296875 C 240.828125 191.316406 240.765625 191.332031 240.703125 191.332031 " fill-opacity="1" fill-rule="nonzero"/><path fill="#91817f" d="M 254.769531 190.621094 C 254.640625 190.621094 254.515625 190.539062 254.472656 190.414062 C 254.40625 190.246094 254.488281 190.066406 254.652344 190.003906 C 254.691406 189.992188 254.730469 189.980469 254.769531 189.980469 C 254.894531 189.980469 255.019531 190.0625 255.066406 190.1875 C 255.132812 190.351562 255.046875 190.539062 254.878906 190.601562 C 254.84375 190.613281 254.804688 190.621094 254.769531 190.621094 " fill-opacity="1" fill-rule="nonzero"/><path fill="#91817f" d="M 252.234375 184.820312 C 252.101562 184.820312 251.984375 184.738281 251.933594 184.609375 C 251.871094 184.449219 251.953125 184.261719 252.117188 184.199219 C 252.15625 184.183594 252.191406 184.175781 252.226562 184.175781 C 252.359375 184.175781 252.484375 184.253906 252.53125 184.386719 C 252.59375 184.550781 252.507812 184.730469 252.34375 184.800781 C 252.304688 184.8125 252.269531 184.820312 252.234375 184.820312 " fill-opacity="1" fill-rule="nonzero"/><path fill="#91817f" d="M 239.289062 194.230469 C 239.085938 194.230469 238.890625 194.105469 238.816406 193.90625 C 238.71875 193.644531 238.847656 193.347656 239.113281 193.25 C 239.167969 193.226562 239.230469 193.214844 239.289062 193.214844 C 239.492188 193.214844 239.6875 193.34375 239.765625 193.542969 C 239.859375 193.804688 239.730469 194.097656 239.46875 194.199219 C 239.410156 194.21875 239.351562 194.230469 239.289062 194.230469 " fill-opacity="1" fill-rule="nonzero"/><path fill="#91817f" d="M 247.242188 193.441406 C 247.109375 193.441406 246.988281 193.363281 246.9375 193.234375 C 246.875 193.070312 246.960938 192.882812 247.125 192.820312 C 247.164062 192.808594 247.199219 192.800781 247.238281 192.800781 C 247.367188 192.800781 247.492188 192.878906 247.535156 193.011719 C 247.597656 193.171875 247.515625 193.359375 247.351562 193.421875 C 247.3125 193.4375 247.277344 193.441406 247.242188 193.441406 " fill-opacity="1" fill-rule="nonzero"/><path fill="#918f8f" d="M 195.632812 138.371094 C 194.808594 139.078125 194.71875 140.316406 195.421875 141.144531 C 196.132812 141.964844 197.371094 142.054688 198.191406 141.351562 L 250.417969 97.941406 C 251.238281 97.234375 251.328125 95.992188 250.628906 95.171875 C 249.914062 94.347656 248.679688 94.253906 247.855469 94.964844 L 195.632812 138.371094 " fill-opacity="1" fill-rule="nonzero"/><path fill="#2e2a2b" d="M 195.632812 138.371094 L 220.265625 117.863281 C 221.082031 118.917969 222.125 119.734375 223.144531 120.582031 L 198.191406 141.351562 C 197.371094 142.054688 196.132812 141.964844 195.421875 141.144531 C 194.71875 140.316406 194.808594 139.078125 195.632812 138.371094 " fill-opacity="1" fill-rule="nonzero"/><path fill="#d49d1f" d="M 182.628906 155.152344 L 198.589844 143.902344 L 193.910156 138.4375 L 185.386719 145.742188 L 182.628906 155.152344 " fill-opacity="1" fill-rule="nonzero"/><path fill="#d49d1f" d="M 192.6875 142.191406 C 193.207031 144.121094 195.183594 145.265625 197.101562 144.75 C 199.027344 144.234375 200.160156 142.25 199.640625 140.320312 C 199.121094 138.386719 197.144531 137.246094 195.222656 137.761719 C 193.304688 138.28125 192.167969 140.261719 192.6875 142.191406 " fill-opacity="1" fill-rule="nonzero"/><path fill="#bdbcbc" d="M 194.691406 140.835938 C 195 141.960938 196.148438 142.625 197.269531 142.324219 C 198.394531 142.019531 199.058594 140.863281 198.757812 139.742188 C 198.457031 138.625 197.296875 137.960938 196.175781 138.261719 C 195.058594 138.5625 194.398438 139.714844 194.691406 140.835938 " fill-opacity="1" fill-rule="nonzero"/><path fill="#7b7979" d="M 195.703125 140.566406 C 195.855469 141.128906 196.4375 141.46875 197 141.3125 C 197.5625 141.160156 197.898438 140.578125 197.75 140.015625 C 197.59375 139.453125 197.015625 139.117188 196.449219 139.269531 C 195.886719 139.421875 195.554688 140 195.703125 140.566406 " fill-opacity="1" fill-rule="nonzero"/><path fill="#918f8f" d="M 275.996094 117.28125 C 275.558594 116.292969 274.402344 115.839844 273.40625 116.28125 C 272.417969 116.722656 271.96875 117.882812 272.40625 118.871094 L 297.515625 178.210938 C 297.953125 179.203125 299.113281 179.652344 300.101562 179.210938 C 301.097656 178.773438 301.546875 177.617188 301.109375 176.625 L 275.996094 117.28125 " fill-opacity="1" fill-rule="nonzero"/><path fill="#ebc920" d="M 284.339844 195.90625 C 283.375 197.125 283.589844 198.890625 284.808594 199.847656 C 286.027344 200.808594 287.785156 200.597656 288.746094 199.378906 L 302.03125 179.03125 C 302.984375 177.8125 302.773438 176.050781 301.558594 175.089844 C 300.339844 174.132812 298.574219 174.339844 297.617188 175.558594 L 284.339844 195.90625 " fill-opacity="1" fill-rule="nonzero"/><path fill="#2e2a2b" d="M 275.996094 117.28125 L 288.492188 146.804688 C 287.242188 147.277344 286.160156 148.039062 285.054688 148.765625 L 272.40625 118.871094 C 271.96875 117.882812 272.417969 116.722656 273.40625 116.28125 C 274.402344 115.839844 275.558594 116.292969 275.996094 117.28125 " fill-opacity="1" fill-rule="nonzero"/><path fill="#e9ad23" d="M 267.050781 101.292969 L 269.820312 118.429688 L 276.527344 115.832031 L 272.476562 105.367188 L 267.050781 101.292969 " fill-opacity="1" fill-rule="nonzero"/><path fill="#e9ad23" d="M 273.390625 113.433594 C 271.402344 113.28125 269.664062 114.765625 269.511719 116.75 C 269.359375 118.730469 270.855469 120.464844 272.847656 120.613281 C 274.839844 120.769531 276.578125 119.28125 276.726562 117.300781 C 276.878906 115.316406 275.386719 113.585938 273.390625 113.433594 " fill-opacity="1" fill-rule="nonzero"/><path fill="#bdbcbc" d="M 274.003906 115.78125 C 272.847656 115.691406 271.835938 116.558594 271.746094 117.714844 C 271.660156 118.875 272.523438 119.882812 273.683594 119.972656 C 274.839844 120.0625 275.851562 119.195312 275.941406 118.035156 C 276.03125 116.878906 275.160156 115.867188 274.003906 115.78125 " fill-opacity="1" fill-rule="nonzero"/><path fill="#7b7979" d="M 273.925781 116.824219 C 273.339844 116.777344 272.832031 117.214844 272.789062 117.796875 C 272.742188 118.378906 273.179688 118.886719 273.765625 118.933594 C 274.34375 118.980469 274.851562 118.539062 274.898438 117.953125 C 274.945312 117.371094 274.503906 116.867188 273.925781 116.824219 " fill-opacity="1" fill-rule="nonzero"/><g clip-path="url(#d7a0a5e8ad)"><path fill="#ebc920" d="M 246.179688 95.53125 C 245.84375 97.40625 247.09375 99.1875 248.960938 99.519531 C 250.832031 99.855469 252.613281 98.609375 252.945312 96.738281 C 253.277344 94.867188 252.035156 93.085938 250.164062 92.75 C 248.292969 92.417969 246.507812 93.664062 246.179688 95.53125 " fill-opacity="1" fill-rule="nonzero"/></g><path fill="#ebc920" d="M 267.050781 101.292969 L 251.445312 93.261719 L 246.730469 98.078125 L 244.503906 113.140625 L 276.597656 187.808594 L 282.640625 184.109375 L 267.050781 101.292969 " fill-opacity="1" fill-rule="nonzero"/><path fill="#e9e9e9" d="M 280.511719 185.410156 L 282.640625 184.109375 L 280.511719 185.410156 " fill-opacity="1" fill-rule="nonzero"/><path fill="#867876" d="M 280 185.726562 L 280.511719 185.410156 L 280 185.726562 " fill-opacity="1" fill-rule="nonzero"/><g clip-path="url(#352bff4b4e)"><path fill="#e9e9e9" d="M 248.074219 93.035156 C 248.53125 92.820312 249.035156 92.699219 249.558594 92.699219 C 249.757812 92.699219 249.960938 92.714844 250.164062 92.75 C 249.960938 92.714844 249.757812 92.699219 249.558594 92.699219 C 249.035156 92.699219 248.527344 92.820312 248.074219 93.035156 " fill-opacity="1" fill-rule="nonzero"/></g><g clip-path="url(#08c8d44b85)"><path fill="#d6b81d" d="M 249.011719 95.75 L 248.074219 93.035156 C 248.527344 92.820312 249.035156 92.699219 249.558594 92.699219 C 249.757812 92.699219 249.960938 92.714844 250.164062 92.75 C 250.636719 92.835938 251.070312 93.011719 251.445312 93.261719 L 249.011719 95.75 " fill-opacity="1" fill-rule="nonzero"/></g><path fill="#d6b81d" d="M 280 185.726562 L 249.011719 95.75 L 251.445312 93.261719 L 267.050781 101.292969 L 282.640625 184.109375 L 280.511719 185.410156 L 280 185.726562 " fill-opacity="1" fill-rule="nonzero"/><path fill="#e9ad23" d="M 251.914062 116.796875 C 251.914062 116.796875 213.136719 147.355469 203.957031 154.921875 C 194.78125 162.496094 192.234375 167.757812 191.015625 178.449219 C 189.789062 189.140625 187.375 203.875 187.640625 205.546875 C 187.90625 207.210938 168.613281 194.792969 168.613281 194.792969 C 168.613281 194.792969 173.957031 158.628906 189.597656 148.039062 C 205.234375 137.445312 246.050781 108.613281 246.050781 108.613281 L 251.914062 116.796875 " fill-opacity="1" fill-rule="nonzero"/><path fill="#e9ad23" d="M 244.007812 114.136719 C 244.734375 116.839844 247.453125 118.457031 250.082031 117.75 C 252.710938 117.042969 254.25 114.277344 253.523438 111.574219 C 252.796875 108.875 250.078125 107.257812 247.449219 107.964844 C 244.820312 108.671875 243.285156 111.433594 244.007812 114.136719 " fill-opacity="1" fill-rule="nonzero"/><path fill="#e9e9e9" d="M 189.035156 193.441406 C 189.707031 188.632812 190.476562 183.148438 191.015625 178.449219 C 192.234375 167.757812 194.78125 162.496094 203.957031 154.921875 C 209.59375 150.273438 226.386719 136.960938 238.511719 127.375 C 226.386719 136.960938 209.59375 150.273438 203.957031 154.921875 C 194.78125 162.496094 192.234375 167.757812 191.015625 178.449219 C 190.476562 183.148438 189.707031 188.632812 189.035156 193.441406 " fill-opacity="1" fill-rule="nonzero"/><path fill="#d6b81d" d="M 253.523438 111.574219 C 253.296875 110.734375 252.875 109.992188 252.324219 109.398438 C 252.875 109.996094 253.296875 110.730469 253.523438 111.574219 " fill-opacity="1" fill-rule="nonzero"/><path fill="#d59d1f" d="M 189.035156 193.441406 L 185.070312 186.003906 L 178.011719 186.003906 C 179.828125 174.707031 183.945312 159.605469 193.191406 153.34375 C 204.058594 145.980469 231.085938 125.554688 244.507812 115.355469 C 245.402344 116.933594 247.0625 117.914062 248.832031 117.914062 C 249.25 117.914062 249.667969 117.859375 250.082031 117.75 C 250.664062 117.589844 251.191406 117.335938 251.652344 117 C 250.460938 117.945312 245.195312 122.09375 238.511719 127.375 C 226.386719 136.960938 209.59375 150.273438 203.957031 154.921875 C 194.78125 162.496094 192.234375 167.757812 191.015625 178.449219 C 190.476562 183.148438 189.707031 188.632812 189.035156 193.441406 " fill-opacity="1" fill-rule="nonzero"/><path fill="#d59d1f" d="M 248.832031 117.914062 C 247.0625 117.914062 245.402344 116.933594 244.507812 115.355469 C 249.214844 111.777344 252.253906 109.453125 252.324219 109.398438 C 252.875 109.992188 253.296875 110.734375 253.523438 111.574219 C 254.058594 113.5625 253.363281 115.585938 251.90625 116.796875 L 251.914062 116.796875 L 251.867188 116.835938 L 251.785156 116.902344 C 251.75 116.929688 251.707031 116.964844 251.652344 117 C 251.191406 117.335938 250.664062 117.589844 250.082031 117.75 C 249.667969 117.859375 249.25 117.914062 248.832031 117.914062 " fill-opacity="1" fill-rule="nonzero"/><path fill="#bdbcbc" d="M 247.578125 95.84375 C 247.375 96.992188 248.136719 98.078125 249.277344 98.28125 C 250.425781 98.488281 251.519531 97.722656 251.71875 96.582031 C 251.925781 95.4375 251.15625 94.347656 250.015625 94.144531 C 248.875 93.9375 247.78125 94.703125 247.578125 95.84375 " fill-opacity="1" fill-rule="nonzero"/><path fill="#7b7979" d="M 248.605469 96.027344 C 248.503906 96.601562 248.886719 97.152344 249.460938 97.253906 C 250.039062 97.359375 250.589844 96.972656 250.6875 96.398438 C 250.796875 95.824219 250.40625 95.273438 249.832031 95.171875 C 249.257812 95.070312 248.710938 95.453125 248.605469 96.027344 " fill-opacity="1" fill-rule="nonzero"/><path fill="#bdbcbc" d="M 245.953125 113.613281 C 246.40625 115.296875 248.140625 116.296875 249.824219 115.839844 C 251.507812 115.390625 252.507812 113.65625 252.054688 111.96875 C 251.601562 110.285156 249.867188 109.285156 248.183594 109.742188 C 246.5 110.195312 245.5 111.925781 245.953125 113.613281 " fill-opacity="1" fill-rule="nonzero"/><path fill="#7b7979" d="M 247.472656 113.207031 C 247.695312 114.054688 248.570312 114.554688 249.417969 114.328125 C 250.265625 114.101562 250.769531 113.230469 250.539062 112.378906 C 250.3125 111.53125 249.4375 111.027344 248.59375 111.257812 C 247.742188 111.484375 247.242188 112.355469 247.472656 113.207031 " fill-opacity="1" fill-rule="nonzero"/><path fill="#2e2a2b" d="M 239.488281 203.421875 L 233.183594 197.378906 L 224.011719 195.558594 L 242.804688 216.601562 L 239.488281 203.421875 " fill-opacity="1" fill-rule="nonzero"/><path fill="#393536" d="M 244.46875 218.445312 L 288.285156 194.957031 L 280.054688 182.378906 L 233.5625 206.394531 L 244.46875 218.445312 " fill-opacity="1" fill-rule="nonzero"/><path fill="#393536" d="M 273.667969 189.226562 L 277.59375 195.222656 C 283.3125 203.957031 280.375 216 271.035156 222.117188 C 261.691406 228.230469 249.484375 226.101562 243.765625 217.367188 L 239.839844 211.367188 L 273.667969 189.226562 " fill-opacity="1" fill-rule="nonzero"/><path fill="#393536" d="M 276.816406 200.4375 C 276.816406 200.4375 286.6875 200.992188 288.066406 200.09375 C 289.453125 199.183594 289.839844 197.324219 288.933594 195.941406 L 284.789062 189.617188 C 283.886719 188.230469 282.027344 187.84375 280.644531 188.75 C 279.261719 189.65625 278.871094 191.511719 279.777344 192.898438 L 276.816406 200.4375 " fill-opacity="1" fill-rule="nonzero"/><path fill="#393536" d="M 275.105469 193.957031 C 275.273438 196.3125 277.308594 198.085938 279.660156 197.921875 C 282.011719 197.757812 283.789062 195.71875 283.625 193.367188 L 282.875 182.613281 C 282.710938 180.261719 280.671875 178.484375 278.320312 178.652344 C 275.96875 178.816406 274.195312 180.851562 274.355469 183.203125 L 275.105469 193.957031 " fill-opacity="1" fill-rule="nonzero"/><path fill="#bdbcbc" d="M 275.726562 184.855469 C 276.683594 186.3125 278.640625 186.71875 280.097656 185.765625 C 281.558594 184.8125 281.96875 182.855469 281.015625 181.394531 C 280.058594 179.933594 278.101562 179.527344 276.640625 180.480469 C 275.183594 181.4375 274.773438 183.398438 275.726562 184.855469 " fill-opacity="1" fill-rule="nonzero"/><path fill="#7b7979" d="M 277.039062 184 C 277.523438 184.730469 278.507812 184.933594 279.238281 184.453125 C 279.976562 183.972656 280.183594 182.992188 279.699219 182.257812 C 279.21875 181.519531 278.234375 181.316406 277.5 181.796875 C 276.765625 182.277344 276.5625 183.261719 277.039062 184 " fill-opacity="1" fill-rule="nonzero"/><path fill="#bdbcbc" d="M 284.726562 198.828125 C 285.363281 199.800781 286.671875 200.074219 287.644531 199.4375 C 288.613281 198.800781 288.882812 197.496094 288.25 196.527344 C 287.613281 195.558594 286.3125 195.285156 285.335938 195.917969 C 284.367188 196.558594 284.089844 197.859375 284.726562 198.828125 " fill-opacity="1" fill-rule="nonzero"/><path fill="#7b7979" d="M 285.605469 198.257812 C 285.925781 198.746094 286.578125 198.882812 287.070312 198.5625 C 287.558594 198.246094 287.695312 197.585938 287.378906 197.097656 C 287.054688 196.609375 286.398438 196.476562 285.910156 196.796875 C 285.421875 197.113281 285.285156 197.769531 285.605469 198.257812 " fill-opacity="1" fill-rule="nonzero"/><path fill="#e9ad23" d="M 276.507812 175.183594 C 275.140625 174.449219 274.632812 172.746094 275.367188 171.378906 C 276.101562 170.015625 277.800781 169.511719 279.167969 170.246094 L 301.3125 174.902344 C 302.675781 175.636719 303.1875 177.335938 302.453125 178.703125 C 301.71875 180.066406 300.015625 180.574219 298.652344 179.84375 L 276.507812 175.183594 " fill-opacity="1" fill-rule="nonzero"/><path fill="#bdbcbc" d="M 298.089844 178.464844 C 298.722656 179.4375 300.027344 179.710938 300.996094 179.074219 C 301.972656 178.4375 302.242188 177.136719 301.605469 176.164062 C 300.96875 175.191406 299.667969 174.921875 298.695312 175.558594 C 297.726562 176.191406 297.449219 177.496094 298.089844 178.464844 " fill-opacity="1" fill-rule="nonzero"/><path fill="#7b7979" d="M 298.960938 177.894531 C 299.28125 178.386719 299.933594 178.519531 300.425781 178.199219 C 300.914062 177.878906 301.050781 177.222656 300.730469 176.734375 C 300.414062 176.246094 299.757812 176.109375 299.269531 176.429688 C 298.78125 176.75 298.640625 177.40625 298.960938 177.894531 " fill-opacity="1" fill-rule="nonzero"/><path fill="#bdbcbc" d="M 275.871094 173.613281 C 276.421875 174.636719 277.703125 175.015625 278.722656 174.464844 C 279.742188 173.914062 280.125 172.636719 279.570312 171.613281 C 279.019531 170.59375 277.742188 170.210938 276.722656 170.765625 C 275.699219 171.316406 275.316406 172.589844 275.871094 173.613281 " fill-opacity="1" fill-rule="nonzero"/><path fill="#7b7979" d="M 276.789062 173.117188 C 277.070312 173.632812 277.710938 173.824219 278.222656 173.542969 C 278.738281 173.265625 278.929688 172.625 278.652344 172.109375 C 278.375 171.597656 277.734375 171.40625 277.21875 171.683594 C 276.703125 171.960938 276.515625 172.601562 276.789062 173.117188 " fill-opacity="1" fill-rule="nonzero"/><path fill="#918f8f" d="M 197.289062 200.6875 C 197.457031 201.761719 198.460938 202.496094 199.53125 202.332031 C 200.605469 202.167969 201.335938 201.164062 201.175781 200.09375 L 195.070312 160.375 C 194.90625 159.304688 193.898438 158.570312 192.832031 158.730469 C 191.757812 158.898438 191.023438 159.898438 191.1875 160.976562 L 197.289062 200.6875 " fill-opacity="1" fill-rule="nonzero"/><path fill="#2e2a2b" d="M 198.488281 235.527344 L 208.289062 232.894531 L 203.488281 195.515625 L 193.683594 198.152344 L 198.488281 235.527344 " fill-opacity="1" fill-rule="nonzero"/><path fill="#393536" d="M 198.28125 235.527344 L 197.058594 210.6875 L 206.859375 208.046875 L 210.507812 235.527344 L 198.28125 235.527344 " fill-opacity="1" fill-rule="nonzero"/><g clip-path="url(#ff9eea3e04)"><path fill="#393536" d="M 81.445312 273.324219 C 75.125 273.324219 69.984375 266.308594 69.984375 257.683594 C 69.984375 249.0625 75.125 242.046875 81.445312 242.046875 L 197.214844 242.046875 C 203.53125 242.046875 208.671875 249.0625 208.671875 257.683594 C 208.671875 266.308594 203.53125 273.324219 197.214844 273.324219 L 81.445312 273.324219 " fill-opacity="1" fill-rule="nonzero"/></g><g clip-path="url(#c2a1e43f13)"><path fill="#2e2a2b" d="M 197.214844 241.257812 L 81.445312 241.257812 C 74.691406 241.257812 69.195312 248.628906 69.195312 257.683594 C 69.195312 266.742188 74.691406 274.109375 81.445312 274.109375 L 197.214844 274.109375 C 203.964844 274.109375 209.457031 266.742188 209.457031 257.683594 C 209.457031 248.628906 203.964844 241.257812 197.214844 241.257812 M 197.214844 242.832031 C 203.105469 242.832031 207.886719 249.476562 207.886719 257.683594 C 207.886719 265.890625 203.105469 272.539062 197.214844 272.539062 L 81.445312 272.539062 C 75.546875 272.539062 70.769531 265.890625 70.769531 257.683594 C 70.769531 249.476562 75.546875 242.832031 81.445312 242.832031 L 197.214844 242.832031 " fill-opacity="1" fill-rule="nonzero"/></g><path fill="#918f8f" d="M 191.183594 245.957031 C 191.183594 247.640625 192.554688 249.007812 194.238281 249.007812 C 195.925781 249.007812 197.289062 247.640625 197.289062 245.957031 C 197.289062 244.273438 195.925781 242.90625 194.238281 242.90625 C 192.554688 242.90625 191.183594 244.273438 191.183594 245.957031 " fill-opacity="1" fill-rule="nonzero"/><path fill="#918f8f" d="M 185.085938 245.957031 C 185.085938 247.640625 186.453125 249.007812 188.136719 249.007812 C 189.820312 249.007812 191.183594 247.640625 191.183594 245.957031 C 191.183594 244.273438 189.820312 242.90625 188.136719 242.90625 C 186.453125 242.90625 185.085938 244.273438 185.085938 245.957031 " fill-opacity="1" fill-rule="nonzero"/><path fill="#918f8f" d="M 178.984375 245.957031 C 178.984375 247.640625 180.351562 249.007812 182.035156 249.007812 C 183.71875 249.007812 185.085938 247.640625 185.085938 245.957031 C 185.085938 244.273438 183.71875 242.90625 182.035156 242.90625 C 180.351562 242.90625 178.984375 244.273438 178.984375 245.957031 " fill-opacity="1" fill-rule="nonzero"/><path fill="#918f8f" d="M 172.882812 245.957031 C 172.882812 247.640625 174.253906 249.007812 175.933594 249.007812 C 177.617188 249.007812 178.984375 247.640625 178.984375 245.957031 C 178.984375 244.273438 177.617188 242.90625 175.933594 242.90625 C 174.253906 242.90625 172.882812 244.273438 172.882812 245.957031 " fill-opacity="1" fill-rule="nonzero"/><path fill="#918f8f" d="M 166.785156 245.957031 C 166.785156 247.640625 168.148438 249.007812 169.835938 249.007812 C 171.519531 249.007812 172.882812 247.640625 172.882812 245.957031 C 172.882812 244.273438 171.519531 242.90625 169.835938 242.90625 C 168.148438 242.90625 166.785156 244.273438 166.785156 245.957031 " fill-opacity="1" fill-rule="nonzero"/><path fill="#918f8f" d="M 160.683594 245.957031 C 160.683594 247.640625 162.050781 249.007812 163.734375 249.007812 C 165.417969 249.007812 166.785156 247.640625 166.785156 245.957031 C 166.785156 244.273438 165.417969 242.90625 163.734375 242.90625 C 162.050781 242.90625 160.683594 244.273438 160.683594 245.957031 " fill-opacity="1" fill-rule="nonzero"/><path fill="#918f8f" d="M 154.582031 245.957031 C 154.582031 247.640625 155.949219 249.007812 157.632812 249.007812 C 159.316406 249.007812 160.683594 247.640625 160.683594 245.957031 C 160.683594 244.273438 159.316406 242.90625 157.632812 242.90625 C 155.949219 242.90625 154.582031 244.273438 154.582031 245.957031 " fill-opacity="1" fill-rule="nonzero"/><path fill="#918f8f" d="M 148.484375 245.957031 C 148.484375 247.640625 149.847656 249.007812 151.53125 249.007812 C 153.21875 249.007812 154.582031 247.640625 154.582031 245.957031 C 154.582031 244.273438 153.21875 242.90625 151.53125 242.90625 C 149.847656 242.90625 148.484375 244.273438 148.484375 245.957031 " fill-opacity="1" fill-rule="nonzero"/><path fill="#918f8f" d="M 142.378906 245.957031 C 142.378906 247.640625 143.75 249.007812 145.433594 249.007812 C 147.113281 249.007812 148.484375 247.640625 148.484375 245.957031 C 148.484375 244.273438 147.113281 242.90625 145.433594 242.90625 C 143.75 242.90625 142.378906 244.273438 142.378906 245.957031 " fill-opacity="1" fill-rule="nonzero"/><path fill="#918f8f" d="M 136.277344 245.957031 C 136.277344 247.640625 137.644531 249.007812 139.328125 249.007812 C 141.011719 249.007812 142.378906 247.640625 142.378906 245.957031 C 142.378906 244.273438 141.011719 242.90625 139.328125 242.90625 C 137.644531 242.90625 136.277344 244.273438 136.277344 245.957031 " fill-opacity="1" fill-rule="nonzero"/><path fill="#918f8f" d="M 130.175781 245.957031 C 130.175781 247.640625 131.542969 249.007812 133.230469 249.007812 C 134.914062 249.007812 136.277344 247.640625 136.277344 245.957031 C 136.277344 244.273438 134.914062 242.90625 133.230469 242.90625 C 131.542969 242.90625 130.175781 244.273438 130.175781 245.957031 " fill-opacity="1" fill-rule="nonzero"/><path fill="#918f8f" d="M 124.078125 245.957031 C 124.078125 247.640625 125.441406 249.007812 127.128906 249.007812 C 128.816406 249.007812 130.175781 247.640625 130.175781 245.957031 C 130.175781 244.273438 128.816406 242.90625 127.128906 242.90625 C 125.441406 242.90625 124.078125 244.273438 124.078125 245.957031 " fill-opacity="1" fill-rule="nonzero"/><path fill="#918f8f" d="M 117.980469 245.957031 C 117.980469 247.640625 119.34375 249.007812 121.03125 249.007812 C 122.710938 249.007812 124.078125 247.640625 124.078125 245.957031 C 124.078125 244.273438 122.710938 242.90625 121.03125 242.90625 C 119.34375 242.90625 117.980469 244.273438 117.980469 245.957031 " fill-opacity="1" fill-rule="nonzero"/><path fill="#918f8f" d="M 111.875 245.957031 C 111.875 247.640625 113.242188 249.007812 114.925781 249.007812 C 116.613281 249.007812 117.980469 247.640625 117.980469 245.957031 C 117.980469 244.273438 116.613281 242.90625 114.925781 242.90625 C 113.242188 242.90625 111.875 244.273438 111.875 245.957031 " fill-opacity="1" fill-rule="nonzero"/><path fill="#918f8f" d="M 105.777344 245.957031 C 105.777344 247.640625 107.140625 249.007812 108.828125 249.007812 C 110.507812 249.007812 111.875 247.640625 111.875 245.957031 C 111.875 244.273438 110.507812 242.90625 108.828125 242.90625 C 107.140625 242.90625 105.777344 244.273438 105.777344 245.957031 " fill-opacity="1" fill-rule="nonzero"/><path fill="#918f8f" d="M 99.675781 245.957031 C 99.675781 247.640625 101.042969 249.007812 102.722656 249.007812 C 104.410156 249.007812 105.777344 247.640625 105.777344 245.957031 C 105.777344 244.273438 104.410156 242.90625 102.722656 242.90625 C 101.042969 242.90625 99.675781 244.273438 99.675781 245.957031 " fill-opacity="1" fill-rule="nonzero"/><path fill="#918f8f" d="M 93.574219 245.957031 C 93.574219 247.640625 94.941406 249.007812 96.625 249.007812 C 98.308594 249.007812 99.675781 247.640625 99.675781 245.957031 C 99.675781 244.273438 98.308594 242.90625 96.625 242.90625 C 94.941406 242.90625 93.574219 244.273438 93.574219 245.957031 " fill-opacity="1" fill-rule="nonzero"/><path fill="#918f8f" d="M 87.472656 245.957031 C 87.472656 247.640625 88.839844 249.007812 90.523438 249.007812 C 92.207031 249.007812 93.574219 247.640625 93.574219 245.957031 C 93.574219 244.273438 92.207031 242.90625 90.523438 242.90625 C 88.839844 242.90625 87.472656 244.273438 87.472656 245.957031 " fill-opacity="1" fill-rule="nonzero"/><path fill="#918f8f" d="M 81.371094 245.957031 C 81.371094 247.640625 82.738281 249.007812 84.425781 249.007812 C 86.109375 249.007812 87.472656 247.640625 87.472656 245.957031 C 87.472656 244.273438 86.109375 242.90625 84.425781 242.90625 C 82.738281 242.90625 81.371094 244.273438 81.371094 245.957031 " fill-opacity="1" fill-rule="nonzero"/><path fill="#918f8f" d="M 75.53125 247.472656 C 75.53125 249.160156 76.894531 250.519531 78.578125 250.519531 C 80.265625 250.519531 81.632812 249.160156 81.632812 247.472656 C 81.632812 245.785156 80.265625 244.421875 78.578125 244.421875 C 76.894531 244.421875 75.53125 245.785156 75.53125 247.472656 " fill-opacity="1" fill-rule="nonzero"/><path fill="#918f8f" d="M 71.519531 251.957031 C 71.519531 253.640625 72.886719 255.007812 74.570312 255.007812 C 76.253906 255.007812 77.621094 253.640625 77.621094 251.957031 C 77.621094 250.273438 76.253906 248.90625 74.570312 248.90625 C 72.886719 248.90625 71.519531 250.273438 71.519531 251.957031 " fill-opacity="1" fill-rule="nonzero"/><path fill="#918f8f" d="M 203.128906 247.472656 C 203.128906 249.160156 201.765625 250.519531 200.078125 250.519531 C 198.394531 250.519531 197.03125 249.160156 197.03125 247.472656 C 197.03125 245.785156 198.394531 244.421875 200.078125 244.421875 C 201.765625 244.421875 203.128906 245.785156 203.128906 247.472656 " fill-opacity="1" fill-rule="nonzero"/><path fill="#918f8f" d="M 207.140625 251.957031 C 207.140625 253.640625 205.773438 255.007812 204.089844 255.007812 C 202.40625 255.007812 201.042969 253.640625 201.042969 251.957031 C 201.042969 250.273438 202.40625 248.90625 204.089844 248.90625 C 205.773438 248.90625 207.140625 250.273438 207.140625 251.957031 " fill-opacity="1" fill-rule="nonzero"/><path fill="#918f8f" d="M 207.988281 257.824219 C 207.988281 259.507812 206.621094 260.871094 204.9375 260.871094 C 203.253906 260.871094 201.886719 259.507812 201.886719 257.824219 C 201.886719 256.140625 203.253906 254.773438 204.9375 254.773438 C 206.621094 254.773438 207.988281 256.140625 207.988281 257.824219 " fill-opacity="1" fill-rule="nonzero"/><path fill="#918f8f" d="M 76.777344 257.824219 C 76.777344 259.507812 75.410156 260.871094 73.722656 260.871094 C 72.039062 260.871094 70.675781 259.507812 70.675781 257.824219 C 70.675781 256.140625 72.039062 254.773438 73.722656 254.773438 C 75.410156 254.773438 76.777344 256.140625 76.777344 257.824219 " fill-opacity="1" fill-rule="nonzero"/><path fill="#918f8f" d="M 191.183594 269.488281 C 191.183594 267.804688 192.554688 266.4375 194.238281 266.4375 C 195.925781 266.4375 197.289062 267.804688 197.289062 269.488281 C 197.289062 271.175781 195.925781 272.539062 194.238281 272.539062 C 192.554688 272.539062 191.183594 271.175781 191.183594 269.488281 " fill-opacity="1" fill-rule="nonzero"/><path fill="#918f8f" d="M 185.085938 269.488281 C 185.085938 267.804688 186.453125 266.4375 188.136719 266.4375 C 189.820312 266.4375 191.183594 267.804688 191.183594 269.488281 C 191.183594 271.175781 189.820312 272.539062 188.136719 272.539062 C 186.453125 272.539062 185.085938 271.175781 185.085938 269.488281 " fill-opacity="1" fill-rule="nonzero"/><path fill="#918f8f" d="M 178.984375 269.488281 C 178.984375 267.804688 180.351562 266.441406 182.035156 266.441406 C 183.71875 266.441406 185.085938 267.804688 185.085938 269.488281 C 185.085938 271.175781 183.71875 272.539062 182.035156 272.539062 C 180.351562 272.539062 178.984375 271.175781 178.984375 269.488281 " fill-opacity="1" fill-rule="nonzero"/><path fill="#918f8f" d="M 172.882812 269.488281 C 172.882812 267.804688 174.253906 266.441406 175.933594 266.441406 C 177.617188 266.441406 178.984375 267.804688 178.984375 269.488281 C 178.984375 271.175781 177.617188 272.539062 175.933594 272.539062 C 174.253906 272.539062 172.882812 271.175781 172.882812 269.488281 " fill-opacity="1" fill-rule="nonzero"/><path fill="#918f8f" d="M 166.785156 269.488281 C 166.785156 267.804688 168.148438 266.441406 169.835938 266.441406 C 171.519531 266.441406 172.882812 267.804688 172.882812 269.488281 C 172.882812 271.175781 171.519531 272.539062 169.835938 272.539062 C 168.148438 272.539062 166.785156 271.175781 166.785156 269.488281 " fill-opacity="1" fill-rule="nonzero"/><path fill="#918f8f" d="M 160.683594 269.488281 C 160.683594 267.804688 162.050781 266.441406 163.734375 266.441406 C 165.417969 266.441406 166.785156 267.804688 166.785156 269.488281 C 166.785156 271.175781 165.417969 272.539062 163.734375 272.539062 C 162.050781 272.539062 160.683594 271.175781 160.683594 269.488281 " fill-opacity="1" fill-rule="nonzero"/><path fill="#918f8f" d="M 154.582031 269.488281 C 154.582031 267.804688 155.949219 266.441406 157.632812 266.441406 C 159.316406 266.441406 160.683594 267.804688 160.683594 269.488281 C 160.683594 271.175781 159.316406 272.539062 157.632812 272.539062 C 155.949219 272.539062 154.582031 271.175781 154.582031 269.488281 " fill-opacity="1" fill-rule="nonzero"/><path fill="#918f8f" d="M 148.484375 269.488281 C 148.484375 267.804688 149.847656 266.441406 151.53125 266.441406 C 153.21875 266.441406 154.582031 267.804688 154.582031 269.488281 C 154.582031 271.175781 153.21875 272.539062 151.53125 272.539062 C 149.847656 272.539062 148.484375 271.175781 148.484375 269.488281 " fill-opacity="1" fill-rule="nonzero"/><path fill="#918f8f" d="M 142.378906 269.488281 C 142.378906 267.804688 143.75 266.441406 145.433594 266.441406 C 147.113281 266.441406 148.484375 267.804688 148.484375 269.488281 C 148.484375 271.175781 147.113281 272.539062 145.433594 272.539062 C 143.75 272.539062 142.378906 271.175781 142.378906 269.488281 " fill-opacity="1" fill-rule="nonzero"/><path fill="#918f8f" d="M 136.277344 269.488281 C 136.277344 267.804688 137.644531 266.441406 139.328125 266.441406 C 141.011719 266.441406 142.378906 267.804688 142.378906 269.488281 C 142.378906 271.175781 141.011719 272.539062 139.328125 272.539062 C 137.644531 272.539062 136.277344 271.175781 136.277344 269.488281 " fill-opacity="1" fill-rule="nonzero"/><path fill="#918f8f" d="M 130.175781 269.488281 C 130.175781 267.804688 131.542969 266.441406 133.230469 266.441406 C 134.914062 266.441406 136.277344 267.804688 136.277344 269.488281 C 136.277344 271.175781 134.914062 272.539062 133.230469 272.539062 C 131.542969 272.539062 130.175781 271.175781 130.175781 269.488281 " fill-opacity="1" fill-rule="nonzero"/><path fill="#918f8f" d="M 124.078125 269.488281 C 124.078125 267.804688 125.441406 266.441406 127.128906 266.441406 C 128.816406 266.441406 130.175781 267.804688 130.175781 269.488281 C 130.175781 271.175781 128.816406 272.539062 127.128906 272.539062 C 125.441406 272.539062 124.078125 271.175781 124.078125 269.488281 " fill-opacity="1" fill-rule="nonzero"/><path fill="#918f8f" d="M 117.980469 269.488281 C 117.980469 267.804688 119.34375 266.441406 121.03125 266.441406 C 122.710938 266.441406 124.078125 267.804688 124.078125 269.488281 C 124.078125 271.175781 122.710938 272.539062 121.03125 272.539062 C 119.34375 272.539062 117.980469 271.175781 117.980469 269.488281 " fill-opacity="1" fill-rule="nonzero"/><path fill="#918f8f" d="M 111.875 269.488281 C 111.875 267.804688 113.242188 266.441406 114.925781 266.441406 C 116.613281 266.441406 117.980469 267.804688 117.980469 269.488281 C 117.980469 271.175781 116.613281 272.539062 114.925781 272.539062 C 113.242188 272.539062 111.875 271.175781 111.875 269.488281 " fill-opacity="1" fill-rule="nonzero"/><path fill="#918f8f" d="M 105.777344 269.488281 C 105.777344 267.804688 107.140625 266.441406 108.828125 266.441406 C 110.507812 266.441406 111.875 267.804688 111.875 269.488281 C 111.875 271.175781 110.507812 272.539062 108.828125 272.539062 C 107.140625 272.539062 105.777344 271.175781 105.777344 269.488281 " fill-opacity="1" fill-rule="nonzero"/><path fill="#918f8f" d="M 99.675781 269.488281 C 99.675781 267.804688 101.042969 266.441406 102.722656 266.441406 C 104.410156 266.441406 105.777344 267.804688 105.777344 269.488281 C 105.777344 271.175781 104.410156 272.539062 102.722656 272.539062 C 101.042969 272.539062 99.675781 271.175781 99.675781 269.488281 " fill-opacity="1" fill-rule="nonzero"/><path fill="#918f8f" d="M 93.574219 269.488281 C 93.574219 267.804688 94.941406 266.441406 96.625 266.441406 C 98.308594 266.441406 99.675781 267.804688 99.675781 269.488281 C 99.675781 271.175781 98.308594 272.539062 96.625 272.539062 C 94.941406 272.539062 93.574219 271.175781 93.574219 269.488281 " fill-opacity="1" fill-rule="nonzero"/><path fill="#918f8f" d="M 87.472656 269.488281 C 87.472656 267.804688 88.839844 266.441406 90.523438 266.441406 C 92.207031 266.441406 93.574219 267.804688 93.574219 269.488281 C 93.574219 271.175781 92.207031 272.539062 90.523438 272.539062 C 88.839844 272.539062 87.472656 271.175781 87.472656 269.488281 " fill-opacity="1" fill-rule="nonzero"/><path fill="#918f8f" d="M 81.371094 269.488281 C 81.371094 267.804688 82.738281 266.441406 84.425781 266.441406 C 86.109375 266.441406 87.472656 267.804688 87.472656 269.488281 C 87.472656 271.175781 86.109375 272.539062 84.425781 272.539062 C 82.738281 272.539062 81.371094 271.175781 81.371094 269.488281 " fill-opacity="1" fill-rule="nonzero"/><path fill="#918f8f" d="M 75.53125 267.976562 C 75.53125 266.289062 76.894531 264.921875 78.578125 264.921875 C 80.265625 264.921875 81.632812 266.289062 81.632812 267.976562 C 81.632812 269.660156 80.265625 271.023438 78.578125 271.023438 C 76.894531 271.023438 75.53125 269.660156 75.53125 267.976562 " fill-opacity="1" fill-rule="nonzero"/><path fill="#918f8f" d="M 71.519531 263.488281 C 71.519531 261.804688 72.886719 260.4375 74.570312 260.4375 C 76.253906 260.4375 77.621094 261.804688 77.621094 263.488281 C 77.621094 265.171875 76.253906 266.535156 74.570312 266.535156 C 72.886719 266.535156 71.519531 265.171875 71.519531 263.488281 " fill-opacity="1" fill-rule="nonzero"/><path fill="#918f8f" d="M 203.128906 267.976562 C 203.128906 266.289062 201.765625 264.921875 200.078125 264.921875 C 198.394531 264.921875 197.03125 266.289062 197.03125 267.976562 C 197.03125 269.660156 198.394531 271.023438 200.078125 271.023438 C 201.765625 271.023438 203.128906 269.660156 203.128906 267.976562 " fill-opacity="1" fill-rule="nonzero"/><path fill="#918f8f" d="M 207.140625 263.488281 C 207.140625 261.804688 205.773438 260.4375 204.089844 260.4375 C 202.40625 260.4375 201.042969 261.804688 201.042969 263.488281 C 201.042969 265.171875 202.40625 266.535156 204.089844 266.535156 C 205.773438 266.535156 207.140625 265.171875 207.140625 263.488281 " fill-opacity="1" fill-rule="nonzero"/><path fill="#2e2a2b" d="M 73.722656 257.824219 C 73.722656 264.324219 78.296875 269.589844 83.9375 269.589844 L 194.71875 269.589844 C 200.363281 269.589844 204.9375 264.324219 204.9375 257.824219 C 204.9375 251.328125 200.363281 246.058594 194.71875 246.058594 L 83.9375 246.058594 C 78.296875 246.058594 73.722656 251.328125 73.722656 257.824219 " fill-opacity="1" fill-rule="nonzero"/><path fill="#bdbcbc" d="M 185.6875 257.824219 C 185.6875 261.132812 188.371094 263.816406 191.679688 263.816406 C 194.984375 263.816406 197.667969 261.132812 197.667969 257.824219 C 197.667969 254.515625 194.984375 251.832031 191.679688 251.832031 C 188.371094 251.832031 185.6875 254.515625 185.6875 257.824219 " fill-opacity="1" fill-rule="nonzero"/><path fill="#7b7979" d="M 188.585938 257.824219 C 188.585938 259.535156 189.96875 260.914062 191.679688 260.914062 C 193.382812 260.914062 194.769531 259.535156 194.769531 257.824219 C 194.769531 256.113281 193.382812 254.730469 191.679688 254.730469 C 189.96875 254.730469 188.585938 256.113281 188.585938 257.824219 " fill-opacity="1" fill-rule="nonzero"/><path fill="#bdbcbc" d="M 80.992188 257.824219 C 80.992188 261.132812 83.675781 263.816406 86.984375 263.816406 C 90.289062 263.816406 92.972656 261.132812 92.972656 257.824219 C 92.972656 254.515625 90.289062 251.832031 86.984375 251.832031 C 83.675781 251.832031 80.992188 254.515625 80.992188 257.824219 " fill-opacity="1" fill-rule="nonzero"/><path fill="#7b7979" d="M 83.890625 257.824219 C 83.890625 259.535156 85.277344 260.914062 86.984375 260.914062 C 88.6875 260.914062 90.074219 259.535156 90.074219 257.824219 C 90.074219 256.113281 88.6875 254.730469 86.984375 254.730469 C 85.277344 254.730469 83.890625 256.113281 83.890625 257.824219 " fill-opacity="1" fill-rule="nonzero"/><path fill="#656263" d="M 192.03125 253.273438 L 86.628906 253.273438 C 84.242188 253.273438 82.300781 255.316406 82.300781 257.824219 C 82.300781 260.335938 84.242188 262.375 86.628906 262.375 L 192.03125 262.375 C 194.417969 262.375 196.359375 260.335938 196.359375 257.824219 C 196.359375 255.316406 194.417969 253.273438 192.03125 253.273438 Z M 192.03125 254.84375 C 193.554688 254.84375 194.785156 256.175781 194.785156 257.824219 C 194.785156 259.46875 193.554688 260.804688 192.03125 260.804688 L 86.628906 260.804688 C 85.105469 260.804688 83.871094 259.46875 83.871094 257.824219 C 83.871094 256.175781 85.105469 254.84375 86.628906 254.84375 L 192.03125 254.84375 " fill-opacity="1" fill-rule="nonzero"/><path fill="#918f8f" d="M 173.925781 261.566406 L 173.925781 262.566406 C 173.925781 266.445312 170.832031 269.589844 167.007812 269.589844 C 163.1875 269.589844 160.089844 266.445312 160.089844 262.566406 L 160.089844 261.566406 L 173.925781 261.566406 " fill-opacity="1" fill-rule="nonzero"/><path fill="#918f8f" d="M 160.089844 261.566406 L 160.089844 262.566406 C 160.089844 266.445312 156.988281 269.589844 153.167969 269.589844 C 149.347656 269.589844 146.25 266.445312 146.25 262.566406 L 146.25 261.566406 L 160.089844 261.566406 " fill-opacity="1" fill-rule="nonzero"/><path fill="#918f8f" d="M 146.25 261.566406 L 146.25 262.566406 C 146.25 266.445312 143.148438 269.589844 139.328125 269.589844 C 135.511719 269.589844 132.410156 266.445312 132.410156 262.566406 L 132.410156 261.566406 L 146.25 261.566406 " fill-opacity="1" fill-rule="nonzero"/><path fill="#918f8f" d="M 132.410156 261.566406 L 132.410156 262.566406 C 132.410156 266.445312 129.308594 269.589844 125.492188 269.589844 C 121.667969 269.589844 118.574219 266.445312 118.574219 262.566406 L 118.574219 261.566406 L 132.410156 261.566406 " fill-opacity="1" fill-rule="nonzero"/><path fill="#918f8f" d="M 118.574219 261.566406 L 118.574219 262.566406 C 118.574219 266.445312 115.472656 269.589844 111.652344 269.589844 C 107.828125 269.589844 104.730469 266.445312 104.730469 262.566406 L 104.730469 261.566406 L 118.574219 261.566406 " fill-opacity="1" fill-rule="nonzero"/><path fill="#2e2a2b" d="M 98.148438 241.257812 L 180.507812 241.257812 L 173.828125 237.988281 L 102.605469 237.988281 L 98.148438 241.257812 " fill-opacity="1" fill-rule="nonzero"/><path fill="#ebc920" d="M 76.664062 234.039062 C 76.664062 236.21875 78.4375 237.988281 80.617188 237.988281 L 143.457031 237.988281 C 145.636719 237.988281 147.40625 236.21875 147.40625 234.039062 L 147.40625 212.753906 C 147.40625 210.566406 145.636719 208.796875 143.457031 208.796875 L 80.617188 208.796875 C 78.4375 208.796875 76.664062 210.566406 76.664062 212.753906 L 76.664062 234.039062 " fill-opacity="1" fill-rule="nonzero"/><path fill="#e9ad23" d="M 79.886719 229.300781 C 79.886719 230.796875 81.101562 232.011719 82.597656 232.011719 L 109.328125 232.011719 C 110.820312 232.011719 112.035156 230.796875 112.035156 229.300781 L 112.035156 214.707031 C 112.035156 213.207031 110.820312 211.996094 109.328125 211.996094 L 82.597656 211.996094 C 81.101562 211.996094 79.886719 213.207031 79.886719 214.707031 L 79.886719 229.300781 " fill-opacity="1" fill-rule="nonzero"/><path fill="#ebc920" d="M 185.070312 186.003906 L 203.105469 219.816406 L 203.105469 237.988281 L 142.378906 237.988281 L 142.378906 186.003906 L 185.070312 186.003906 " fill-opacity="1" fill-rule="nonzero"/><path fill="#5dbdbc" d="M 171.09375 226.773438 C 171.09375 220.296875 166.699219 214.859375 160.742188 213.234375 L 160.742188 190.890625 L 181.746094 190.890625 L 197.460938 227.90625 L 171.09375 227.90625 L 171.09375 226.773438 " fill-opacity="1" fill-rule="nonzero"/><path fill="#5dbdbc" d="M 149.015625 212.722656 L 156.617188 212.722656 L 156.617188 190.890625 L 149.015625 190.890625 Z M 149.015625 212.722656 " fill-opacity="1" fill-rule="nonzero"/><path fill="#efd348" d="M 194 219.746094 C 194 219.746094 193.996094 219.746094 193.996094 219.746094 L 191.59375 214.085938 C 191.597656 214.085938 191.597656 214.085938 191.597656 214.085938 L 194 219.746094 " fill-opacity="1" fill-rule="nonzero"/><path fill="#7dc9c7" d="M 193.996094 219.746094 C 192.140625 219.4375 190.308594 219.140625 188.574219 218.734375 C 180.089844 216.753906 178.042969 215.839844 170.167969 211.535156 C 166.929688 209.761719 163.679688 207.710938 160.742188 205.265625 L 160.742188 199.324219 C 164.675781 202.484375 168.773438 205.164062 173.34375 207.535156 C 177.65625 209.777344 182.664062 212.050781 187.410156 213.234375 C 188.796875 213.578125 190.191406 213.851562 191.59375 214.085938 L 193.996094 219.746094 " fill-opacity="1" fill-rule="nonzero"/><path fill="#d6b81d" d="M 197.460938 227.90625 L 195.046875 222.21875 C 195.046875 222.21875 195.046875 222.222656 195.046875 222.222656 L 197.460938 227.90625 " fill-opacity="1" fill-rule="nonzero"/><path fill="#55acac" d="M 197.460938 227.90625 L 171.09375 227.90625 L 171.09375 226.773438 C 171.09375 220.296875 166.699219 214.859375 160.742188 213.234375 L 160.742188 208.308594 C 163.207031 210.242188 165.867188 211.847656 169.0625 213.367188 C 175.078125 216.238281 181.308594 219.84375 187.949219 221.007812 C 190.273438 221.417969 192.648438 221.851562 195.046875 222.21875 L 197.460938 227.90625 " fill-opacity="1" fill-rule="nonzero"/><path fill="#7dc9c7" d="M 156.617188 201.363281 C 153.746094 198.257812 151.359375 194.722656 149.683594 190.890625 L 152.769531 190.890625 C 153.933594 192.578125 155.21875 194.136719 156.617188 195.578125 L 156.617188 201.363281 " fill-opacity="1" fill-rule="nonzero"/><path fill="#55acac" d="M 156.617188 212.722656 L 149.015625 212.722656 L 149.015625 194.621094 C 150.722656 197.609375 152.824219 200.394531 155.105469 202.964844 C 155.609375 203.535156 156.113281 204.078125 156.617188 204.589844 L 156.617188 212.722656 " fill-opacity="1" fill-rule="nonzero"/><path fill="#2e2a2b" d="M 150.476562 220.289062 L 162.066406 220.289062 L 162.066406 216.753906 L 150.476562 216.753906 L 150.476562 220.289062 " fill-opacity="1" fill-rule="nonzero"/><path fill="#2e2a2b" d="M 91.402344 208.796875 L 136.277344 208.796875 L 136.277344 204.921875 L 91.402344 204.921875 L 91.402344 208.796875 " fill-opacity="1" fill-rule="nonzero"/><path fill="#985b1a" d="M 91.402344 201.804688 L 113.839844 201.804688 L 113.839844 204.921875 L 91.402344 204.921875 L 91.402344 201.804688 " fill-opacity="1" fill-rule="nonzero"/><path fill="#393536" d="M 127.25 196.375 L 132.304688 196.375 L 132.304688 204.921875 L 127.25 204.921875 L 127.25 196.375 " fill-opacity="1" fill-rule="nonzero"/><path fill="#2e2a2b" d="M 82.605469 214.964844 L 109.320312 214.964844 L 109.320312 213.71875 L 82.605469 213.71875 L 82.605469 214.964844 " fill-opacity="1" fill-rule="nonzero"/><path fill="#2e2a2b" d="M 82.605469 216.882812 L 109.320312 216.882812 L 109.320312 215.636719 L 82.605469 215.636719 L 82.605469 216.882812 " fill-opacity="1" fill-rule="nonzero"/><path fill="#2e2a2b" d="M 82.605469 218.796875 L 109.320312 218.796875 L 109.320312 217.550781 L 82.605469 217.550781 L 82.605469 218.796875 " fill-opacity="1" fill-rule="nonzero"/><path fill="#2e2a2b" d="M 82.605469 220.710938 L 109.320312 220.710938 L 109.320312 219.464844 L 82.605469 219.464844 L 82.605469 220.710938 " fill-opacity="1" fill-rule="nonzero"/><path fill="#2e2a2b" d="M 82.605469 222.625 L 109.320312 222.625 L 109.320312 221.382812 L 82.605469 221.382812 L 82.605469 222.625 " fill-opacity="1" fill-rule="nonzero"/><path fill="#2e2a2b" d="M 82.605469 224.542969 L 109.320312 224.542969 L 109.320312 223.296875 L 82.605469 223.296875 L 82.605469 224.542969 " fill-opacity="1" fill-rule="nonzero"/><path fill="#2e2a2b" d="M 82.605469 226.457031 L 109.320312 226.457031 L 109.320312 225.210938 L 82.605469 225.210938 L 82.605469 226.457031 " fill-opacity="1" fill-rule="nonzero"/><path fill="#2e2a2b" d="M 82.605469 228.371094 L 109.320312 228.371094 L 109.320312 227.125 L 82.605469 227.125 L 82.605469 228.371094 " fill-opacity="1" fill-rule="nonzero"/><path fill="#2e2a2b" d="M 82.605469 230.289062 L 109.320312 230.289062 L 109.320312 229.042969 L 82.605469 229.042969 L 82.605469 230.289062 " fill-opacity="1" fill-rule="nonzero"/><path fill="#393536" d="M 125.898438 195.5625 C 126.894531 193.925781 128.265625 192.914062 129.773438 192.914062 C 131.289062 192.914062 132.660156 193.925781 133.65625 195.5625 L 125.898438 195.5625 " fill-opacity="1" fill-rule="nonzero"/><path fill="#2e2a2b" d="M 125.898438 196.375 L 133.65625 196.375 L 133.65625 195.5625 L 125.898438 195.5625 L 125.898438 196.375 " fill-opacity="1" fill-rule="nonzero"/><path fill="#ee212e" d="M 76.640625 227.125 L 76.640625 234.628906 C 75.300781 233.964844 74.417969 232.824219 74.417969 231.523438 L 74.417969 230.234375 C 74.417969 228.929688 75.300781 227.789062 76.640625 227.125 " fill-opacity="1" fill-rule="nonzero"/><path fill="#bdbcbc" d="M 190.0625 161.40625 C 190.511719 163.09375 192.246094 164.09375 193.929688 163.636719 C 195.613281 163.1875 196.613281 161.453125 196.160156 159.765625 C 195.707031 158.082031 193.976562 157.085938 192.289062 157.539062 C 190.605469 157.992188 189.609375 159.726562 190.0625 161.40625 " fill-opacity="1" fill-rule="nonzero"/><path fill="#7b7979" d="M 191.574219 161.003906 C 191.800781 161.847656 192.671875 162.351562 193.519531 162.125 C 194.375 161.894531 194.871094 161.019531 194.640625 160.175781 C 194.414062 159.328125 193.542969 158.828125 192.695312 159.058594 C 191.847656 159.28125 191.34375 160.152344 191.574219 161.003906 " fill-opacity="1" fill-rule="nonzero"/><path fill="#2e2a2b" d="M 138.933594 186.105469 C 139.769531 183.859375 141.925781 182.257812 144.457031 182.257812 L 183.183594 182.257812 C 185.714844 182.257812 187.875 183.859375 188.710938 186.105469 L 138.933594 186.105469 " fill-opacity="1" fill-rule="nonzero"/><path fill="#f57724" d="M 238.785156 231.59375 C 238.789062 231.113281 238.777344 230.386719 238.996094 229.839844 L 238.996094 227.664062 L 218.980469 227.664062 C 218.015625 227.859375 217.054688 228.042969 216.078125 228.132812 C 214.5625 228.285156 213.238281 227.816406 211.773438 227.664062 L 209.550781 227.664062 L 209.550781 240.773438 C 209.609375 241.132812 209.617188 241.496094 209.554688 241.867188 L 209.550781 241.929688 L 209.550781 242.351562 C 209.589844 242.691406 209.691406 243.019531 209.730469 243.363281 C 209.75 243.53125 209.621094 243.734375 209.550781 243.921875 L 209.550781 244.269531 C 209.664062 244.484375 209.648438 244.6875 209.550781 244.855469 L 209.550781 246.085938 L 230.964844 246.085938 C 231.0625 245.898438 231.246094 245.753906 231.527344 245.757812 C 231.902344 245.765625 232.273438 245.671875 232.648438 245.582031 C 233.105469 245.464844 233.558594 245.351562 234.019531 245.421875 C 234.65625 245.515625 235.195312 245.953125 235.808594 246.085938 L 238.996094 246.085938 L 238.996094 234.203125 C 238.8125 233.359375 238.773438 232.4375 238.785156 231.59375 " fill-opacity="1" fill-rule="nonzero"/><g clip-path="url(#aebb747c0c)"><g clip-path="url(#c29fe4b4c1)"><path fill="#c05d24" d="M 211.980469 235.789062 L 216.765625 235.789062 L 216.765625 231 L 211.980469 231 Z M 211.980469 235.789062 " fill-opacity="1" fill-rule="nonzero"/></g></g><path fill="#c05d24" d="M 214.371094 242.75 C 213.050781 242.75 211.980469 241.679688 211.980469 240.355469 C 211.980469 239.035156 213.050781 237.960938 214.371094 237.960938 C 215.695312 237.960938 216.765625 239.035156 216.765625 240.355469 C 216.765625 241.679688 215.695312 242.75 214.371094 242.75 " fill-opacity="1" fill-rule="nonzero"/><path fill="#c05d24" d="M 220.972656 235.789062 C 219.652344 235.789062 218.578125 234.714844 218.578125 233.394531 C 218.578125 232.074219 219.652344 231 220.972656 231 C 222.296875 231 223.367188 232.074219 223.367188 233.394531 C 223.367188 234.714844 222.296875 235.789062 220.972656 235.789062 " fill-opacity="1" fill-rule="nonzero"/><path fill="#c05d24" d="M 220.972656 242.75 C 219.652344 242.75 218.578125 241.679688 218.578125 240.355469 C 218.578125 239.035156 219.652344 237.960938 220.972656 237.960938 C 222.296875 237.960938 223.367188 239.035156 223.367188 240.355469 C 223.367188 241.679688 222.296875 242.75 220.972656 242.75 " fill-opacity="1" fill-rule="nonzero"/><path fill="#c05d24" d="M 227.574219 235.789062 C 226.25 235.789062 225.179688 234.714844 225.179688 233.394531 C 225.179688 232.074219 226.25 231 227.574219 231 C 228.894531 231 229.96875 232.074219 229.96875 233.394531 C 229.96875 234.714844 228.894531 235.789062 227.574219 235.789062 " fill-opacity="1" fill-rule="nonzero"/><path fill="#c05d24" d="M 227.574219 242.75 C 226.25 242.75 225.179688 241.679688 225.179688 240.355469 C 225.179688 239.035156 226.25 237.960938 227.574219 237.960938 C 228.894531 237.960938 229.96875 239.035156 229.96875 240.355469 C 229.96875 241.679688 228.894531 242.75 227.574219 242.75 " fill-opacity="1" fill-rule="nonzero"/><path fill="#c05d24" d="M 234.171875 235.789062 C 232.851562 235.789062 231.777344 234.714844 231.777344 233.394531 C 231.777344 232.074219 232.851562 231 234.171875 231 C 235.496094 231 236.566406 232.074219 236.566406 233.394531 C 236.566406 234.714844 235.496094 235.789062 234.171875 235.789062 " fill-opacity="1" fill-rule="nonzero"/><path fill="#c05d24" d="M 234.171875 242.75 C 232.851562 242.75 231.777344 241.679688 231.777344 240.355469 C 231.777344 239.035156 232.851562 237.960938 234.171875 237.960938 C 235.496094 237.960938 236.566406 239.035156 236.566406 240.355469 C 236.566406 241.679688 235.496094 242.75 234.171875 242.75 " fill-opacity="1" fill-rule="nonzero"/><path fill="#e45b23" d="M 180.316406 242.15625 C 180.3125 242.636719 180.324219 243.363281 180.101562 243.910156 L 180.101562 246.085938 L 200.121094 246.085938 C 201.082031 245.894531 202.046875 245.710938 203.019531 245.617188 C 204.539062 245.464844 205.863281 245.933594 207.328125 246.085938 L 209.550781 246.085938 L 209.550781 232.976562 C 209.492188 232.621094 209.480469 232.253906 209.542969 231.882812 L 209.550781 231.824219 L 209.550781 231.398438 C 209.511719 231.0625 209.40625 230.730469 209.371094 230.386719 C 209.351562 230.222656 209.476562 230.015625 209.550781 229.828125 L 209.550781 229.484375 C 209.433594 229.269531 209.453125 229.0625 209.550781 228.894531 L 209.550781 227.664062 L 188.132812 227.664062 C 188.039062 227.855469 187.851562 227.996094 187.574219 227.992188 C 186.734375 227.976562 185.917969 228.460938 185.078125 228.328125 C 184.441406 228.234375 183.902344 227.796875 183.292969 227.664062 L 180.101562 227.664062 L 180.101562 239.546875 C 180.285156 240.394531 180.328125 241.3125 180.316406 242.15625 " fill-opacity="1" fill-rule="nonzero"/><g clip-path="url(#f3a7526763)"><path fill="#f46c25" d="M 247.15625 282.929688 L 276.601562 282.929688 L 276.601562 264.507812 L 247.15625 264.507812 Z M 247.15625 282.929688 " fill-opacity="1" fill-rule="nonzero"/></g><path fill="#c05524" d="M 251.980469 272.632812 C 250.65625 272.632812 249.585938 271.558594 249.585938 270.238281 C 249.585938 268.917969 250.65625 267.84375 251.980469 267.84375 C 253.300781 267.84375 254.371094 268.917969 254.371094 270.238281 C 254.371094 271.558594 253.300781 272.632812 251.980469 272.632812 " fill-opacity="1" fill-rule="nonzero"/><path fill="#c05524" d="M 251.980469 279.59375 C 250.65625 279.59375 249.585938 278.523438 249.585938 277.203125 C 249.585938 275.878906 250.65625 274.804688 251.980469 274.804688 C 253.300781 274.804688 254.371094 275.878906 254.371094 277.203125 C 254.371094 278.523438 253.300781 279.59375 251.980469 279.59375 " fill-opacity="1" fill-rule="nonzero"/><path fill="#c05524" d="M 258.578125 272.632812 C 257.257812 272.632812 256.183594 271.558594 256.183594 270.238281 C 256.183594 268.917969 257.257812 267.84375 258.578125 267.84375 C 259.902344 267.84375 260.972656 268.917969 260.972656 270.238281 C 260.972656 271.558594 259.902344 272.632812 258.578125 272.632812 " fill-opacity="1" fill-rule="nonzero"/><path fill="#c05524" d="M 258.578125 279.59375 C 257.257812 279.59375 256.183594 278.523438 256.183594 277.203125 C 256.183594 275.878906 257.257812 274.804688 258.578125 274.804688 C 259.902344 274.804688 260.972656 275.878906 260.972656 277.203125 C 260.972656 278.523438 259.902344 279.59375 258.578125 279.59375 " fill-opacity="1" fill-rule="nonzero"/><path fill="#c05524" d="M 265.179688 272.632812 C 263.855469 272.632812 262.785156 271.558594 262.785156 270.238281 C 262.785156 268.917969 263.855469 267.84375 265.179688 267.84375 C 266.5 267.84375 267.570312 268.917969 267.570312 270.238281 C 267.570312 271.558594 266.5 272.632812 265.179688 272.632812 " fill-opacity="1" fill-rule="nonzero"/><path fill="#c05524" d="M 265.179688 279.59375 C 263.855469 279.59375 262.785156 278.523438 262.785156 277.203125 C 262.785156 275.878906 263.855469 274.804688 265.179688 274.804688 C 266.5 274.804688 267.570312 275.878906 267.570312 277.203125 C 267.570312 278.523438 266.5 279.59375 265.179688 279.59375 " fill-opacity="1" fill-rule="nonzero"/><path fill="#c05524" d="M 271.78125 272.632812 C 270.457031 272.632812 269.386719 271.558594 269.386719 270.238281 C 269.386719 268.917969 270.457031 267.84375 271.78125 267.84375 C 273.101562 267.84375 274.171875 268.917969 274.171875 270.238281 C 274.171875 271.558594 273.101562 272.632812 271.78125 272.632812 " fill-opacity="1" fill-rule="nonzero"/><path fill="#c05524" d="M 271.78125 279.59375 C 270.457031 279.59375 269.386719 278.523438 269.386719 277.203125 C 269.386719 275.878906 270.457031 274.804688 271.78125 274.804688 C 273.101562 274.804688 274.171875 275.878906 274.171875 277.203125 C 274.171875 278.523438 273.101562 279.59375 271.78125 279.59375 " fill-opacity="1" fill-rule="nonzero"/><g clip-path="url(#d4e0e855b5)"><path fill="#e45b23" d="M 305.835938 268.4375 C 305.839844 267.957031 305.828125 267.234375 306.050781 266.6875 L 306.050781 264.507812 L 286.03125 264.507812 C 285.070312 264.703125 284.105469 264.886719 283.132812 264.980469 C 281.613281 265.128906 280.292969 264.660156 278.824219 264.507812 L 276.601562 264.507812 L 276.601562 277.617188 C 276.660156 277.972656 276.671875 278.339844 276.605469 278.710938 L 276.601562 278.773438 L 276.601562 279.195312 C 276.640625 279.535156 276.746094 279.863281 276.785156 280.210938 C 276.800781 280.375 276.671875 280.578125 276.601562 280.769531 L 276.601562 281.113281 C 276.71875 281.328125 276.699219 281.53125 276.601562 281.699219 L 276.601562 282.929688 L 298.019531 282.929688 C 298.113281 282.738281 298.300781 282.597656 298.578125 282.601562 C 299.414062 282.621094 300.234375 282.136719 301.074219 282.265625 C 301.710938 282.363281 302.25 282.796875 302.859375 282.929688 L 306.050781 282.929688 L 306.050781 271.046875 C 305.867188 270.203125 305.824219 269.285156 305.835938 268.4375 " fill-opacity="1" fill-rule="nonzero"/></g><path fill="#e45b23" d="M 238.980469 246.085938 L 268.425781 246.085938 L 268.425781 227.664062 L 238.980469 227.664062 Z M 238.980469 246.085938 " fill-opacity="1" fill-rule="nonzero"/><path fill="#b44822" d="M 243.800781 235.789062 C 242.480469 235.789062 241.410156 234.714844 241.410156 233.394531 C 241.410156 232.074219 242.480469 231 243.800781 231 C 245.121094 231 246.195312 232.074219 246.195312 233.394531 C 246.195312 234.714844 245.121094 235.789062 243.800781 235.789062 " fill-opacity="1" fill-rule="nonzero"/><path fill="#b44822" d="M 243.800781 242.75 C 242.480469 242.75 241.410156 241.679688 241.410156 240.355469 C 241.410156 239.035156 242.480469 237.960938 243.800781 237.960938 C 245.121094 237.960938 246.195312 239.035156 246.195312 240.355469 C 246.195312 241.679688 245.121094 242.75 243.800781 242.75 " fill-opacity="1" fill-rule="nonzero"/><path fill="#b44822" d="M 250.402344 235.789062 C 249.082031 235.789062 248.007812 234.714844 248.007812 233.394531 C 248.007812 232.074219 249.082031 231 250.402344 231 C 251.722656 231 252.792969 232.074219 252.792969 233.394531 C 252.792969 234.714844 251.722656 235.789062 250.402344 235.789062 " fill-opacity="1" fill-rule="nonzero"/><path fill="#b44822" d="M 250.402344 242.75 C 249.082031 242.75 248.007812 241.679688 248.007812 240.355469 C 248.007812 239.035156 249.082031 237.960938 250.402344 237.960938 C 251.722656 237.960938 252.792969 239.035156 252.792969 240.355469 C 252.792969 241.679688 251.722656 242.75 250.402344 242.75 " fill-opacity="1" fill-rule="nonzero"/><path fill="#b44822" d="M 257.003906 235.789062 C 255.679688 235.789062 254.609375 234.714844 254.609375 233.394531 C 254.609375 232.074219 255.679688 231 257.003906 231 C 258.324219 231 259.394531 232.074219 259.394531 233.394531 C 259.394531 234.714844 258.324219 235.789062 257.003906 235.789062 " fill-opacity="1" fill-rule="nonzero"/><path fill="#b44822" d="M 257.003906 242.75 C 255.679688 242.75 254.609375 241.679688 254.609375 240.355469 C 254.609375 239.035156 255.679688 237.960938 257.003906 237.960938 C 258.324219 237.960938 259.394531 239.035156 259.394531 240.355469 C 259.394531 241.679688 258.324219 242.75 257.003906 242.75 " fill-opacity="1" fill-rule="nonzero"/><path fill="#b44822" d="M 263.601562 235.789062 C 262.28125 235.789062 261.207031 234.714844 261.207031 233.394531 C 261.207031 232.074219 262.28125 231 263.601562 231 C 264.925781 231 265.992188 232.074219 265.992188 233.394531 C 265.992188 234.714844 264.925781 235.789062 263.601562 235.789062 " fill-opacity="1" fill-rule="nonzero"/><path fill="#b44822" d="M 263.601562 242.75 C 262.28125 242.75 261.207031 241.679688 261.207031 240.355469 C 261.207031 239.035156 262.28125 237.960938 263.601562 237.960938 C 264.925781 237.960938 265.992188 239.035156 265.992188 240.355469 C 265.992188 241.679688 264.925781 242.75 263.601562 242.75 " fill-opacity="1" fill-rule="nonzero"/><path fill="#e45b23" d="M 228.140625 250.015625 C 228.148438 249.53125 228.132812 248.808594 228.351562 248.261719 L 228.351562 246.082031 L 208.335938 246.082031 C 207.375 246.277344 206.410156 246.464844 205.4375 246.554688 C 203.917969 246.703125 202.597656 246.238281 201.128906 246.082031 L 198.90625 246.082031 L 198.90625 259.191406 C 198.96875 259.550781 198.976562 259.914062 198.914062 260.285156 L 198.90625 260.347656 L 198.90625 260.773438 C 198.941406 261.109375 199.046875 261.441406 199.085938 261.785156 C 199.105469 261.949219 198.976562 262.15625 198.90625 262.34375 L 198.90625 262.6875 C 199.023438 262.902344 199.003906 263.109375 198.90625 263.273438 L 198.90625 264.503906 L 220.324219 264.503906 C 220.417969 264.316406 220.601562 264.175781 220.882812 264.179688 C 221.722656 264.191406 222.542969 263.714844 223.375 263.839844 C 224.011719 263.9375 224.550781 264.375 225.160156 264.503906 L 228.351562 264.503906 L 228.351562 252.625 C 228.171875 251.777344 228.128906 250.859375 228.140625 250.015625 " fill-opacity="1" fill-rule="nonzero"/><g clip-path="url(#e99616ac42)"><path fill="#f57724" d="M 217.515625 268.433594 C 217.519531 267.953125 217.507812 267.230469 217.730469 266.683594 L 217.730469 264.503906 L 197.710938 264.503906 C 196.75 264.699219 195.785156 264.882812 194.8125 264.980469 C 193.292969 265.125 191.96875 264.660156 190.503906 264.503906 L 188.28125 264.503906 L 188.28125 277.617188 C 188.339844 277.972656 188.351562 278.339844 188.285156 278.710938 L 188.28125 278.773438 L 188.28125 279.191406 C 188.320312 279.53125 188.421875 279.863281 188.460938 280.207031 C 188.480469 280.371094 188.355469 280.578125 188.28125 280.765625 L 188.28125 281.109375 C 188.394531 281.324219 188.378906 281.53125 188.28125 281.699219 L 188.28125 282.929688 L 209.699219 282.929688 C 209.792969 282.738281 209.980469 282.59375 210.257812 282.601562 C 210.632812 282.609375 211.007812 282.511719 211.378906 282.421875 C 211.835938 282.308594 212.292969 282.191406 212.753906 282.261719 C 213.386719 282.359375 213.929688 282.796875 214.539062 282.929688 L 217.730469 282.929688 L 217.730469 271.042969 C 217.546875 270.199219 217.503906 269.28125 217.515625 268.433594 " fill-opacity="1" fill-rule="nonzero"/></g><path fill="#c05d24" d="M 193.105469 272.628906 C 191.78125 272.628906 190.710938 271.554688 190.710938 270.238281 C 190.710938 268.914062 191.78125 267.84375 193.105469 267.84375 C 194.425781 267.84375 195.496094 268.914062 195.496094 270.238281 C 195.496094 271.554688 194.425781 272.628906 193.105469 272.628906 " fill-opacity="1" fill-rule="nonzero"/><path fill="#c05d24" d="M 193.105469 279.59375 C 191.78125 279.59375 190.710938 278.519531 190.710938 277.199219 C 190.710938 275.878906 191.78125 274.804688 193.105469 274.804688 C 194.425781 274.804688 195.496094 275.878906 195.496094 277.199219 C 195.496094 278.519531 194.425781 279.59375 193.105469 279.59375 " fill-opacity="1" fill-rule="nonzero"/><path fill="#c05d24" d="M 199.703125 272.628906 C 198.382812 272.628906 197.3125 271.554688 197.3125 270.238281 C 197.3125 268.914062 198.382812 267.84375 199.703125 267.84375 C 201.027344 267.84375 202.097656 268.914062 202.097656 270.238281 C 202.097656 271.554688 201.027344 272.628906 199.703125 272.628906 " fill-opacity="1" fill-rule="nonzero"/><path fill="#c05d24" d="M 199.703125 279.59375 C 198.382812 279.59375 197.3125 278.519531 197.3125 277.199219 C 197.3125 275.878906 198.382812 274.804688 199.703125 274.804688 C 201.027344 274.804688 202.097656 275.878906 202.097656 277.199219 C 202.097656 278.519531 201.027344 279.59375 199.703125 279.59375 " fill-opacity="1" fill-rule="nonzero"/><path fill="#c05d24" d="M 206.304688 272.628906 C 204.980469 272.628906 203.910156 271.554688 203.910156 270.238281 C 203.910156 268.914062 204.980469 267.84375 206.304688 267.84375 C 207.628906 267.84375 208.699219 268.914062 208.699219 270.238281 C 208.699219 271.554688 207.628906 272.628906 206.304688 272.628906 " fill-opacity="1" fill-rule="nonzero"/><path fill="#c05d24" d="M 206.304688 279.59375 C 204.980469 279.59375 203.910156 278.519531 203.910156 277.199219 C 203.910156 275.878906 204.980469 274.804688 206.304688 274.804688 C 207.628906 274.804688 208.699219 275.878906 208.699219 277.199219 C 208.699219 278.519531 207.628906 279.59375 206.304688 279.59375 " fill-opacity="1" fill-rule="nonzero"/><path fill="#c05d24" d="M 212.902344 272.628906 C 211.582031 272.628906 210.511719 271.554688 210.511719 270.238281 C 210.511719 268.914062 211.582031 267.84375 212.902344 267.84375 C 214.226562 267.84375 215.296875 268.914062 215.296875 270.238281 C 215.296875 271.554688 214.226562 272.628906 212.902344 272.628906 " fill-opacity="1" fill-rule="nonzero"/><path fill="#c05d24" d="M 212.902344 279.59375 C 211.582031 279.59375 210.511719 278.519531 210.511719 277.199219 C 210.511719 275.878906 211.582031 274.804688 212.902344 274.804688 C 214.226562 274.804688 215.296875 275.878906 215.296875 277.199219 C 215.296875 278.519531 214.226562 279.59375 212.902344 279.59375 " fill-opacity="1" fill-rule="nonzero"/><g clip-path="url(#74b61a0f03)"><path fill="#e45b23" d="M 217.710938 282.929688 L 247.15625 282.929688 L 247.15625 264.503906 L 217.710938 264.503906 Z M 217.710938 282.929688 " fill-opacity="1" fill-rule="nonzero"/></g><path fill="#b44822" d="M 222.535156 272.628906 C 221.210938 272.628906 220.140625 271.554688 220.140625 270.238281 C 220.140625 268.914062 221.210938 267.84375 222.535156 267.84375 C 223.855469 267.84375 224.925781 268.914062 224.925781 270.238281 C 224.925781 271.554688 223.855469 272.628906 222.535156 272.628906 " fill-opacity="1" fill-rule="nonzero"/><path fill="#b44822" d="M 222.535156 279.59375 C 221.210938 279.59375 220.140625 278.519531 220.140625 277.199219 C 220.140625 275.878906 221.210938 274.804688 222.535156 274.804688 C 223.855469 274.804688 224.925781 275.878906 224.925781 277.199219 C 224.925781 278.519531 223.855469 279.59375 222.535156 279.59375 " fill-opacity="1" fill-rule="nonzero"/><path fill="#b44822" d="M 229.132812 272.628906 C 227.8125 272.628906 226.738281 271.554688 226.738281 270.238281 C 226.738281 268.914062 227.8125 267.84375 229.132812 267.84375 C 230.453125 267.84375 231.527344 268.914062 231.527344 270.238281 C 231.527344 271.554688 230.453125 272.628906 229.132812 272.628906 " fill-opacity="1" fill-rule="nonzero"/><path fill="#b44822" d="M 229.132812 279.59375 C 227.8125 279.59375 226.738281 278.519531 226.738281 277.199219 C 226.738281 275.878906 227.8125 274.804688 229.132812 274.804688 C 230.453125 274.804688 231.527344 275.878906 231.527344 277.199219 C 231.527344 278.519531 230.453125 279.59375 229.132812 279.59375 " fill-opacity="1" fill-rule="nonzero"/><path fill="#b44822" d="M 235.734375 272.628906 C 234.414062 272.628906 233.339844 271.554688 233.339844 270.238281 C 233.339844 268.914062 234.414062 267.84375 235.734375 267.84375 C 237.054688 267.84375 238.125 268.914062 238.125 270.238281 C 238.125 271.554688 237.054688 272.628906 235.734375 272.628906 " fill-opacity="1" fill-rule="nonzero"/><path fill="#b44822" d="M 235.734375 279.59375 C 234.414062 279.59375 233.339844 278.519531 233.339844 277.199219 C 233.339844 275.878906 234.414062 274.804688 235.734375 274.804688 C 237.054688 274.804688 238.125 275.878906 238.125 277.199219 C 238.125 278.519531 237.054688 279.59375 235.734375 279.59375 " fill-opacity="1" fill-rule="nonzero"/><path fill="#b44822" d="M 242.332031 272.628906 C 241.011719 272.628906 239.9375 271.554688 239.9375 270.238281 C 239.9375 268.914062 241.011719 267.84375 242.332031 267.84375 C 243.65625 267.84375 244.726562 268.914062 244.726562 270.238281 C 244.726562 271.554688 243.65625 272.628906 242.332031 272.628906 " fill-opacity="1" fill-rule="nonzero"/><path fill="#b44822" d="M 242.332031 279.59375 C 241.011719 279.59375 239.9375 278.519531 239.9375 277.199219 C 239.9375 275.878906 241.011719 274.804688 242.332031 274.804688 C 243.65625 274.804688 244.726562 275.878906 244.726562 277.199219 C 244.726562 278.519531 243.65625 279.59375 242.332031 279.59375 " fill-opacity="1" fill-rule="nonzero"/><path fill="#f46c25" d="M 297.65625 231.59375 C 297.664062 231.113281 297.652344 230.386719 297.871094 229.839844 L 297.871094 227.664062 L 277.851562 227.664062 C 276.890625 227.859375 275.929688 228.042969 274.953125 228.132812 C 273.433594 228.285156 272.117188 227.816406 270.644531 227.664062 L 268.425781 227.664062 L 268.425781 240.773438 C 268.484375 241.132812 268.496094 241.496094 268.433594 241.867188 L 268.425781 241.929688 L 268.425781 242.351562 C 268.460938 242.691406 268.566406 243.019531 268.605469 243.363281 C 268.625 243.53125 268.496094 243.734375 268.425781 243.921875 L 268.425781 244.269531 C 268.539062 244.484375 268.519531 244.6875 268.425781 244.855469 L 268.425781 246.085938 L 289.84375 246.085938 C 289.9375 245.898438 290.121094 245.753906 290.402344 245.757812 C 291.238281 245.773438 292.058594 245.292969 292.894531 245.421875 C 293.53125 245.515625 294.070312 245.953125 294.679688 246.085938 L 297.871094 246.085938 L 297.871094 234.203125 C 297.691406 233.359375 297.648438 232.4375 297.65625 231.59375 " fill-opacity="1" fill-rule="nonzero"/><path fill="#e45b23" d="M 287.035156 250.015625 C 287.039062 249.535156 287.027344 248.8125 287.246094 248.265625 L 287.246094 246.085938 L 267.230469 246.085938 C 266.269531 246.277344 265.304688 246.464844 264.328125 246.558594 C 262.8125 246.703125 261.488281 246.242188 260.019531 246.085938 L 257.800781 246.085938 L 257.800781 259.195312 C 257.855469 259.554688 257.867188 259.914062 257.804688 260.289062 L 257.800781 260.351562 L 257.800781 260.773438 C 257.835938 261.109375 257.941406 261.445312 257.980469 261.789062 C 258 261.953125 257.871094 262.160156 257.800781 262.34375 L 257.800781 262.691406 C 257.914062 262.90625 257.898438 263.113281 257.800781 263.273438 L 257.800781 264.507812 L 279.214844 264.507812 C 279.3125 264.320312 279.496094 264.175781 279.777344 264.183594 C 280.152344 264.1875 280.523438 264.09375 280.894531 264 C 281.351562 263.886719 281.808594 263.773438 282.269531 263.839844 C 282.90625 263.9375 283.445312 264.378906 284.054688 264.507812 L 287.246094 264.507812 L 287.246094 252.625 C 287.0625 251.78125 287.023438 250.863281 287.035156 250.015625 " fill-opacity="1" fill-rule="nonzero"/><path fill="#b44822" d="M 262.621094 254.210938 C 261.300781 254.210938 260.230469 253.136719 260.230469 251.816406 C 260.230469 250.492188 261.300781 249.421875 262.621094 249.421875 C 263.945312 249.421875 265.015625 250.492188 265.015625 251.816406 C 265.015625 253.136719 263.945312 254.210938 262.621094 254.210938 " fill-opacity="1" fill-rule="nonzero"/><path fill="#b44822" d="M 262.621094 261.171875 C 261.300781 261.171875 260.230469 260.101562 260.230469 258.78125 C 260.230469 257.457031 261.300781 256.386719 262.621094 256.386719 C 263.945312 256.386719 265.015625 257.457031 265.015625 258.78125 C 265.015625 260.101562 263.945312 261.171875 262.621094 261.171875 " fill-opacity="1" fill-rule="nonzero"/><path fill="#b44822" d="M 269.222656 254.210938 C 267.902344 254.210938 266.828125 253.136719 266.828125 251.816406 C 266.828125 250.492188 267.902344 249.421875 269.222656 249.421875 C 270.542969 249.421875 271.613281 250.492188 271.613281 251.816406 C 271.613281 253.136719 270.542969 254.210938 269.222656 254.210938 " fill-opacity="1" fill-rule="nonzero"/><path fill="#b44822" d="M 269.222656 261.171875 C 267.902344 261.171875 266.828125 260.101562 266.828125 258.78125 C 266.828125 257.457031 267.902344 256.386719 269.222656 256.386719 C 270.542969 256.386719 271.613281 257.457031 271.613281 258.78125 C 271.613281 260.101562 270.542969 261.171875 269.222656 261.171875 " fill-opacity="1" fill-rule="nonzero"/><path fill="#b44822" d="M 275.820312 254.210938 C 274.5 254.210938 273.429688 253.136719 273.429688 251.816406 C 273.429688 250.492188 274.5 249.421875 275.820312 249.421875 C 277.144531 249.421875 278.214844 250.492188 278.214844 251.816406 C 278.214844 253.136719 277.144531 254.210938 275.820312 254.210938 " fill-opacity="1" fill-rule="nonzero"/><path fill="#b44822" d="M 275.820312 261.171875 C 274.5 261.171875 273.429688 260.101562 273.429688 258.78125 C 273.429688 257.457031 274.5 256.386719 275.820312 256.386719 C 277.144531 256.386719 278.214844 257.457031 278.214844 258.78125 C 278.214844 260.101562 277.144531 261.171875 275.820312 261.171875 " fill-opacity="1" fill-rule="nonzero"/><path fill="#b44822" d="M 282.421875 254.210938 C 281.101562 254.210938 280.027344 253.136719 280.027344 251.816406 C 280.027344 250.492188 281.101562 249.421875 282.421875 249.421875 C 283.746094 249.421875 284.816406 250.492188 284.816406 251.816406 C 284.816406 253.136719 283.746094 254.210938 282.421875 254.210938 " fill-opacity="1" fill-rule="nonzero"/><path fill="#b44822" d="M 282.421875 261.171875 C 281.101562 261.171875 280.027344 260.101562 280.027344 258.78125 C 280.027344 257.457031 281.101562 256.386719 282.421875 256.386719 C 283.746094 256.386719 284.816406 257.457031 284.816406 258.78125 C 284.816406 260.101562 283.746094 261.171875 282.421875 261.171875 " fill-opacity="1" fill-rule="nonzero"/><path fill="#f46c25" d="M 228.566406 260.578125 C 228.5625 261.0625 228.570312 261.785156 228.351562 262.332031 L 228.351562 264.507812 L 248.371094 264.507812 C 249.332031 264.316406 250.296875 264.128906 251.269531 264.039062 C 252.789062 263.890625 254.109375 264.355469 255.578125 264.507812 L 257.800781 264.507812 L 257.800781 251.398438 C 257.742188 251.042969 257.730469 250.675781 257.792969 250.308594 L 257.800781 250.246094 L 257.800781 249.820312 C 257.761719 249.484375 257.65625 249.152344 257.617188 248.808594 C 257.597656 248.644531 257.730469 248.4375 257.800781 248.25 L 257.800781 247.90625 C 257.683594 247.691406 257.703125 247.484375 257.800781 247.320312 L 257.800781 246.085938 L 236.382812 246.085938 C 236.289062 246.277344 236.101562 246.417969 235.824219 246.414062 C 234.984375 246.398438 234.164062 246.878906 233.328125 246.753906 C 232.691406 246.65625 232.152344 246.214844 231.542969 246.085938 L 228.351562 246.085938 L 228.351562 257.96875 C 228.535156 258.816406 228.578125 259.734375 228.566406 260.578125 " fill-opacity="1" fill-rule="nonzero"/></svg>