<svg xmlns="http://www.w3.org/2000/svg" xmlns:xlink="http://www.w3.org/1999/xlink" width="500" zoomAndPan="magnify" viewBox="0 0 375 374.999991" height="500" preserveAspectRatio="xMidYMid meet" version="1.0"><defs><clipPath id="ebcec83442"><path d="M 14.214844 14.214844 L 360.785156 14.214844 L 360.785156 360.785156 L 14.214844 360.785156 Z M 14.214844 14.214844 " clip-rule="nonzero"/></clipPath><clipPath id="e00b6bcf03"><path d="M 187.5 14.214844 C 91.796875 14.214844 14.214844 91.796875 14.214844 187.5 C 14.214844 283.203125 91.796875 360.785156 187.5 360.785156 C 283.203125 360.785156 360.785156 283.203125 360.785156 187.5 C 360.785156 91.796875 283.203125 14.214844 187.5 14.214844 Z M 187.5 14.214844 " clip-rule="nonzero"/></clipPath><clipPath id="b35d730929"><path d="M 86 189 L 156 189 L 156 259.625 L 86 259.625 Z M 86 189 " clip-rule="nonzero"/></clipPath><clipPath id="614b6cb339"><path d="M 207 189 L 277 189 L 277 259.625 L 207 259.625 Z M 207 189 " clip-rule="nonzero"/></clipPath><clipPath id="d95e36ec60"><path d="M 149 115.625 L 247 115.625 L 247 139 L 149 139 Z M 149 115.625 " clip-rule="nonzero"/></clipPath><clipPath id="de5582124d"><path d="M 85 132 L 305.558594 132 L 305.558594 202 L 85 202 Z M 85 132 " clip-rule="nonzero"/></clipPath><clipPath id="ec9384dd07"><path d="M 69.308594 178 L 72 178 L 72 189 L 69.308594 189 Z M 69.308594 178 " clip-rule="nonzero"/></clipPath></defs><g clip-path="url(#ebcec83442)"><g clip-path="url(#e00b6bcf03)"><path fill="#f2f4f3" d="M 14.214844 14.214844 L 360.785156 14.214844 L 360.785156 360.785156 L 14.214844 360.785156 Z M 14.214844 14.214844 " fill-opacity="1" fill-rule="nonzero"/></g></g><g clip-path="url(#b35d730929)"><path fill="#231f20" d="M 117.785156 259.5 C 117.707031 259.074219 117.578125 258.652344 117.5625 258.226562 C 117.535156 257.4375 117.121094 257.164062 116.359375 257.085938 C 115.53125 257 114.683594 256.875 113.898438 256.617188 C 112.765625 256.246094 111.898438 256.21875 111.527344 257.578125 C 111.359375 258.195312 110.882812 258.203125 110.34375 258 C 109.332031 257.621094 108.328125 257.207031 107.285156 256.925781 C 106.257812 256.648438 106.035156 256.0625 106.421875 255.210938 C 106.90625 254.128906 106.523438 253.535156 105.464844 253.121094 C 104.878906 252.890625 104.3125 252.546875 103.824219 252.152344 C 102.835938 251.347656 101.9375 250.957031 101.023438 252.238281 C 100.683594 252.710938 100.285156 252.535156 99.898438 252.199219 C 99.234375 251.625 98.566406 251.050781 97.855469 250.53125 C 96.757812 249.730469 96.238281 248.882812 97.367188 247.722656 C 97.832031 247.246094 97.695312 246.851562 97.261719 246.367188 C 96.394531 245.394531 95.464844 244.460938 94.867188 243.277344 C 94.421875 242.402344 93.941406 242.921875 93.496094 243.296875 C 92.792969 243.890625 92.347656 243.976562 91.933594 242.929688 C 91.535156 241.910156 90.890625 240.964844 90.253906 240.050781 C 89.738281 239.3125 89.859375 238.832031 90.628906 238.445312 C 91.660156 237.921875 91.839844 237.214844 91.289062 236.207031 C 90.949219 235.578125 90.707031 234.867188 90.574219 234.167969 C 90.347656 232.988281 89.9375 232.183594 88.480469 232.523438 C 87.859375 232.664062 87.597656 232.320312 87.554688 231.726562 C 87.496094 230.960938 87.371094 230.203125 87.277344 229.441406 C 86.96875 228.207031 86.921875 227.070312 88.230469 226.28125 C 88.636719 226.035156 88.6875 225.554688 88.683594 225.109375 C 88.679688 224.335938 88.777344 223.574219 88.917969 222.8125 C 89.078125 221.976562 88.941406 221.285156 87.980469 220.960938 C 87.074219 220.65625 86.855469 219.9375 87 219.097656 C 87.132812 218.335938 87.242188 217.574219 87.324219 216.808594 C 87.464844 215.511719 87.757812 214.414062 89.484375 214.53125 C 90.039062 214.570312 90.355469 214.152344 90.558594 213.675781 C 90.863281 212.964844 91.171875 212.257812 91.449219 211.535156 C 91.78125 210.679688 91.792969 209.984375 91.003906 209.34375 C 90.390625 208.847656 90.339844 208.195312 90.769531 207.527344 C 91.21875 206.832031 91.519531 206.066406 91.90625 205.339844 C 92.675781 203.90625 93.035156 203.75 94.710938 204.035156 C 94.902344 204.070312 94.65625 204.050781 94.855469 204.074219 C 96.0625 204.214844 98.550781 201.230469 98.03125 200.152344 C 97.449219 198.941406 97.828125 198.125 98.824219 197.414062 C 99.304688 197.074219 99.742188 196.683594 100.167969 196.28125 C 101.042969 195.453125 101.945312 195.050781 103 196.027344 C 103.445312 196.4375 103.96875 196.449219 104.511719 196.1875 C 105.222656 195.851562 105.9375 195.523438 106.617188 195.128906 C 107.308594 194.722656 107.753906 194.191406 107.605469 193.355469 C 107.429688 192.378906 107.953125 191.8125 108.765625 191.398438 C 109.734375 190.90625 110.78125 190.613281 111.820312 190.308594 C 112.535156 190.097656 113.128906 190.296875 113.453125 190.933594 C 113.941406 191.890625 114.675781 192.070312 115.664062 191.835938 C 116.238281 191.699219 116.839844 191.726562 117.429688 191.636719 C 118.285156 191.511719 118.933594 191.226562 119.003906 190.242188 C 119.058594 189.464844 119.628906 189.214844 120.34375 189.1875 C 121.234375 189.152344 122.125 189.199219 123.011719 189.167969 C 124.289062 189.121094 125.28125 189.390625 125.382812 190.886719 C 125.414062 191.371094 125.722656 191.667969 126.226562 191.757812 C 127.148438 191.925781 128.066406 192.121094 128.988281 192.273438 C 129.730469 192.398438 130.21875 192.03125 130.601562 191.484375 C 131.070312 190.820312 131.675781 190.710938 132.417969 190.960938 C 133.210938 191.230469 134 191.511719 134.792969 191.773438 C 136.015625 192.179688 136.773438 192.8125 136.4375 194.21875 C 136.289062 194.851562 136.648438 195.320312 137.167969 195.6875 C 137.847656 196.167969 138.609375 196.519531 139.300781 196.988281 C 139.910156 197.40625 140.488281 197.429688 141.035156 196.910156 C 141.765625 196.214844 142.425781 196.441406 143.132812 196.96875 C 143.882812 197.527344 144.542969 198.175781 145.242188 198.78125 C 146.058594 199.492188 146.503906 200.277344 145.707031 201.289062 C 145.589844 201.4375 145.683594 201.226562 145.632812 201.410156 C 145.101562 203.304688 147.152344 203.90625 147.703125 205.273438 C 147.980469 205.964844 148.667969 205.800781 149.238281 205.511719 C 149.917969 205.160156 150.378906 205.460938 150.726562 206 C 151.28125 206.855469 151.863281 207.695312 152.289062 208.621094 C 152.84375 209.550781 152.941406 210.40625 151.96875 211.175781 C 151.460938 211.578125 151.40625 212.167969 151.566406 212.761719 C 151.824219 213.742188 152.269531 214.65625 152.601562 215.613281 C 152.738281 216.011719 153.058594 216.222656 153.472656 216.3125 C 153.761719 216.375 154.089844 216.367188 154.324219 216.527344 C 155.84375 217.566406 155.46875 219.273438 155.804688 220.710938 C 156.019531 221.625 155.703125 222.421875 154.667969 222.777344 C 153.742188 223.09375 153.421875 223.773438 153.472656 224.699219 C 153.507812 225.367188 153.480469 226.042969 153.480469 226.714844 C 153.386719 227.519531 153.785156 227.964844 154.5625 228.183594 C 155.480469 228.445312 155.75 229.0625 155.59375 229.972656 C 155.4375 230.875 155.222656 231.765625 155.101562 232.671875 C 154.949219 233.835938 154.46875 234.558594 153.128906 234.484375 C 152.519531 234.449219 152.113281 234.804688 151.917969 235.367188 C 151.609375 236.234375 151.261719 237.082031 150.964844 237.949219 C 150.71875 238.671875 150.753906 239.25 151.410156 239.742188 C 152.074219 240.234375 152.070312 240.859375 151.726562 241.546875 C 151.335938 242.324219 150.90625 243.082031 150.507812 243.859375 C 149.710938 245.410156 149.53125 245.492188 147.78125 245.140625 C 147.238281 245.03125 146.816406 245.109375 146.449219 245.515625 C 145.769531 246.277344 145.144531 247.085938 144.449219 247.835938 C 144.003906 248.316406 144.234375 248.832031 144.460938 249.324219 C 144.882812 250.238281 144.734375 250.992188 143.871094 251.601562 C 143.3125 251.996094 142.84375 252.503906 142.324219 252.945312 C 141.351562 253.769531 140.394531 254.335938 139.265625 253.160156 C 138.9375 252.816406 138.460938 252.78125 138.03125 253.019531 C 137.085938 253.539062 136.121094 254.027344 135.148438 254.5 C 134.464844 254.835938 134.664062 255.398438 134.792969 255.886719 C 135.085938 257.015625 134.609375 257.621094 133.519531 257.917969 C 132.902344 258.082031 132.277344 258.265625 131.699219 258.53125 C 130.46875 259.097656 129.414062 259.078125 128.644531 257.8125 C 128.324219 257.285156 127.828125 257.167969 127.238281 257.265625 C 126.800781 257.339844 126.367188 257.496094 125.925781 257.496094 C 124.480469 257.503906 123.496094 258.085938 123.117188 259.5 C 121.339844 259.503906 119.5625 259.5 117.785156 259.5 Z M 117.785156 259.5 " fill-opacity="1" fill-rule="nonzero"/></g><g clip-path="url(#614b6cb339)"><path fill="#231f20" d="M 232.523438 190.808594 C 233.332031 190.554688 233.738281 190.996094 233.945312 191.65625 C 234.230469 192.5625 234.832031 192.652344 235.660156 192.449219 C 236.328125 192.285156 237.015625 192.1875 237.703125 192.125 C 238.917969 192.015625 240.128906 191.984375 239.925781 190.25 C 239.851562 189.636719 240.382812 189.625 240.851562 189.628906 C 241.640625 189.632812 242.4375 189.699219 243.21875 189.617188 C 244.613281 189.46875 245.628906 189.664062 245.515625 191.375 C 245.472656 192.003906 245.972656 192.132812 246.503906 192.207031 C 247.285156 192.316406 248.089844 192.375 248.828125 192.617188 C 250.074219 193.023438 251.121094 193.199219 251.566406 191.597656 C 251.726562 191.027344 252.164062 191.117188 252.640625 191.304688 C 253.644531 191.703125 254.652344 192.121094 255.699219 192.386719 C 256.734375 192.648438 256.949219 193.195312 256.589844 194.074219 C 256.160156 195.113281 256.429688 195.78125 257.546875 196.1875 C 258.136719 196.402344 258.6875 196.773438 259.1875 197.15625 C 260.167969 197.90625 261.074219 198.40625 261.992188 197.082031 C 262.191406 196.796875 262.535156 196.636719 262.882812 196.9375 C 263.882812 197.789062 264.875 198.640625 265.867188 199.496094 C 266.597656 200.128906 266.335938 200.753906 265.808594 201.335938 C 265.210938 201.996094 265.261719 202.511719 265.921875 203.15625 C 266.652344 203.863281 267.425781 204.640625 267.8125 205.539062 C 268.367188 206.816406 269.085938 206.617188 269.8125 205.953125 C 270.421875 205.390625 270.589844 205.445312 270.90625 206.15625 C 271.238281 206.902344 271.707031 207.59375 272.167969 208.277344 C 272.9375 209.414062 273.660156 210.492188 271.785156 211.328125 C 271.199219 211.585938 271.394531 212.152344 271.546875 212.605469 C 271.816406 213.429688 272.203125 214.222656 272.398438 215.058594 C 272.679688 216.25 273.058594 217.15625 274.613281 216.796875 C 275.285156 216.640625 275.40625 217.1875 275.480469 217.695312 C 275.601562 218.5 275.671875 219.324219 275.878906 220.113281 C 276.214844 221.402344 276.335938 222.492188 274.5 222.648438 C 273.882812 222.699219 273.773438 223.15625 273.792969 223.707031 C 273.820312 224.621094 273.84375 225.542969 273.757812 226.449219 C 273.648438 227.621094 273.574219 228.667969 275.234375 228.757812 C 275.820312 228.789062 275.867188 229.234375 275.78125 229.722656 C 275.550781 231.003906 275.3125 232.28125 275.152344 233.570312 C 275.039062 234.480469 274.402344 234.347656 273.839844 234.253906 C 272.839844 234.085938 272.265625 234.371094 272.054688 235.402344 C 271.910156 236.105469 271.664062 236.804688 271.332031 237.441406 C 270.71875 238.613281 270.410156 239.636719 271.953125 240.363281 C 272.441406 240.59375 272.25 240.964844 272.039062 241.335938 C 271.449219 242.386719 270.851562 243.4375 270.339844 244.527344 C 269.957031 245.34375 269.433594 245.484375 268.722656 245.015625 C 267.761719 244.382812 267.128906 244.703125 266.554688 245.558594 C 266.234375 246.035156 265.832031 246.488281 265.394531 246.867188 C 264.402344 247.710938 263.675781 248.53125 264.804688 249.800781 C 265.289062 250.34375 264.996094 250.832031 264.4375 251.234375 C 263.84375 251.660156 263.28125 252.136719 262.734375 252.621094 C 261.835938 253.417969 260.988281 254.269531 259.910156 252.796875 C 259.746094 252.574219 259.3125 252.300781 258.859375 252.539062 C 257.601562 253.199219 256.320312 253.820312 255.070312 254.492188 C 254.539062 254.78125 254.792969 255.285156 254.921875 255.660156 C 255.355469 256.890625 254.917969 257.53125 253.636719 257.777344 C 253.0625 257.886719 252.488281 258.089844 251.96875 258.355469 C 250.753906 258.972656 249.835938 258.953125 249.425781 257.457031 C 249.261719 256.867188 248.851562 256.785156 248.277344 256.910156 C 247.410156 257.097656 246.527344 257.328125 245.652344 257.324219 C 243.960938 257.316406 243.410156 258.085938 243.710938 259.613281 C 241.835938 259.613281 239.957031 259.613281 238.082031 259.609375 C 237.492188 259.121094 237.996094 258.058594 237.125 257.765625 C 236.007812 257.394531 234.851562 257.128906 233.667969 256.996094 C 233.089844 256.929688 232.769531 257.296875 232.472656 257.703125 C 232.140625 258.160156 231.703125 258.511719 231.109375 258.410156 C 229.695312 258.160156 228.324219 257.753906 227.089844 257.023438 C 226.433594 256.636719 226.417969 255.980469 226.582031 255.347656 C 226.8125 254.4375 226.464844 253.871094 225.632812 253.492188 C 225.09375 253.246094 224.59375 252.929688 224.117188 252.585938 C 223.414062 252.082031 222.734375 251.890625 221.976562 252.503906 C 221.292969 253.058594 220.609375 252.929688 219.96875 252.390625 C 219.449219 251.953125 218.894531 251.546875 218.355469 251.125 C 217.175781 250.214844 216.296875 249.265625 217.421875 247.75 C 217.671875 247.410156 217.582031 247.003906 217.34375 246.660156 C 216.683594 245.699219 215.898438 244.832031 215.167969 243.921875 C 214.78125 243.4375 214.292969 243.570312 213.832031 243.8125 C 213.027344 244.242188 212.546875 243.910156 212.167969 243.210938 C 211.609375 242.191406 211.019531 241.191406 210.433594 240.1875 C 210.042969 239.519531 210.03125 238.898438 210.734375 238.410156 C 211.664062 237.761719 211.691406 236.925781 211.320312 235.976562 C 211.089844 235.390625 210.902344 234.792969 210.707031 234.195312 C 210.488281 233.539062 210.097656 233.089844 209.347656 233.078125 C 208.214844 233.066406 207.75 232.484375 207.789062 231.429688 C 207.886719 230.363281 207.449219 229.351562 207.460938 228.289062 C 207.46875 227.785156 207.453125 227.25 207.945312 227.015625 C 209.257812 226.394531 209.375 225.308594 209.265625 224.101562 C 209.28125 223.671875 209.246094 223.230469 209.335938 222.8125 C 209.53125 221.910156 209.21875 221.324219 208.3125 221.03125 C 207.378906 220.726562 207.140625 220.070312 207.425781 219.207031 C 207.683594 218.425781 207.828125 217.621094 207.933594 216.816406 C 208.09375 215.605469 208.519531 214.691406 209.980469 214.628906 C 210.574219 214.605469 210.941406 214.195312 211.164062 213.671875 C 211.386719 213.136719 211.496094 212.554688 211.769531 212.050781 C 212.335938 211.003906 212.421875 210.0625 211.425781 209.207031 C 211.246094 209.054688 211.203125 208.785156 211.175781 208.542969 C 211.484375 207.109375 212.273438 205.886719 213.039062 204.664062 C 213.476562 203.964844 214.152344 203.726562 214.953125 204.105469 C 215.652344 204.441406 216.160156 204.242188 216.613281 203.667969 C 217.003906 203.171875 217.46875 202.726562 217.953125 202.324219 C 218.757812 201.652344 219.136719 200.953125 218.492188 199.957031 C 218.195312 199.492188 218.183594 198.90625 218.535156 198.445312 C 219.433594 197.28125 220.644531 196.4375 221.84375 195.605469 C 222.289062 195.296875 222.824219 195.53125 223.207031 195.867188 C 224.003906 196.570312 224.789062 196.480469 225.628906 195.945312 C 226.082031 195.660156 226.578125 195.433594 227.074219 195.222656 C 227.960938 194.847656 228.40625 194.265625 228.179688 193.292969 C 227.941406 192.277344 228.507812 191.78125 229.410156 191.480469 C 230.425781 191.144531 231.429688 190.777344 232.523438 190.808594 Z M 232.523438 190.808594 " fill-opacity="1" fill-rule="nonzero"/></g><g clip-path="url(#d95e36ec60)"><path fill="#603912" d="M 236.925781 134.191406 C 235.691406 133.460938 234.46875 132.566406 234.003906 131.222656 C 233.570312 129.964844 232.773438 129.683594 231.625 129.578125 C 230.792969 129.5 229.964844 129.320312 229.164062 129.089844 C 228.558594 128.914062 228.042969 128.941406 227.453125 129.164062 C 223.929688 130.496094 220.5 130.300781 217.21875 128.414062 C 216.742188 128.136719 216.308594 127.984375 215.90625 128.441406 C 215.042969 129.414062 214.761719 128.746094 214.304688 128.023438 C 211.898438 124.230469 208.699219 121.507812 203.984375 120.824219 C 203.042969 120.6875 202.304688 120.835938 201.503906 121.359375 C 198.761719 123.144531 195.617188 123.539062 192.824219 122.757812 C 192.242188 122.726562 191.625 122.625 190.957031 122.558594 C 189.335938 122.402344 187.929688 121.953125 186.503906 121.152344 C 185.777344 120.742188 185.019531 120.257812 184.398438 119.699219 C 183.800781 119.160156 183.453125 118.175781 182.84375 117.710938 C 182.242188 117.257812 181.023438 117.253906 180.296875 116.871094 C 179.695312 116.554688 179.140625 116.164062 178.566406 115.800781 C 178.347656 115.777344 178.148438 115.726562 177.96875 115.652344 C 177.898438 115.675781 177.8125 115.699219 177.707031 115.730469 C 177.5 115.832031 177.28125 115.894531 177.046875 115.917969 C 176.65625 116 176.265625 116.011719 175.875 116.121094 C 175.0625 116.351562 174.3125 116.75 173.507812 117.007812 C 173.492188 117.011719 173.472656 117.015625 173.457031 117.019531 C 171.511719 118.402344 170.015625 120.296875 168.703125 122.398438 C 168.351562 122.960938 168.007812 122.992188 167.386719 122.890625 C 163.867188 122.332031 160.597656 122.78125 157.449219 124.691406 C 152.472656 127.714844 150.191406 132.0625 149.96875 137.621094 C 150.789062 138.636719 151.957031 138.292969 152.992188 138.292969 C 183.019531 138.339844 213.050781 138.363281 243.078125 138.390625 C 243.667969 138.390625 244.261719 138.410156 244.851562 138.351562 C 245.398438 138.292969 245.9375 138.207031 246.207031 137.636719 C 242.90625 137.023438 239.800781 135.886719 236.925781 134.191406 Z M 236.925781 134.191406 " fill-opacity="1" fill-rule="nonzero"/></g><g clip-path="url(#de5582124d)"><path fill="#fedd17" d="M 149.96875 137.621094 C 150.550781 137.675781 151.136719 137.78125 151.722656 137.78125 C 182.535156 137.816406 213.351562 137.84375 244.160156 137.871094 C 244.851562 137.871094 245.546875 137.914062 246.207031 137.636719 C 249.214844 137.886719 252.21875 137.898438 255.222656 137.640625 C 264.027344 137.28125 272.832031 137.5625 281.636719 137.480469 C 282.429688 137.472656 283.210938 137.523438 283.980469 137.695312 C 285.53125 138.117188 287.117188 137.847656 288.6875 137.875 C 289.464844 137.890625 289.949219 138.078125 290.320312 138.785156 C 294.492188 146.6875 298.6875 154.578125 302.878906 162.464844 C 303.582031 163.78125 304.28125 165.101562 305.046875 166.386719 C 305.453125 167.070312 305.5625 167.390625 304.582031 167.675781 C 295.746094 170.21875 286.632812 171.671875 277.769531 174.0625 C 268.851562 176.464844 259.730469 178.015625 250.835938 180.441406 C 244.847656 182.074219 238.769531 183.25 232.757812 184.742188 C 232.421875 184.824219 232.101562 184.953125 231.777344 185.058594 C 230.703125 185.847656 229.378906 185.886719 228.152344 186.195312 C 221.808594 187.792969 215.480469 189.449219 209.070312 190.785156 C 205.550781 191.519531 202.007812 192.203125 198.5625 193.195312 C 191.175781 195.316406 183.636719 196.78125 176.15625 198.496094 C 172.84375 199.253906 169.660156 200.457031 166.308594 201.03125 C 164.550781 201.335938 164.210938 201.132812 163.367188 199.632812 C 160.113281 193.859375 156.914062 188.0625 153.617188 182.316406 C 153.144531 181.488281 152.476562 180.722656 152.574219 179.675781 C 151.65625 177.546875 150.304688 175.644531 149.25 173.578125 C 147.585938 170.3125 145.625 167.1875 143.832031 163.980469 C 139.824219 156.8125 135.789062 149.65625 131.875 142.4375 C 129.367188 137.820312 129.453125 137.777344 124.15625 137.773438 C 111.714844 137.761719 99.269531 137.734375 86.824219 137.765625 C 85.5 137.769531 85.042969 137.460938 85.070312 136.085938 C 85.148438 132.5625 85.074219 132.5625 88.609375 132.5625 C 107.226562 132.582031 125.839844 132.613281 144.457031 132.582031 C 145.863281 132.578125 146.34375 132.992188 146.136719 134.285156 C 146.121094 134.378906 146.132812 134.476562 146.132812 134.574219 C 146.132812 138.179688 146.207031 138.238281 149.96875 137.621094 Z M 149.96875 137.621094 " fill-opacity="1" fill-rule="nonzero"/></g><path fill="#414142" d="M 152.574219 179.675781 C 155.164062 184.304688 157.753906 188.9375 160.347656 193.566406 C 161.597656 195.800781 162.886719 198.015625 164.101562 200.261719 C 164.511719 201.019531 165.050781 200.902344 165.714844 200.769531 C 169.898438 199.917969 173.929688 198.496094 178.121094 197.640625 C 183.476562 196.550781 188.84375 195.449219 194.105469 194.003906 C 203.304688 191.480469 212.714844 189.8125 221.9375 187.410156 C 225.207031 186.558594 228.457031 185.683594 231.777344 185.054688 C 231.792969 186.59375 231.804688 188.128906 231.824219 189.664062 C 231.828125 190.175781 231.691406 190.777344 232.523438 190.808594 C 231.472656 191.167969 230.433594 191.5625 229.371094 191.878906 C 228.644531 192.09375 228.234375 192.363281 228.542969 193.203125 C 228.941406 194.28125 228.613281 195.050781 227.441406 195.460938 C 226.796875 195.6875 226.144531 195.972656 225.601562 196.371094 C 224.632812 197.085938 223.820312 197.046875 223.035156 196.148438 C 222.535156 195.582031 222.050781 195.660156 221.53125 196.164062 C 221.042969 196.632812 220.523438 197.082031 219.976562 197.484375 C 218.410156 198.632812 218.3125 198.84375 219.238281 200.519531 C 219.59375 201.160156 219.300781 201.484375 218.914062 201.886719 C 218.078125 202.761719 217.089844 203.503906 216.414062 204.527344 C 215.953125 205.222656 215.425781 204.738281 215.015625 204.496094 C 214.199219 204.003906 213.648438 204.152344 213.234375 204.972656 C 212.648438 206.125 212.050781 207.269531 211.460938 208.414062 C 211.265625 209.304688 210.671875 209.675781 209.773438 209.6875 C 207.855469 209.710938 205.9375 209.664062 204.019531 209.695312 C 202.8125 209.714844 202.503906 208.574219 201.636719 208.1875 C 201.269531 207.746094 201.308594 207.210938 201.292969 206.691406 C 201.277344 206.21875 201.355469 205.714844 200.757812 205.492188 C 198.59375 205.257812 196.429688 205.4375 194.273438 205.390625 C 193.199219 205.367188 192.902344 205.96875 193.015625 206.871094 C 193.5 210.792969 193.160156 214.726562 193.242188 218.652344 C 193.257812 219.363281 193.339844 220.097656 192.914062 220.75 C 192.773438 220.894531 192.613281 220.921875 192.433594 220.828125 C 191.972656 220.246094 192.050781 219.554688 192.046875 218.890625 C 192.03125 216.105469 192.054688 213.320312 192.042969 210.535156 C 192.039062 209.980469 192.164062 209.382812 191.699219 208.808594 C 191.105469 209.117188 191.195312 209.675781 191.195312 210.148438 C 191.167969 217.929688 191.175781 225.707031 191.152344 233.484375 C 191.148438 234.40625 191.4375 235.0625 192.347656 235.386719 C 192.515625 235.507812 192.558594 235.660156 192.480469 235.84375 C 191.789062 235.851562 191.097656 235.855469 190.40625 235.863281 C 189.628906 234.863281 190.082031 233.703125 189.953125 232.617188 C 189.941406 228.707031 189.902344 224.800781 189.984375 220.890625 C 189.925781 216.558594 189.980469 212.226562 189.96875 207.894531 C 189.960938 205.390625 189.964844 205.386719 187.464844 205.382812 C 183.222656 205.375 178.980469 205.375 174.734375 205.371094 C 171.988281 205.371094 171.988281 205.371094 171.417969 207.863281 C 170.644531 208.539062 169.8125 208.351562 168.96875 208.023438 C 168.863281 207.863281 168.785156 207.691406 168.75 207.503906 C 168.351562 205.34375 168.351562 205.320312 166.042969 205.347656 C 164.292969 205.363281 162.535156 205.214844 160.792969 205.445312 C 159.832031 206.082031 160.609375 207.167969 160.125 207.925781 C 159.421875 208.261719 159.445312 209.214844 158.703125 209.519531 C 157.003906 209.816406 155.292969 209.644531 153.585938 209.640625 C 152.839844 209.640625 152.289062 209.28125 151.917969 208.652344 C 151.570312 208.074219 151.195312 207.507812 150.882812 206.910156 C 150.410156 206.015625 149.957031 205.273438 148.769531 206.128906 C 148.140625 206.578125 147.699219 206.214844 147.382812 205.59375 C 146.917969 204.683594 146.304688 203.851562 145.535156 203.183594 C 144.664062 202.425781 144.679688 201.6875 145.445312 200.984375 C 146.125 200.363281 145.835938 199.875 145.375 199.410156 C 144.722656 198.757812 144.023438 198.152344 143.316406 197.554688 C 142.507812 196.875 141.695312 196.328125 140.855469 197.578125 C 140.527344 198.0625 140.054688 197.96875 139.566406 197.632812 C 138.886719 197.160156 138.15625 196.753906 137.433594 196.351562 C 136.316406 195.730469 135.484375 195.035156 136.15625 193.59375 C 136.378906 193.113281 136.140625 192.667969 135.554688 192.46875 C 134.765625 192.203125 133.984375 191.90625 133.207031 191.601562 C 132.121094 191.179688 131.082031 190.757812 130.496094 192.304688 C 130.292969 192.84375 129.671875 192.792969 129.1875 192.722656 C 128.027344 192.550781 126.871094 192.328125 125.714844 192.125 C 124.992188 192 124.921875 191.464844 124.972656 190.917969 C 125.0625 189.808594 124.5 189.464844 123.453125 189.542969 C 122.816406 189.589844 122.171875 189.558594 121.53125 189.546875 C 120.367188 189.53125 119.03125 189.253906 119.289062 191.148438 C 119.332031 191.453125 119.082031 191.738281 118.777344 191.785156 C 117.28125 192.019531 115.777344 192.265625 114.269531 192.398438 C 113.589844 192.457031 113.496094 191.730469 113.285156 191.277344 C 112.957031 190.570312 112.542969 190.355469 111.777344 190.683594 C 111.0625 190.992188 110.277344 191.148438 109.550781 191.441406 C 108.539062 191.851562 107.460938 192.214844 108.046875 193.707031 C 108.269531 194.273438 107.988281 194.8125 107.335938 195.117188 C 106.585938 195.46875 105.84375 195.859375 105.148438 196.3125 C 104.125 196.976562 103.242188 197.160156 102.40625 196.019531 C 101.902344 195.332031 101.339844 195.800781 100.886719 196.148438 C 100.113281 196.742188 99.382812 197.386719 98.636719 198.011719 C 97.988281 198.550781 97.71875 199.152344 98.351562 199.871094 C 99.101562 200.722656 98.863281 201.40625 98.039062 202.066406 C 97.546875 202.460938 97.039062 202.886719 96.695312 203.402344 C 96.019531 204.421875 95.34375 205.136719 94.054688 204.226562 C 93.527344 203.851562 93.089844 204.140625 92.824219 204.589844 C 92.140625 205.75 91.480469 206.925781 90.851562 208.113281 C 90.484375 208.800781 91.167969 209.105469 91.546875 209.355469 C 92.335938 209.871094 92.40625 210.375 91.964844 211.152344 C 91.636719 211.730469 91.453125 212.390625 91.261719 213.03125 C 90.878906 214.332031 90.308594 215.335938 88.621094 214.984375 C 88.144531 214.886719 87.960938 215.222656 87.894531 215.679688 C 87.730469 216.859375 87.511719 218.035156 87.316406 219.214844 C 87.1875 219.984375 87.390625 220.605469 88.273438 220.695312 C 89.183594 220.785156 89.433594 221.269531 89.371094 222.058594 C 89.269531 223.347656 88.953125 224.617188 89.066406 225.925781 C 89.089844 226.175781 88.976562 226.4375 88.722656 226.511719 C 87.152344 226.984375 87.273438 228.238281 87.277344 229.441406 C 87.175781 229.128906 86.964844 228.804688 86.992188 228.507812 C 87.140625 227.03125 86.308594 226.695312 85.039062 226.800781 C 84.382812 226.433594 84.542969 225.796875 84.542969 225.25 C 84.535156 218.171875 84.546875 211.089844 84.546875 204.011719 C 84.546875 203.164062 84.699219 202.375 85.289062 201.730469 C 86.734375 200.140625 87.851562 198.316406 89.207031 196.660156 C 92.535156 192.601562 95.929688 188.597656 99.101562 184.421875 C 100.164062 183.023438 101.441406 182.445312 103.253906 182.457031 C 115.050781 182.527344 126.847656 182.53125 138.644531 182.496094 C 140.304688 182.492188 141.492188 182.9375 142.578125 184.25 C 146.574219 189.074219 150.535156 193.925781 154.691406 198.625 C 155.585938 199.636719 156.414062 200.71875 157.273438 201.773438 C 157.804688 202.421875 158.417969 202.628906 159.222656 202.421875 C 160.132812 202.1875 161.042969 201.980469 161.964844 201.808594 C 162.988281 201.621094 163.097656 201.136719 162.628906 200.273438 C 160.597656 196.53125 158.332031 192.917969 156.238281 189.210938 C 154.785156 186.636719 153.304688 184.085938 151.789062 181.550781 C 151.472656 181.019531 151.078125 180.476562 151.433594 179.804688 C 151.816406 179.757812 152.195312 179.71875 152.574219 179.675781 Z M 152.574219 179.675781 " fill-opacity="1" fill-rule="nonzero"/><path fill="#603912" d="M 283.980469 137.695312 C 283.535156 137.976562 283.027344 137.90625 282.542969 137.90625 C 273.964844 137.902344 265.386719 137.894531 256.808594 137.882812 C 256.269531 137.882812 255.714844 137.941406 255.222656 137.640625 C 258.347656 137.007812 261.316406 135.949219 264.066406 134.375 C 265.6875 133.445312 267.128906 132.277344 267.640625 130.367188 C 267.75 129.964844 268.050781 129.867188 268.421875 129.859375 C 269.527344 130.050781 270.6875 130.066406 271.636719 130.78125 C 274.96875 131.53125 278.085938 132.769531 280.914062 134.660156 C 282.132812 135.476562 283.210938 136.441406 283.980469 137.695312 Z M 283.980469 137.695312 " fill-opacity="1" fill-rule="nonzero"/><path fill="#c3b4a7" d="M 271.636719 130.78125 C 270.460938 130.824219 269.535156 130.039062 268.421875 129.859375 C 269.558594 129.957031 270.871094 129.460938 271.636719 130.78125 Z M 271.636719 130.78125 " fill-opacity="1" fill-rule="nonzero"/><path fill="#fedd17" d="M 151.433594 179.800781 C 151.640625 180.285156 151.792969 180.800781 152.058594 181.253906 C 154.214844 184.925781 156.410156 188.570312 158.554688 192.246094 C 160.207031 195.082031 161.773438 197.96875 163.421875 200.804688 C 163.878906 201.59375 163.730469 201.925781 162.828125 202.027344 C 162.386719 202.078125 161.960938 202.210938 161.527344 202.304688 C 157.5 203.160156 157.042969 202.886719 154.734375 199.414062 C 153.726562 197.894531 152.347656 196.609375 151.164062 195.195312 C 148.046875 191.488281 144.914062 187.789062 141.855469 184.035156 C 141.101562 183.109375 140.292969 182.785156 139.09375 182.785156 C 126.902344 182.8125 114.710938 182.796875 102.519531 182.753906 C 101.484375 182.75 100.769531 183.023438 100.125 183.824219 C 96.148438 188.773438 92.101562 193.667969 88.160156 198.636719 C 87.289062 199.734375 86.5 200.898438 85.558594 201.9375 C 85.074219 202.472656 85.0625 203.054688 85.0625 203.683594 C 85.058594 211.390625 85.050781 219.09375 85.042969 226.800781 C 84.808594 226.828125 84.570312 226.855469 84.335938 226.886719 C 83.824219 226.386719 83.867188 225.738281 83.867188 225.121094 C 83.859375 209.429688 83.890625 193.738281 83.902344 178.046875 C 83.902344 177.519531 83.898438 176.984375 84.261719 176.53125 C 91.609375 176.519531 98.960938 176.503906 106.3125 176.492188 C 106.753906 176.492188 107.203125 176.464844 107.644531 176.5 C 108.648438 176.582031 108.808594 176.191406 108.523438 175.304688 C 107.320312 171.589844 106.175781 167.859375 105 164.140625 C 103.457031 159.273438 101.933594 154.398438 100.34375 149.546875 C 99.964844 148.386719 100.3125 148.152344 101.457031 148.160156 C 111.226562 148.199219 121 148.210938 130.769531 148.183594 C 131.820312 148.179688 132.273438 148.53125 132.703125 149.476562 C 133.9375 152.199219 135.316406 154.859375 136.722656 157.503906 C 137.171875 158.351562 137.363281 159.179688 137.359375 160.117188 C 137.332031 165.125 137.367188 170.132812 137.308594 175.136719 C 137.296875 176.207031 137.589844 176.566406 138.714844 176.542969 C 141.625 176.476562 144.542969 176.625 147.449219 176.492188 C 148.894531 176.425781 149.757812 176.851562 150.335938 178.101562 C 150.613281 178.707031 151.0625 179.238281 151.433594 179.800781 Z M 151.433594 179.800781 " fill-opacity="1" fill-rule="nonzero"/><path fill="#221d1f" d="M 84.257812 176.53125 C 84.265625 186.824219 84.265625 197.117188 84.277344 207.410156 C 84.285156 213.902344 84.3125 220.394531 84.332031 226.882812 C 84.300781 228.128906 84.257812 229.375 84.242188 230.621094 C 84.238281 231.105469 84.171875 231.460938 83.542969 231.46875 C 82.90625 231.480469 82.839844 231.128906 82.835938 230.640625 C 82.828125 229.394531 82.789062 228.148438 82.765625 226.902344 C 82.464844 225.722656 81.667969 225.386719 80.480469 225.457031 C 79.121094 225.542969 77.746094 225.53125 76.382812 225.457031 C 75.253906 225.398438 74.621094 225.804688 74.488281 226.914062 C 74.449219 228.148438 74.40625 229.386719 74.378906 230.621094 C 74.367188 231.074219 74.378906 231.472656 73.710938 231.457031 C 73.070312 231.441406 73.027344 231.074219 73.023438 230.601562 C 73.007812 229.367188 72.972656 228.128906 72.945312 226.890625 C 72.585938 226.277344 72.597656 225.597656 72.597656 224.925781 C 72.605469 209.480469 72.621094 194.042969 72.644531 178.601562 C 72.648438 177.890625 72.542969 177.140625 73.097656 176.539062 C 73.539062 176.425781 73.980469 176.371094 74.421875 176.550781 C 74.539062 176.707031 74.625 176.875 74.660156 177.066406 C 75.074219 179.253906 75.074219 179.253906 77.402344 179.253906 C 78.574219 179.257812 79.753906 179.230469 80.929688 179.265625 C 81.941406 179.300781 82.527344 178.988281 82.480469 177.894531 C 82.457031 177.417969 82.515625 176.929688 82.902344 176.5625 C 83.351562 176.425781 83.804688 176.425781 84.257812 176.53125 Z M 84.257812 176.53125 " fill-opacity="1" fill-rule="nonzero"/><path fill="#f4da1c" d="M 73.097656 176.539062 C 73.082031 192.796875 73.0625 209.058594 73.039062 225.320312 C 73.039062 225.84375 72.980469 226.367188 72.945312 226.890625 C 71.929688 227.027344 71.859375 226.433594 71.863281 225.660156 C 71.890625 221.429688 71.882812 217.199219 71.882812 212.964844 C 71.890625 205.464844 71.898438 197.960938 71.90625 190.460938 C 71.90625 189.839844 71.984375 189.207031 71.699219 188.613281 C 71.269531 187.355469 71.476562 186.050781 71.5 184.773438 C 71.546875 182.632812 71.230469 180.480469 71.695312 178.355469 C 72.289062 177.84375 71.234375 176.117188 73.097656 176.539062 Z M 73.097656 176.539062 " fill-opacity="1" fill-rule="nonzero"/><g clip-path="url(#ec9384dd07)"><path fill="#b29f25" d="M 71.695312 178.355469 C 72.191406 179.414062 71.9375 180.535156 71.910156 181.617188 C 71.847656 183.949219 72.207031 186.296875 71.699219 188.617188 C 71.257812 188.625 70.816406 188.613281 70.378906 188.648438 C 69.597656 188.714844 69.34375 188.339844 69.347656 187.628906 C 69.367188 184.855469 69.308594 182.082031 69.382812 179.3125 C 69.429688 177.523438 70.859375 178.535156 71.695312 178.355469 Z M 71.695312 178.355469 " fill-opacity="1" fill-rule="nonzero"/></g><path fill="#f9d918" d="M 82.902344 176.5625 C 82.882812 179.648438 82.882812 179.648438 79.761719 179.648438 C 78.488281 179.644531 77.203125 179.566406 75.9375 179.664062 C 74.691406 179.761719 74.242188 179.308594 74.402344 178.125 C 74.476562 177.609375 74.421875 177.074219 74.421875 176.550781 C 77.25 176.402344 80.078125 176.398438 82.902344 176.5625 Z M 82.902344 176.5625 " fill-opacity="1" fill-rule="nonzero"/><path fill="#fcdc16" d="M 74.488281 226.914062 C 74.25 225 74.25 225 76.167969 225 C 77.789062 225.003906 79.414062 225.003906 81.03125 225.007812 C 82.929688 225.011719 82.929688 225.011719 82.765625 226.902344 C 80.007812 226.90625 77.246094 226.910156 74.488281 226.914062 Z M 74.488281 226.914062 " fill-opacity="1" fill-rule="nonzero"/><path fill="#f9dc16" d="M 104.449219 224.550781 C 104.40625 215.351562 111.742188 207.414062 121.296875 207.457031 C 130.894531 207.5 138.09375 215.445312 138.050781 224.671875 C 138.007812 233.910156 130.796875 241.804688 121.160156 241.757812 C 111.566406 241.714844 104.371094 233.800781 104.449219 224.550781 Z M 104.449219 224.550781 " fill-opacity="1" fill-rule="nonzero"/><path fill="#313133" d="M 151.917969 208.652344 C 152.496094 209.144531 153.164062 209.269531 153.929688 209.25 C 155.621094 209.203125 157.316406 209.230469 159.011719 209.230469 C 159.417969 209.589844 159.457031 210.066406 159.457031 210.550781 C 159.460938 214.519531 159.457031 218.492188 159.445312 222.460938 C 159.445312 222.847656 159.398438 223.226562 159.207031 223.570312 C 158.464844 224.367188 157.472656 224.097656 156.566406 224.113281 C 154.238281 224.15625 154.238281 224.136719 153.71875 226.25 C 153.660156 226.488281 153.523438 226.691406 153.375 226.882812 C 153.300781 226.9375 153.214844 226.964844 153.121094 226.964844 C 153.105469 226.148438 153.101562 225.335938 153.078125 224.523438 C 153.046875 223.460938 153.34375 222.625 154.558594 222.390625 C 155.246094 222.257812 155.570312 221.863281 155.453125 221.171875 C 155.242188 219.902344 155.050781 218.632812 154.804688 217.371094 C 154.683594 216.765625 154.140625 216.710938 153.632812 216.757812 C 152.652344 216.851562 152.25 216.433594 152.089844 215.488281 C 151.953125 214.703125 151.539062 213.960938 151.25 213.199219 C 150.855469 212.167969 150.816406 211.265625 151.992188 210.617188 C 153.167969 209.96875 151.835938 209.316406 151.917969 208.652344 Z M 151.917969 208.652344 " fill-opacity="1" fill-rule="nonzero"/><path fill="#f9dc17" d="M 224.984375 224.671875 C 224.925781 215.527344 232.199219 207.5625 241.796875 207.566406 C 251.304688 207.574219 258.578125 215.503906 258.589844 224.699219 C 258.605469 234.066406 251.105469 241.929688 241.710938 241.875 C 232.109375 241.824219 224.878906 233.84375 224.984375 224.671875 Z M 224.984375 224.671875 " fill-opacity="1" fill-rule="nonzero"/><path fill="#313032" d="M 201.679688 208.121094 C 202.09375 207.925781 202.664062 207.722656 202.75 208.3125 C 202.921875 209.472656 203.730469 209.28125 204.488281 209.28125 C 206.199219 209.285156 207.914062 209.238281 209.625 209.304688 C 210.460938 209.339844 211.023438 209.058594 211.457031 208.417969 C 211.464844 208.464844 211.449219 208.535156 211.480469 208.558594 C 213.761719 210.464844 211.867188 212.335938 211.398438 214.203125 C 211.226562 214.898438 210.597656 215.132812 209.882812 215.070312 C 208.992188 214.996094 208.589844 215.308594 208.441406 216.25 C 208.277344 217.328125 208.214844 218.445312 207.738281 219.46875 C 207.519531 219.945312 207.496094 220.464844 208.195312 220.582031 C 209.792969 220.859375 210.140625 221.773438 209.6875 223.167969 C 209.605469 223.433594 209.671875 223.742188 209.671875 224.03125 C 208.222656 224.347656 206.753906 224.105469 205.292969 224.140625 C 203.09375 224.195312 203.09375 224.160156 203.03125 226.257812 C 203.023438 226.5 202.988281 226.734375 202.875 226.953125 C 202.351562 229.449219 202.757812 231.972656 202.644531 234.480469 C 202.609375 235.171875 202.6875 235.863281 201.660156 235.84375 C 200.640625 235.230469 200.847656 234.242188 201.015625 233.382812 C 201.226562 232.332031 201.25 231.289062 201.25 230.234375 C 201.257812 223.550781 201.257812 216.871094 201.277344 210.1875 C 201.28125 209.480469 201.105469 208.726562 201.679688 208.121094 Z M 201.679688 208.121094 " fill-opacity="1" fill-rule="nonzero"/><path fill="#404042" d="M 202.871094 226.949219 C 202.671875 226.5625 202.574219 226.160156 202.558594 225.714844 C 202.492188 223.867188 202.605469 223.683594 204.445312 223.75 C 206.1875 223.816406 207.957031 223.433594 209.671875 224.027344 C 209.65625 225.324219 210.0625 226.789062 208.144531 227.253906 C 207.628906 227.378906 207.871094 227.851562 207.855469 228.226562 C 207.816406 229.375 208.441406 230.472656 208.132812 231.640625 C 207.871094 230.324219 207.558594 229.015625 207.378906 227.691406 C 207.300781 227.117188 207.105469 226.976562 206.566406 226.984375 C 205.335938 227 204.105469 226.960938 202.871094 226.949219 Z M 202.871094 226.949219 " fill-opacity="1" fill-rule="nonzero"/><path fill="#939598" d="M 190.367188 232.671875 C 190.378906 233.734375 190.390625 234.800781 190.402344 235.863281 C 190.40625 238.65625 190.710938 238.199219 187.984375 238.210938 C 182.859375 238.230469 177.738281 238.183594 172.617188 238.222656 C 171.582031 238.230469 170.980469 238.046875 171.175781 236.894531 C 171.296875 236.175781 170.941406 235.835938 170.222656 235.800781 C 170.621094 234.648438 170.683594 233.464844 170.679688 232.253906 C 170.667969 224.988281 170.679688 217.71875 170.703125 210.453125 C 170.703125 209.652344 170.527344 208.800781 171.140625 208.101562 C 171.296875 204.84375 171.296875 204.84375 174.636719 204.847656 C 179.46875 204.855469 184.300781 204.871094 189.132812 204.851562 C 189.988281 204.847656 190.503906 204.941406 190.488281 205.992188 C 190.410156 210.945312 190.402344 215.898438 190.367188 220.855469 C 189.699219 221.421875 188.878906 221.277344 188.109375 221.28125 C 183.378906 221.292969 178.652344 221.269531 173.921875 221.28125 C 172.03125 221.285156 171.933594 221.390625 171.921875 223.253906 C 171.910156 225.75 171.902344 228.25 171.917969 230.75 C 171.929688 232.335938 172.066406 232.484375 173.695312 232.492188 C 178.71875 232.515625 183.746094 232.511719 188.769531 232.511719 C 189.304688 232.511719 189.855469 232.417969 190.367188 232.671875 Z M 190.367188 232.671875 " fill-opacity="1" fill-rule="nonzero"/><path fill="#939498" d="M 201.679688 208.121094 C 201.679688 215.84375 201.660156 223.566406 201.6875 231.289062 C 201.695312 232.804688 201.070312 234.320312 201.660156 235.839844 C 201.535156 238.230469 201.535156 238.230469 199.070312 238.226562 C 197.496094 238.226562 195.921875 238.132812 194.355469 238.246094 C 192.992188 238.34375 192.296875 238.007812 192.539062 236.558594 C 192.574219 236.328125 192.5 236.082031 192.476562 235.847656 C 192.472656 235.753906 192.464844 235.660156 192.457031 235.566406 C 191.992188 235.054688 192.007812 234.421875 192.007812 233.800781 C 191.996094 230.066406 191.996094 226.335938 192.019531 222.601562 C 192.023438 221.988281 191.980469 221.339844 192.507812 220.859375 C 192.582031 220.824219 192.652344 220.789062 192.726562 220.757812 C 192.882812 220.859375 193 221 193.074219 221.171875 C 193.449219 223.847656 193.152344 226.539062 193.238281 229.222656 C 193.257812 229.800781 193.253906 230.378906 193.246094 230.953125 C 193.230469 231.871094 193.6875 232.238281 194.605469 232.234375 C 196.183594 232.222656 197.761719 232.199219 199.335938 232.246094 C 200.472656 232.28125 200.917969 231.824219 200.914062 230.71875 C 200.910156 227.402344 200.871094 224.085938 200.941406 220.769531 C 200.859375 216.042969 200.921875 211.316406 200.925781 206.589844 C 200.925781 206.019531 200.929688 205.433594 201.386719 204.976562 C 202.019531 205.976562 201.503906 207.082031 201.679688 208.121094 Z M 201.679688 208.121094 " fill-opacity="1" fill-rule="nonzero"/><path fill="#231f20" d="M 171.140625 208.101562 C 171.128906 214.5 171.109375 220.894531 171.109375 227.292969 C 171.109375 229.699219 171.125 232.105469 171.207031 234.507812 C 171.230469 235.277344 170.960938 235.664062 170.222656 235.800781 C 170.046875 235.800781 169.867188 235.800781 169.6875 235.800781 C 169 235.695312 168.710938 235.265625 168.664062 234.621094 C 168.609375 233.910156 168.617188 233.199219 168.648438 232.488281 C 168.710938 225.132812 168.558594 217.78125 168.621094 210.425781 C 168.628906 209.628906 168.445312 208.769531 169.117188 208.101562 C 169.792969 207.714844 170.46875 207.703125 171.140625 208.101562 Z M 171.140625 208.101562 " fill-opacity="1" fill-rule="nonzero"/><path fill="#939498" d="M 169.046875 232.660156 C 169.316406 233.695312 168.402344 234.960938 169.691406 235.800781 C 169.042969 235.921875 168.976562 236.394531 169.050781 236.894531 C 169.222656 238.039062 168.644531 238.261719 167.601562 238.21875 C 165.835938 238.148438 164.0625 238.195312 162.292969 238.191406 C 160.027344 238.1875 160.027344 238.1875 160.171875 235.886719 C 159.570312 234.808594 159.617188 233.71875 160.085938 232.613281 C 160.441406 232.308594 160.882812 232.230469 161.328125 232.234375 C 163.742188 232.25 166.15625 232.054688 168.5625 232.359375 C 168.742188 232.429688 168.902344 232.53125 169.046875 232.660156 Z M 169.046875 232.660156 " fill-opacity="1" fill-rule="nonzero"/><path fill="#404041" d="M 153.375 226.882812 C 153.414062 223.226562 152.933594 223.726562 156.65625 223.691406 C 157.4375 223.683594 158.21875 223.695312 159 223.699219 C 159.691406 224.710938 159.539062 225.757812 159.136719 226.816406 C 158.996094 226.972656 158.832031 227.003906 158.640625 226.910156 C 156.886719 226.902344 155.128906 226.890625 153.375 226.882812 Z M 153.375 226.882812 " fill-opacity="1" fill-rule="nonzero"/><path fill="#5d5c5d" d="M 158.640625 226.910156 C 158.773438 226.886719 158.902344 226.859375 159.035156 226.832031 C 159.800781 227.035156 159.558594 227.664062 159.582031 228.144531 C 159.621094 229.054688 159.589844 229.972656 159.589844 230.882812 C 159.589844 231.75 159.585938 232.613281 159.617188 233.480469 C 159.425781 225.703125 159.441406 217.925781 159.472656 210.148438 C 159.476562 209.445312 159.3125 208.691406 159.894531 208.09375 C 160.066406 207.035156 159.558594 205.914062 160.199219 204.902344 C 160.632812 205.363281 160.675781 205.941406 160.675781 206.523438 C 160.667969 211.277344 160.726562 216.027344 160.632812 220.78125 C 160.710938 224.191406 160.65625 227.601562 160.652344 231.011719 C 160.652344 231.589844 160.636719 232.175781 160.199219 232.640625 C 160.1875 233.722656 160.183594 234.804688 160.175781 235.886719 C 159.265625 235.96875 158.882812 235.644531 158.914062 234.683594 C 158.988281 232.589844 158.953125 230.492188 158.941406 228.398438 C 158.9375 227.890625 159.097656 227.335938 158.640625 226.910156 Z M 158.640625 226.910156 " fill-opacity="1" fill-rule="nonzero"/><path fill="#b19d23" d="M 207.671875 145.640625 C 202.339844 145.640625 197.007812 145.675781 191.675781 145.625 C 190.453125 145.613281 190.242188 145.8125 190.824219 146.929688 C 194.230469 153.515625 197.59375 160.121094 200.9375 166.734375 C 203.703125 172.207031 206.410156 177.710938 209.167969 183.1875 C 209.613281 184.066406 209.207031 184.253906 208.429688 184.421875 C 205.121094 185.144531 201.8125 185.882812 198.519531 186.671875 C 196.914062 187.054688 195.324219 187.519531 193.753906 188.019531 C 192.828125 188.3125 192.351562 187.980469 192.050781 187.171875 C 190.996094 184.324219 189.328125 181.765625 188.042969 179.019531 C 186.367188 175.445312 184.523438 171.945312 182.75 168.410156 C 181.175781 165.269531 179.613281 162.125 178.023438 158.988281 C 176 154.988281 173.925781 151.011719 171.945312 146.988281 C 171.453125 145.992188 170.882812 145.582031 169.703125 145.597656 C 164.476562 145.660156 159.25 145.617188 153.921875 145.613281 C 154.101562 146.277344 154.25 146.816406 154.398438 147.359375 C 153.980469 147.660156 153.550781 147.648438 153.308594 147.203125 C 152.921875 146.488281 152.925781 145.773438 153.601562 145.183594 C 154.292969 144.835938 155.042969 144.914062 155.777344 144.910156 C 159.96875 144.90625 164.160156 144.914062 168.355469 144.917969 C 169.199219 144.917969 170.054688 144.957031 170.613281 144.152344 C 174.914062 144.484375 179.21875 144.308594 183.527344 144.355469 C 185.480469 144.378906 187.429688 143.902344 189.386719 144.289062 C 190.566406 144.859375 191.820312 144.949219 193.121094 144.953125 C 197.707031 144.964844 202.289062 144.863281 206.875 145.015625 C 207.226562 145.117188 207.632812 145.15625 207.671875 145.640625 Z M 207.671875 145.640625 " fill-opacity="1" fill-rule="nonzero"/><path fill="#b19d23" d="M 207.671875 145.640625 C 207.460938 145.550781 207.25 145.460938 207.042969 145.371094 C 206.882812 144.890625 206.644531 144.394531 207.308594 144.074219 C 208.855469 144.710938 210.484375 144.402344 212.074219 144.425781 C 215.476562 144.476562 218.878906 144.433594 222.28125 144.457031 C 224.171875 144.46875 224.542969 144.808594 224.671875 146.597656 C 224.71875 147.226562 224.882812 147.789062 225.339844 148.273438 C 224.925781 147.339844 224.96875 146.339844 224.808594 145.371094 C 224.675781 144.566406 224.894531 144.046875 225.773438 143.910156 C 226.601562 143.992188 226.636719 144.886719 227.199219 145.242188 C 227.285156 145.359375 227.296875 145.484375 227.234375 145.613281 C 226.65625 146.179688 227.269531 146.605469 227.472656 147.011719 C 230.902344 153.863281 234.371094 160.691406 237.8125 167.535156 C 239.109375 170.117188 240.339844 172.730469 241.660156 175.304688 C 242.09375 176.15625 242.078125 176.527344 240.996094 176.761719 C 236.105469 177.816406 231.234375 178.949219 226.359375 180.050781 C 225.601562 180.222656 225.175781 180.027344 224.746094 179.253906 C 222.234375 174.695312 220.0625 169.972656 217.714844 165.335938 C 214.582031 159.148438 211.464844 152.953125 208.335938 146.761719 C 208.140625 146.375 207.894531 146.011719 207.671875 145.640625 Z M 207.671875 145.640625 " fill-opacity="1" fill-rule="nonzero"/><path fill="#b19d23" d="M 153.78125 145.335938 C 153.472656 146.160156 152.714844 147.113281 154.394531 147.363281 C 156.050781 149.808594 157.128906 152.546875 158.539062 155.121094 C 160.339844 158.414062 161.902344 161.828125 163.582031 165.1875 C 165.535156 169.109375 167.484375 173.027344 169.464844 176.9375 C 171.789062 181.53125 174.136719 186.117188 176.5 190.695312 C 176.863281 191.402344 176.90625 191.878906 175.972656 192.03125 C 173.414062 192.453125 170.953125 193.253906 168.488281 194.003906 C 167.789062 194.21875 167.433594 194.113281 167.074219 193.472656 C 163.589844 187.246094 160.039062 181.054688 156.582031 174.816406 C 154.414062 170.902344 152.210938 167.007812 150.023438 163.105469 C 147.5 158.609375 145.058594 154.066406 142.472656 149.601562 C 142.1875 149.109375 142.074219 148.523438 141.882812 147.980469 C 141.289062 147.15625 141.265625 146.078125 140.507812 145.308594 C 139.996094 144.785156 140.316406 144.332031 140.992188 144.175781 C 141.484375 144.0625 141.96875 144.214844 142.460938 144.242188 C 145.84375 144.421875 149.226562 144.539062 152.574219 143.863281 C 153.414062 144.011719 153.738281 144.5625 153.78125 145.335938 Z M 153.78125 145.335938 " fill-opacity="1" fill-rule="nonzero"/><path fill="#b19d23" d="M 227.230469 145.613281 C 227.234375 145.542969 227.234375 145.472656 227.234375 145.402344 C 227.851562 144.859375 228.621094 144.992188 229.34375 144.988281 C 233.375 144.976562 237.40625 144.992188 241.4375 144.992188 C 242.242188 144.992188 243.074219 145.035156 243.203125 143.949219 C 247.390625 144.59375 251.609375 144.386719 255.820312 144.445312 C 257.945312 144.476562 260.039062 144.308594 262.109375 143.878906 C 262.945312 143.925781 263.019531 144.621094 263.277344 145.167969 C 263.382812 145.445312 263.246094 145.738281 263.339844 146.015625 C 265.296875 149.832031 267.253906 153.644531 269.203125 157.460938 C 270.847656 160.675781 272.464844 163.90625 274.136719 167.109375 C 274.894531 168.566406 274.90625 168.757812 273.234375 169.148438 C 268.410156 170.28125 263.5625 171.324219 258.738281 172.445312 C 258.019531 172.613281 257.710938 172.277344 257.460938 171.789062 C 255.773438 168.488281 254.101562 165.179688 252.433594 161.871094 C 251.785156 160.582031 251.171875 159.273438 250.515625 157.984375 C 248.695312 154.386719 246.8125 150.820312 245.058594 147.191406 C 244.519531 146.082031 243.90625 145.652344 242.617188 145.667969 C 237.492188 145.71875 232.359375 145.640625 227.230469 145.613281 Z M 227.230469 145.613281 " fill-opacity="1" fill-rule="nonzero"/><path fill="#b19d23" d="M 263.34375 146.015625 C 263.121094 145.875 263.09375 145.660156 263.09375 145.425781 C 263.710938 144.882812 264.480469 145.015625 265.203125 145.015625 C 269.335938 145 273.46875 145.019531 277.597656 145.015625 C 278.171875 145.015625 278.765625 145.097656 279.394531 144.8125 C 278.753906 144.335938 278.101562 144.480469 277.492188 144.480469 C 273.210938 144.457031 268.929688 144.46875 264.652344 144.453125 C 263.925781 144.449219 263.160156 144.550781 262.535156 144.03125 C 256.09375 145.339844 249.652344 145.375 243.210938 144 C 242.65625 144.527344 241.941406 144.445312 241.265625 144.449219 C 236.851562 144.460938 232.441406 144.453125 228.027344 144.4375 C 227.347656 144.4375 226.644531 144.480469 226.074219 143.988281 C 225.445312 144.253906 224.792969 144.371094 225.234375 145.394531 C 225.625 146.316406 224.957031 147.597656 226.226562 148.277344 C 226.339844 148.339844 226.316406 148.664062 226.097656 148.765625 C 225.671875 148.957031 225.09375 149.027344 224.882812 148.644531 C 224.535156 148.015625 223.960938 147.347656 224.175781 146.589844 C 224.554688 145.265625 223.976562 144.835938 222.742188 144.835938 C 219.191406 144.835938 215.636719 144.777344 212.085938 144.863281 C 211.070312 144.886719 210.015625 144.371094 208.953125 145.125 C 208.648438 145.34375 207.886719 144.242188 207.078125 144.246094 C 206.570312 144.507812 206.023438 144.414062 205.488281 144.410156 C 200.339844 144.40625 195.191406 144.378906 190.042969 144.40625 C 189.796875 144.410156 189.554688 144.394531 189.328125 144.511719 C 187.695312 144.605469 186.0625 144.769531 184.429688 144.789062 C 180.828125 144.828125 177.226562 144.773438 173.625 144.804688 C 172.566406 144.816406 171.574219 144.648438 170.617188 144.21875 C 164.980469 144.550781 159.339844 144.355469 153.699219 144.289062 C 153.402344 144.285156 153.136719 144.128906 152.910156 143.929688 C 151.660156 145.15625 150.011719 144.613281 148.585938 144.699219 C 146.25 144.839844 143.875 145.027344 141.539062 144.492188 C 141.242188 144.425781 140.789062 144.328125 140.605469 144.695312 C 140.40625 145.089844 140.8125 145.300781 141.070312 145.484375 C 141.96875 146.132812 141.453125 147.195312 141.882812 147.976562 C 140.90625 147.054688 140.511719 145.773438 139.796875 144.691406 C 139.355469 144.027344 139.6875 143.710938 140.390625 143.648438 C 140.734375 143.617188 141.082031 143.636719 141.425781 143.636719 C 189.167969 143.679688 236.914062 143.726562 284.65625 143.738281 C 285.949219 143.738281 286.589844 144.195312 287.15625 145.269531 C 289.945312 150.566406 292.804688 155.824219 295.652344 161.089844 C 296.875 163.351562 296.894531 163.34375 294.445312 164.03125 C 294.070312 164.136719 293.683594 164.222656 293.300781 164.3125 C 290.324219 165.035156 290.171875 164.835938 288.902344 162.058594 C 287.203125 158.34375 285.285156 154.722656 283.46875 151.0625 C 282.742188 149.59375 282.019531 148.125 281.3125 146.652344 C 281.042969 146.089844 280.710938 145.714844 279.988281 145.71875 C 274.707031 145.734375 269.421875 145.722656 264.140625 145.71875 C 263.835938 145.71875 263.546875 145.761719 263.34375 146.015625 Z M 263.34375 146.015625 " fill-opacity="1" fill-rule="nonzero"/><path fill="#c0c1c4" d="M 190.367188 232.671875 C 189.933594 232.964844 189.445312 232.960938 188.945312 232.960938 C 183.570312 232.953125 178.195312 232.925781 172.820312 232.964844 C 171.742188 232.972656 171.347656 232.6875 171.371094 231.585938 C 171.441406 228.410156 171.421875 225.234375 171.390625 222.058594 C 171.378906 221.171875 171.59375 220.757812 172.617188 220.769531 C 178.53125 220.828125 184.449219 220.832031 190.367188 220.855469 C 190.367188 224.792969 190.367188 228.730469 190.367188 232.671875 Z M 190.367188 232.671875 " fill-opacity="1" fill-rule="nonzero"/><path fill="#a7a8ac" d="M 160.25 220.839844 C 160.234375 215.527344 160.21875 210.214844 160.199219 204.898438 C 162.707031 204.886719 165.210938 204.929688 167.710938 204.835938 C 168.855469 204.796875 169.199219 205.191406 169.085938 206.238281 C 169.019531 206.851562 169.101562 207.480469 169.121094 208.101562 C 169.117188 215.179688 169.117188 222.257812 169.109375 229.335938 C 169.109375 230.445312 169.070312 231.550781 169.046875 232.65625 C 169.046875 232.65625 168.90625 232.660156 168.90625 232.660156 L 168.765625 232.65625 C 168.265625 232.097656 168.320312 231.40625 168.316406 230.742188 C 168.304688 228.433594 168.316406 226.132812 168.316406 223.824219 C 168.316406 221.265625 168.316406 221.269531 165.757812 221.261719 C 164.480469 221.257812 163.199219 221.273438 161.917969 221.246094 C 161.335938 221.238281 160.730469 221.277344 160.25 220.839844 Z M 160.25 220.839844 " fill-opacity="1" fill-rule="nonzero"/><path fill="#a7a8ac" d="M 201.386719 204.980469 C 201.363281 210.289062 201.34375 215.601562 201.320312 220.914062 C 201.011719 221.1875 200.625 221.261719 200.234375 221.257812 C 197.761719 221.230469 195.289062 221.4375 192.820312 221.164062 C 192.789062 221.027344 192.761719 220.894531 192.730469 220.757812 C 192.667969 216.007812 192.929688 211.25 192.570312 206.5 C 192.476562 205.285156 192.777344 204.773438 194.160156 204.855469 C 196.5625 204.996094 198.976562 204.949219 201.386719 204.980469 Z M 201.386719 204.980469 " fill-opacity="1" fill-rule="nonzero"/><path fill="#221f20" d="M 192.511719 220.859375 C 192.527344 225.238281 192.550781 229.613281 192.5625 233.992188 C 192.5625 234.515625 192.492188 235.042969 192.457031 235.566406 C 191.058594 235.785156 190.644531 235.246094 190.65625 233.84375 C 190.738281 225.761719 190.710938 217.679688 190.726562 209.601562 C 190.726562 209.175781 190.6875 208.683594 190.886719 208.347656 C 191.109375 207.972656 191.6875 207.960938 192.09375 208.050781 C 192.582031 208.15625 192.472656 208.660156 192.472656 209.03125 C 192.492188 212.972656 192.5 216.917969 192.511719 220.859375 Z M 192.511719 220.859375 " fill-opacity="1" fill-rule="nonzero"/><path fill="#262224" d="M 159.898438 208.09375 C 159.890625 217.191406 159.878906 226.285156 159.871094 235.382812 C 159.125 235.011719 159.308594 234.472656 159.273438 233.996094 C 159.113281 231.609375 159.578125 229.207031 159.035156 226.835938 C 159.023438 225.789062 159.011719 224.746094 159 223.699219 C 159.003906 218.878906 159.007812 214.054688 159.011719 209.230469 C 159.160156 208.746094 158.65625 207.773438 159.898438 208.09375 Z M 159.898438 208.09375 " fill-opacity="1" fill-rule="nonzero"/><path fill="#7dcbec" d="M 127.359375 167.84375 C 124.792969 167.839844 122.222656 167.835938 119.652344 167.828125 C 118.867188 167.164062 118.664062 166.179688 118.339844 165.308594 C 117.1875 162.214844 116.257812 159.046875 115.019531 155.980469 C 114.832031 155.515625 115.054688 155.03125 114.941406 154.566406 C 115.21875 153.265625 115.273438 151.902344 116.117188 150.765625 C 117.585938 150.546875 119.066406 150.738281 120.539062 150.671875 C 121.328125 150.632812 121.640625 151.128906 121.957031 151.714844 C 122.882812 153.429688 123.316406 155.324219 124.011719 157.121094 C 125.144531 160.039062 126.167969 162.996094 127.261719 165.929688 C 127.488281 166.535156 127.867188 167.183594 127.359375 167.84375 Z M 127.359375 167.84375 " fill-opacity="1" fill-rule="nonzero"/><path fill="#b1dff1" d="M 127.359375 167.84375 C 127.179688 166.554688 126.636719 165.375 126.191406 164.164062 C 125.078125 161.125 123.988281 158.078125 122.839844 155.050781 C 122.292969 153.601562 122.199219 151.613281 120.769531 150.972656 C 119.464844 150.382812 117.683594 150.796875 116.113281 150.765625 C 117.910156 150.332031 119.734375 150.644531 121.542969 150.597656 C 123.464844 150.550781 125.394531 150.652344 127.316406 150.578125 C 128.457031 150.535156 128.867188 150.84375 128.847656 152.027344 C 128.777344 156.894531 128.773438 161.761719 128.835938 166.625 C 128.851562 167.800781 128.394531 168.058594 127.359375 167.84375 Z M 127.359375 167.84375 " fill-opacity="1" fill-rule="nonzero"/><path fill="#b0dff2" d="M 111.234375 158.957031 C 110.839844 161.734375 110.292969 164.476562 109.316406 167.210938 C 108.878906 165.902344 108.417969 164.597656 108.011719 163.28125 C 106.765625 159.300781 105.554688 155.304688 104.296875 151.324219 C 104.039062 150.507812 104.179688 150.15625 105.117188 150.210938 C 106.191406 150.28125 107.273438 150.28125 108.351562 150.3125 C 108.855469 152.492188 109.753906 154.554688 110.402344 156.691406 C 110.636719 157.449219 110.734375 158.28125 111.234375 158.957031 Z M 111.234375 158.957031 " fill-opacity="1" fill-rule="nonzero"/><path fill="#b0def1" d="M 114.941406 154.566406 C 116.511719 158.988281 118.082031 163.410156 119.652344 167.832031 C 117.671875 167.828125 115.691406 167.828125 113.710938 167.828125 C 112.730469 167.105469 112.910156 165.875 112.382812 164.953125 C 113.238281 161.492188 114.089844 158.027344 114.941406 154.566406 Z M 114.941406 154.566406 " fill-opacity="1" fill-rule="nonzero"/><path fill="#7ecbea" d="M 111.234375 158.957031 C 110.691406 159.183594 110.660156 158.710938 110.566406 158.445312 C 109.71875 156.050781 109.210938 153.542969 108.046875 151.261719 C 107.792969 150.761719 108.066406 150.570312 108.351562 150.3125 C 109.625 150.285156 110.898438 150.257812 112.171875 150.222656 C 112.8125 150.207031 113.0625 150.429688 112.894531 151.089844 C 112.238281 153.691406 112.023438 156.382812 111.234375 158.957031 Z M 111.234375 158.957031 " fill-opacity="1" fill-rule="nonzero"/><path fill="#84cde5" d="M 112.382812 164.953125 C 113.492188 165.617188 113.167969 166.910156 113.710938 167.828125 C 111.480469 167.976562 111.476562 167.976562 112.0625 165.894531 C 112.148438 165.578125 112.277344 165.265625 112.382812 164.953125 Z M 112.382812 164.953125 " fill-opacity="1" fill-rule="nonzero"/><path fill="#fcdb17" d="M 78.617188 198.441406 C 79.703125 198.445312 80.789062 198.480469 81.871094 198.433594 C 82.660156 198.402344 82.902344 198.710938 82.886719 199.449219 C 82.847656 201.375 82.847656 203.300781 82.878906 205.226562 C 82.890625 205.972656 82.621094 206.246094 81.847656 206.230469 C 79.726562 206.191406 77.605469 206.191406 75.484375 206.226562 C 74.648438 206.242188 74.355469 205.941406 74.375 205.128906 C 74.421875 203.253906 74.421875 201.375 74.378906 199.496094 C 74.359375 198.667969 74.683594 198.386719 75.507812 198.429688 C 76.542969 198.476562 77.578125 198.441406 78.617188 198.441406 Z M 78.617188 198.441406 " fill-opacity="1" fill-rule="nonzero"/><path fill="#fcdc17" d="M 78.519531 197.285156 C 77.4375 197.28125 76.355469 197.265625 75.277344 197.285156 C 74.652344 197.296875 74.390625 197.039062 74.394531 196.433594 C 74.410156 194.511719 74.410156 192.59375 74.398438 190.675781 C 74.394531 190.101562 74.582031 189.777344 75.238281 189.78125 C 77.5 189.796875 79.757812 189.800781 82.019531 189.789062 C 82.648438 189.785156 82.898438 190.027344 82.890625 190.640625 C 82.867188 192.558594 82.859375 194.476562 82.882812 196.394531 C 82.894531 197.089844 82.589844 197.316406 81.910156 197.296875 C 80.78125 197.261719 79.648438 197.285156 78.519531 197.285156 Z M 78.519531 197.285156 " fill-opacity="1" fill-rule="nonzero"/><path fill="#fcdc17" d="M 78.472656 214.878906 C 77.316406 214.683594 75.511719 215.519531 74.613281 214.527344 C 73.816406 213.644531 74.402344 211.949219 74.390625 210.613281 C 74.363281 207.382812 74.382812 207.382812 77.730469 207.386719 C 79.058594 207.390625 80.386719 207.417969 81.71875 207.382812 C 82.492188 207.363281 82.90625 207.542969 82.882812 208.417969 C 82.828125 210.242188 82.835938 212.066406 82.871094 213.894531 C 82.886719 214.660156 82.554688 214.914062 81.816406 214.890625 C 80.78125 214.855469 79.746094 214.878906 78.472656 214.878906 Z M 78.472656 214.878906 " fill-opacity="1" fill-rule="nonzero"/><path fill="#fbdc17" d="M 78.960938 181.128906 C 80.0625 181.324219 81.804688 180.503906 82.664062 181.46875 C 83.429688 182.324219 82.871094 183.957031 82.882812 185.242188 C 82.90625 188.601562 82.886719 188.601562 79.398438 188.597656 C 78.070312 188.597656 76.742188 188.570312 75.414062 188.597656 C 74.652344 188.613281 74.375 188.308594 74.394531 187.566406 C 74.429688 185.792969 74.445312 184.015625 74.390625 182.246094 C 74.359375 181.328125 74.769531 181.078125 75.621094 181.113281 C 76.652344 181.160156 77.6875 181.125 78.960938 181.128906 Z M 78.960938 181.128906 " fill-opacity="1" fill-rule="nonzero"/><path fill="#fcdc17" d="M 78.617188 223.550781 C 77.632812 223.550781 76.644531 223.507812 75.664062 223.558594 C 74.75 223.609375 74.308594 223.367188 74.351562 222.367188 C 74.425781 220.6875 74.414062 219.003906 74.363281 217.324219 C 74.339844 216.425781 74.582031 216.015625 75.597656 216.050781 C 77.617188 216.117188 79.636719 216.101562 81.65625 216.0625 C 82.507812 216.042969 82.910156 216.253906 82.875 217.179688 C 82.8125 218.910156 82.804688 220.640625 82.871094 222.367188 C 82.910156 223.351562 82.5 223.621094 81.570312 223.566406 C 80.585938 223.507812 79.601562 223.550781 78.617188 223.550781 Z M 78.617188 223.550781 " fill-opacity="1" fill-rule="nonzero"/><path fill="#b19d23" d="M 105.949219 224.507812 C 105.65625 216.429688 112.898438 208.867188 121.238281 208.851562 C 129.699219 208.839844 136.730469 216.640625 136.582031 224.792969 C 136.425781 233.21875 129.601562 240.371094 121.304688 240.363281 C 112.652344 240.351562 105.773438 233.152344 105.949219 224.507812 Z M 105.949219 224.507812 " fill-opacity="1" fill-rule="nonzero"/><path fill="#b19d23" d="M 226.535156 224.769531 C 226.144531 216.558594 233.296875 208.910156 241.777344 208.976562 C 250.207031 209.042969 257.191406 216.351562 257.125 224.777344 C 257.058594 233.25 250.242188 240.523438 241.628906 240.476562 C 233.246094 240.433594 226.1875 233.089844 226.535156 224.769531 Z M 226.535156 224.769531 " fill-opacity="1" fill-rule="nonzero"/><path fill="#5a5c5e" d="M 183.898438 211.429688 C 183.886719 213.347656 182.722656 214.484375 180.789062 214.472656 C 179.050781 214.464844 177.738281 213.101562 177.726562 211.300781 C 177.71875 209.632812 179.21875 208.15625 180.921875 208.15625 C 182.578125 208.15625 183.910156 209.621094 183.898438 211.429688 Z M 183.898438 211.429688 " fill-opacity="1" fill-rule="nonzero"/><path fill="#e5e6e8" d="M 192.820312 221.164062 C 193.679688 220.59375 194.644531 220.890625 195.558594 220.875 C 197.476562 220.84375 199.402344 220.894531 201.320312 220.914062 C 201.335938 224.523438 201.335938 228.136719 201.375 231.746094 C 201.386719 232.511719 201.082031 232.75 200.332031 232.738281 C 198.207031 232.703125 196.085938 232.6875 193.960938 232.738281 C 193.042969 232.761719 192.773438 232.4375 192.785156 231.566406 C 192.832031 228.097656 192.816406 224.628906 192.820312 221.164062 Z M 192.820312 221.164062 " fill-opacity="1" fill-rule="nonzero"/><path fill="#e5e6e8" d="M 160.25 220.839844 C 162.664062 220.835938 165.078125 220.882812 167.488281 220.816406 C 168.539062 220.785156 168.835938 221.148438 168.816406 222.136719 C 168.757812 225.644531 168.777344 229.152344 168.765625 232.660156 C 165.910156 232.652344 163.054688 232.648438 160.195312 232.640625 C 160.214844 228.707031 160.230469 224.773438 160.25 220.839844 Z M 160.25 220.839844 " fill-opacity="1" fill-rule="nonzero"/><path fill="#877619" d="M 152.910156 143.933594 C 158.339844 143.929688 163.765625 143.933594 169.195312 143.925781 C 169.695312 143.925781 170.179688 143.953125 170.621094 144.21875 C 171.070312 145.398438 170.269531 145.34375 169.476562 145.34375 C 164.246094 145.335938 159.011719 145.335938 153.78125 145.335938 C 153.523438 144.847656 152.839844 144.613281 152.910156 143.933594 Z M 152.910156 143.933594 " fill-opacity="1" fill-rule="nonzero"/><path fill="#877719" d="M 189.332031 144.511719 C 189.390625 143.871094 189.894531 143.953125 190.324219 143.953125 C 195.535156 143.953125 200.746094 143.957031 205.953125 143.980469 C 206.328125 143.980469 206.703125 144.15625 207.078125 144.246094 C 207.082031 144.621094 207.433594 145.007812 207.042969 145.371094 C 201.976562 145.367188 196.914062 145.339844 191.847656 145.382812 C 190.851562 145.390625 190.015625 145.230469 189.332031 144.511719 Z M 189.332031 144.511719 " fill-opacity="1" fill-rule="nonzero"/><path fill="#887719" d="M 226.074219 143.984375 C 231.789062 143.992188 237.503906 143.992188 243.214844 144 C 243.402344 144.367188 243.945312 144.636719 243.734375 145.113281 C 243.507812 145.613281 242.953125 145.402344 242.542969 145.402344 C 237.441406 145.410156 232.335938 145.40625 227.234375 145.398438 C 226.34375 145.324219 226.183594 144.675781 226.074219 143.984375 Z M 226.074219 143.984375 " fill-opacity="1" fill-rule="nonzero"/><path fill="#877719" d="M 262.539062 144.03125 C 267.902344 144.03125 273.269531 144.03125 278.636719 144.03125 C 278.882812 144.03125 279.128906 144.03125 279.375 144.042969 C 279.964844 144.058594 280.339844 144.417969 280.34375 144.933594 C 280.347656 145.566406 279.75 145.433594 279.339844 145.4375 C 276.632812 145.445312 273.925781 145.4375 271.21875 145.433594 C 268.511719 145.429688 265.800781 145.429688 263.09375 145.425781 C 262.882812 144.972656 262.507812 144.578125 262.539062 144.03125 Z M 262.539062 144.03125 " fill-opacity="1" fill-rule="nonzero"/><path fill="#fedd17" d="M 113.363281 224.441406 C 113.375 220.070312 116.972656 216.570312 121.289062 216.40625 C 125.441406 216.25 129.214844 220.71875 129.171875 224.6875 C 129.132812 228.417969 125.664062 232.835938 121.25 232.773438 C 116.867188 232.707031 113.355469 229.074219 113.363281 224.441406 Z M 113.363281 224.441406 " fill-opacity="1" fill-rule="nonzero"/><path fill="#fedd17" d="M 233.945312 224.605469 C 233.53125 221.023438 237.554688 216.402344 241.777344 216.484375 C 246.042969 216.570312 249.847656 220.894531 249.714844 224.75 C 249.566406 229.164062 246.0625 232.863281 241.707031 232.910156 C 237.074219 232.960938 233.59375 228.410156 233.945312 224.605469 Z M 233.945312 224.605469 " fill-opacity="1" fill-rule="nonzero"/><path fill="#ececec" d="M 182.765625 211.226562 C 182.789062 212.511719 182.097656 213.335938 180.9375 213.390625 C 179.71875 213.449219 178.90625 212.609375 178.890625 211.277344 C 178.878906 210.214844 179.726562 209.355469 180.816406 209.328125 C 181.910156 209.292969 182.742188 210.109375 182.765625 211.226562 Z M 182.765625 211.226562 " fill-opacity="1" fill-rule="nonzero"/></svg>