<svg xmlns="http://www.w3.org/2000/svg" xmlns:xlink="http://www.w3.org/1999/xlink" width="480" zoomAndPan="magnify" viewBox="0 0 360 135.000003" height="180" preserveAspectRatio="xMidYMid meet" version="1.0"><defs><clipPath id="84763247eb"><path d="M 300 6 L 358.675781 6 L 358.675781 21 L 300 21 Z M 300 6 " clip-rule="nonzero"/></clipPath><clipPath id="88d07c2dc1"><path d="M 129.117188 68 L 184 68 L 184 123.859375 L 129.117188 123.859375 Z M 129.117188 68 " clip-rule="nonzero"/></clipPath><clipPath id="b217a7a494"><path d="M 129.117188 68 L 183 68 L 183 123.859375 L 129.117188 123.859375 Z M 129.117188 68 " clip-rule="nonzero"/></clipPath><clipPath id="14cfbccbce"><path d="M 214 85 L 254 85 L 254 123.859375 L 214 123.859375 Z M 214 85 " clip-rule="nonzero"/></clipPath><clipPath id="089a71d450"><path d="M 214 85 L 253 85 L 253 123.859375 L 214 123.859375 Z M 214 85 " clip-rule="nonzero"/></clipPath><clipPath id="9db5539985"><path d="M 308 59 L 356.105469 59 L 356.105469 100 L 308 100 Z M 308 59 " clip-rule="nonzero"/></clipPath><clipPath id="8b03778fbc"><path d="M 310 59 L 356.105469 59 L 356.105469 100 L 310 100 Z M 310 59 " clip-rule="nonzero"/></clipPath><clipPath id="e9c4cb85f6"><path d="M 129.117188 60 L 190 60 L 190 105 L 129.117188 105 Z M 129.117188 60 " clip-rule="nonzero"/></clipPath><clipPath id="b846514f97"><path d="M 183 23.351562 L 187 23.351562 L 187 27 L 183 27 Z M 183 23.351562 " clip-rule="nonzero"/></clipPath><clipPath id="5f6870c9f0"><path d="M 183 23.351562 L 186 23.351562 L 186 27 L 183 27 Z M 183 23.351562 " clip-rule="nonzero"/></clipPath></defs><path stroke-linecap="round" transform="matrix(0.744485, -0.000000000000000092, 0.000000000000000092, 0.744485, 44.586051, 23.35218)" fill="none" stroke-linejoin="miter" d="M 9.502008 9.501331 L 103.935961 9.501331 " stroke="#e5e9e8" stroke-width="19" stroke-opacity="1" stroke-miterlimit="4"/><g clip-path="url(#84763247eb)"><path stroke-linecap="round" transform="matrix(0.744485, -0.000000000000000092, 0.000000000000000092, 0.744485, 300.618822, 6.328132)" fill="none" stroke-linejoin="miter" d="M 9.499965 9.502152 L 85.438547 9.502152 " stroke="#e5e9e8" stroke-width="19" stroke-opacity="1" stroke-miterlimit="4"/></g><path stroke-linecap="round" transform="matrix(0.744485, 0, 0, 0.744485, 53.940927, 109.439343)" fill="none" stroke-linejoin="miter" d="M 9.497558 9.499685 L 79.91114 9.499685 " stroke="#e5e9e8" stroke-width="19" stroke-opacity="1" stroke-miterlimit="4"/><path stroke-linecap="round" transform="matrix(0.744485, 0, 0, 0.744485, 6.566537, 67.003682)" fill="none" stroke-linejoin="miter" d="M 9.501985 9.502462 L 117.766802 9.502462 " stroke="#e5e9e8" stroke-width="19" stroke-opacity="1" stroke-miterlimit="4"/><path fill="#202022" d="M 207.90625 60.519531 L 208.554688 45.027344 L 207.308594 44.347656 L 210.359375 40.125 L 208.40625 38.996094 L 205.171875 43.519531 L 203.371094 42.839844 L 202.46875 59.871094 L 207.90625 60.519531 " fill-opacity="1" fill-rule="nonzero"/><path fill="#5e1f14" d="M 245.386719 79.660156 L 233.972656 103.511719 L 202.46875 101.355469 L 169.035156 101.355469 L 147.617188 100.191406 L 144.183594 64.921875 L 166.621094 59.871094 L 185.714844 82.523438 L 245.386719 79.660156 " fill-opacity="1" fill-rule="nonzero"/><path fill="#0d0e0e" d="M 182.070312 69.824219 C 181.957031 69.484375 183.421875 57.726562 182.070312 56.257812 C 180.71875 54.785156 169.332031 53.65625 169.332031 53.316406 C 169.332031 52.976562 166.40625 42.238281 164.714844 41.898438 C 163.023438 41.558594 163.699219 58.9375 163.699219 58.9375 L 182.070312 69.824219 " fill-opacity="1" fill-rule="nonzero"/><path fill="#0d0e0e" d="M 202.46875 58.441406 C 202.46875 58.441406 193.601562 54.210938 193.601562 54.441406 C 193.601562 54.671875 191.875 62.664062 191.875 62.664062 L 202.46875 79.09375 L 202.46875 58.441406 " fill-opacity="1" fill-rule="nonzero"/><path fill="#e6481e" d="M 177.902344 56.90625 C 179.703125 58.535156 187.519531 76.679688 187.519531 76.679688 L 199.988281 76.679688 L 198.9375 57.589844 L 188.117188 33.117188 C 184.25 31.054688 153.40625 33.117188 153.40625 33.117188 L 152.628906 54.898438 C 152.628906 54.898438 176.097656 55.277344 177.902344 56.90625 Z M 145.59375 29.046875 C 145.59375 29.046875 176.621094 25.84375 189.542969 29.460938 L 201.566406 57.589844 C 201.566406 57.589844 226.46875 58.105469 246.085938 63.46875 L 248.632812 84.4375 C 248.632812 84.4375 234.925781 79.546875 227.261719 81.398438 C 219.601562 83.25 214.320312 90.058594 214.320312 90.058594 L 210.019531 103.511719 L 188.570312 102.867188 C 188.570312 102.867188 188.417969 88.21875 184.8125 80.171875 C 181.207031 72.125 177.074219 69.292969 177.074219 69.292969 L 163.925781 63.46875 L 141.949219 65.511719 L 145.59375 29.046875 " fill-opacity="1" fill-rule="nonzero"/><path fill="#f46920" d="M 179.480469 59.425781 C 164.808594 58.234375 150.917969 57.109375 142.835938 56.457031 L 145.574219 29.0625 C 145.574219 29.0625 176.601562 25.859375 189.527344 29.476562 L 201.550781 57.605469 C 201.550781 57.605469 226.449219 58.121094 246.066406 63.484375 L 248.613281 84.453125 C 248.613281 84.453125 245.933594 83.496094 242.285156 82.589844 C 241.417969 79.246094 237.511719 64.378906 236.710938 64.179688 C 236.34375 64.089844 219.183594 62.667969 199.105469 61.027344 L 198.917969 57.605469 L 188.097656 33.132812 C 184.230469 31.070312 162.710938 33.050781 162.710938 33.050781 L 161.035156 55.152344 C 161.035156 55.152344 176.078125 55.292969 177.882812 56.921875 C 178.226562 57.234375 178.792969 58.152344 179.480469 59.425781 " fill-opacity="1" fill-rule="nonzero"/><g clip-path="url(#88d07c2dc1)"><path fill="#0d0e0e" d="M 129.1875 95.9375 C 129.1875 111.359375 141.289062 123.863281 156.210938 123.863281 C 171.136719 123.863281 183.234375 111.359375 183.234375 95.9375 C 183.234375 80.515625 171.136719 68.011719 156.210938 68.011719 C 141.289062 68.011719 129.1875 80.515625 129.1875 95.9375 " fill-opacity="1" fill-rule="nonzero"/></g><g clip-path="url(#b217a7a494)"><path fill="#202022" d="M 129.222656 94.546875 C 129.300781 92.902344 129.523438 91.296875 129.867188 89.738281 C 131.164062 89.574219 133.386719 89.269531 133.902344 89.023438 C 134.640625 88.667969 135.613281 85.753906 135.496094 84.929688 C 135.410156 84.308594 133.828125 82.445312 133.046875 81.554688 C 133.699219 80.441406 134.421875 79.378906 135.207031 78.375 C 136.253906 78.863281 137.617188 79.421875 138.261719 79.378906 C 139.390625 79.300781 141.144531 77.605469 141.296875 76.742188 C 141.40625 76.160156 140.828125 74.382812 140.4375 73.273438 C 141.839844 72.226562 143.34375 71.316406 144.933594 70.5625 C 145.835938 71.863281 147.292969 73.851562 147.765625 73.90625 C 148.464844 73.984375 151.773438 72.84375 152.085938 72.332031 C 152.285156 72.003906 152.402344 69.8125 152.464844 68.285156 C 153.691406 68.109375 154.941406 68.011719 156.214844 68.011719 C 156.421875 68.011719 156.628906 68.023438 156.835938 68.027344 C 156.894531 69.242188 157.035156 70.964844 157.378906 71.386719 C 157.925781 72.054688 161.234375 73.160156 162.171875 73 C 162.792969 72.894531 163.9375 70.789062 164.628906 69.398438 C 166.070312 69.886719 167.453125 70.496094 168.773438 71.210938 C 168.507812 72.5625 168.175781 74.429688 168.320312 74.65625 C 168.554688 75.007812 170.773438 77.449219 171.632812 77.765625 C 172.25 77.992188 174.234375 76.820312 175.285156 76.152344 C 176.273438 77.175781 177.1875 78.277344 178.015625 79.441406 C 177.285156 80.574219 176.039062 82.601562 176.148438 83.078125 C 176.304688 83.75 177.703125 87.488281 178.289062 87.722656 C 178.691406 87.886719 180.707031 87.542969 181.917969 87.316406 C 182.40625 88.875 182.765625 90.496094 182.984375 92.160156 C 181.75 92.601562 179.898438 93.316406 179.691406 93.707031 C 179.378906 94.296875 179.109375 98.90625 179.496094 99.652344 C 179.75 100.136719 181.332031 101.703125 182.421875 102.753906 C 181.996094 104.515625 181.40625 106.207031 180.667969 107.820312 C 179.398438 107.597656 177.324219 107.273438 176.925781 107.40625 C 176.34375 107.605469 175.214844 110.046875 175.40625 110.832031 C 175.535156 111.347656 176.203125 113.054688 176.660156 114.1875 C 175.589844 115.464844 174.410156 116.644531 173.136719 117.703125 C 172.261719 117.066406 170.625 115.910156 170.230469 115.910156 C 169.683594 115.910156 166.726562 117.644531 166.570312 118.117188 C 166.46875 118.421875 166.578125 120.355469 166.671875 121.695312 C 164.75 122.527344 162.71875 123.132812 160.605469 123.492188 C 160.082031 122.503906 159.238281 120.976562 158.898438 120.792969 C 158.394531 120.519531 154.617188 120.519531 154.03125 120.832031 C 153.65625 121.035156 152.769531 122.515625 152.183594 123.550781 C 150.367188 123.273438 148.609375 122.808594 146.933594 122.171875 C 146.992188 121.214844 147.125 118.785156 146.90625 118.3125 C 146.632812 117.722656 143.089844 115.996094 142.546875 115.976562 C 142.171875 115.957031 140.332031 116.992188 139.214844 117.640625 C 138.042969 116.660156 136.953125 115.578125 135.957031 114.414062 C 136.425781 113.234375 137.09375 111.394531 136.9375 110.871094 C 136.707031 110.085938 135.070312 107.421875 134.601562 107.375 C 134.289062 107.34375 132.742188 107.636719 131.761719 107.832031 C 131.0625 106.300781 130.492188 104.695312 130.070312 103.027344 C 130.957031 102.042969 132.203125 100.59375 132.226562 100.164062 C 132.265625 99.496094 132.382812 96.9375 132.03125 96.230469 C 131.792969 95.742188 130.203125 94.980469 129.222656 94.546875 " fill-opacity="1" fill-rule="nonzero"/></g><path fill="#0d0e0e" d="M 165.164062 83.25 C 165.164062 83.25 172.25 89.929688 172.328125 94.417969 C 172.40625 98.90625 164.695312 112.132812 159.480469 112.050781 C 154.261719 111.972656 142.113281 104.652344 141.957031 101.894531 C 141.800781 99.140625 144.0625 85.308594 146.085938 83.25 C 148.109375 81.1875 162.488281 80.40625 165.164062 83.25 " fill-opacity="1" fill-rule="nonzero"/><path fill="#e68825" d="M 164.695312 84.914062 C 164.695312 84.914062 169.835938 90.007812 169.835938 93.472656 C 169.835938 96.9375 165.683594 107.488281 161.582031 109.324219 C 157.480469 111.160156 144.96875 104.285156 144.292969 99.980469 C 143.621094 95.675781 146.109375 87.121094 148.289062 84.914062 C 150.472656 82.710938 162.703125 82.675781 164.695312 84.914062 " fill-opacity="1" fill-rule="nonzero"/><path fill="#b75c22" d="M 162.359375 86.019531 C 162.359375 86.019531 166.203125 90.953125 166.617188 93.472656 C 166.753906 94.289062 162.984375 106.382812 160.179688 106.804688 C 157.375 107.222656 148.082031 101.765625 147.617188 100.191406 C 147.148438 98.613281 148.289062 88.382812 149.277344 86.960938 C 150.265625 85.546875 160.804688 84.441406 162.359375 86.019531 " fill-opacity="1" fill-rule="nonzero"/><path fill="#1c1c1d" d="M 158.3125 91.691406 C 158.3125 91.691406 161.738281 94.472656 160.90625 97.464844 C 160.078125 100.457031 155.039062 100.246094 154.3125 99.878906 C 153.585938 99.511719 151.664062 96.941406 153.222656 94.210938 C 154.78125 91.480469 157.324219 91.167969 158.3125 91.691406 " fill-opacity="1" fill-rule="nonzero"/><path fill="#2e2f31" d="M 162.777344 79.769531 C 162.777344 79.769531 147.71875 79.40625 145.433594 81.398438 C 143.152344 83.390625 139.882812 96.71875 139.882812 99.058594 C 139.882812 101.394531 146.109375 112.054688 146.109375 112.054688 C 146.109375 112.054688 136.144531 108.167969 134.742188 104.175781 C 133.339844 100.1875 135.570312 83.917969 137.023438 81.871094 C 138.476562 79.824219 142.527344 75.988281 148.132812 75.308594 C 153.742188 74.625 162.777344 79.769531 162.777344 79.769531 " fill-opacity="1" fill-rule="nonzero"/><g clip-path="url(#14cfbccbce)"><path fill="#0d0e0e" d="M 214.828125 104.457031 C 214.828125 115.175781 223.398438 123.863281 233.96875 123.863281 C 244.539062 123.863281 253.109375 115.175781 253.109375 104.457031 C 253.109375 93.738281 244.539062 85.046875 233.96875 85.046875 C 223.398438 85.046875 214.828125 93.738281 214.828125 104.457031 " fill-opacity="1" fill-rule="nonzero"/></g><g clip-path="url(#089a71d450)"><path fill="#202022" d="M 214.855469 103.488281 C 214.910156 102.347656 215.070312 101.230469 215.308594 100.144531 C 216.226562 100.03125 217.800781 99.820312 218.167969 99.652344 C 218.691406 99.402344 219.382812 97.378906 219.300781 96.804688 C 219.234375 96.371094 218.117188 95.078125 217.5625 94.460938 C 218.023438 93.683594 218.535156 92.949219 219.09375 92.25 C 219.835938 92.589844 220.800781 92.980469 221.257812 92.945312 C 222.058594 92.894531 223.296875 91.714844 223.40625 91.113281 C 223.480469 90.710938 223.074219 89.476562 222.796875 88.703125 C 223.792969 87.976562 224.859375 87.34375 225.984375 86.820312 C 226.621094 87.722656 227.652344 89.109375 227.984375 89.144531 C 228.480469 89.199219 230.824219 88.40625 231.046875 88.050781 C 231.1875 87.820312 231.273438 86.300781 231.316406 85.238281 C 232.183594 85.117188 233.070312 85.046875 233.972656 85.046875 C 234.117188 85.046875 234.265625 85.054688 234.410156 85.058594 C 234.453125 85.902344 234.554688 87.097656 234.796875 87.394531 C 235.183594 87.859375 237.527344 88.625 238.191406 88.515625 C 238.632812 88.441406 239.441406 86.976562 239.933594 86.011719 C 240.949219 86.351562 241.929688 86.773438 242.867188 87.273438 C 242.679688 88.210938 242.441406 89.507812 242.546875 89.664062 C 242.710938 89.910156 244.285156 91.605469 244.890625 91.824219 C 245.328125 91.984375 246.734375 91.167969 247.476562 90.707031 C 248.179688 91.414062 248.824219 92.179688 249.410156 92.992188 C 248.894531 93.777344 248.011719 95.1875 248.089844 95.519531 C 248.199219 95.984375 249.191406 98.582031 249.605469 98.746094 C 249.890625 98.859375 251.316406 98.625 252.175781 98.464844 C 252.523438 99.546875 252.777344 100.671875 252.929688 101.832031 C 252.054688 102.136719 250.746094 102.632812 250.597656 102.90625 C 250.378906 103.316406 250.183594 106.519531 250.460938 107.039062 C 250.640625 107.371094 251.761719 108.460938 252.535156 109.191406 C 252.230469 110.414062 251.8125 111.59375 251.292969 112.710938 C 250.390625 112.558594 248.921875 112.335938 248.640625 112.425781 C 248.226562 112.5625 247.429688 114.261719 247.566406 114.808594 C 247.65625 115.164062 248.128906 116.351562 248.449219 117.140625 C 247.691406 118.027344 246.859375 118.847656 245.957031 119.582031 C 245.335938 119.136719 244.179688 118.335938 243.898438 118.335938 C 243.511719 118.335938 241.414062 119.539062 241.304688 119.867188 C 241.234375 120.082031 241.3125 121.421875 241.375 122.355469 C 240.015625 122.933594 238.578125 123.355469 237.078125 123.605469 C 236.710938 122.917969 236.113281 121.859375 235.871094 121.730469 C 235.515625 121.535156 232.839844 121.535156 232.425781 121.757812 C 232.160156 121.898438 231.53125 122.925781 231.113281 123.648438 C 229.832031 123.453125 228.585938 123.128906 227.398438 122.6875 C 227.441406 122.023438 227.535156 120.335938 227.378906 120.003906 C 227.183594 119.597656 224.675781 118.398438 224.289062 118.382812 C 224.027344 118.371094 222.722656 119.085938 221.929688 119.539062 C 221.101562 118.859375 220.332031 118.105469 219.625 117.296875 C 219.957031 116.476562 220.429688 115.199219 220.320312 114.835938 C 220.152344 114.285156 218.996094 112.4375 218.664062 112.40625 C 218.441406 112.382812 217.347656 112.585938 216.652344 112.722656 C 216.160156 111.65625 215.753906 110.542969 215.457031 109.382812 C 216.085938 108.699219 216.964844 107.691406 216.980469 107.390625 C 217.011719 106.925781 217.089844 105.148438 216.84375 104.65625 C 216.675781 104.320312 215.546875 103.789062 214.855469 103.488281 " fill-opacity="1" fill-rule="nonzero"/></g><path fill="#0d0e0e" d="M 240.308594 95.636719 C 240.308594 95.636719 245.328125 100.28125 245.382812 103.398438 C 245.441406 106.519531 239.980469 115.710938 236.285156 115.65625 C 232.589844 115.601562 223.984375 110.511719 223.875 108.597656 C 223.765625 106.679688 225.363281 97.070312 226.796875 95.636719 C 228.230469 94.203125 238.414062 93.660156 240.308594 95.636719 " fill-opacity="1" fill-rule="nonzero"/><path fill="#e68825" d="M 239.980469 96.796875 C 239.980469 96.796875 243.621094 100.332031 243.621094 102.742188 C 243.621094 105.148438 240.679688 112.480469 237.773438 113.757812 C 234.867188 115.035156 226.007812 110.253906 225.527344 107.265625 C 225.050781 104.273438 226.816406 98.328125 228.359375 96.796875 C 229.90625 95.265625 238.566406 95.238281 239.980469 96.796875 " fill-opacity="1" fill-rule="nonzero"/><path fill="#b75c22" d="M 238.324219 97.5625 C 238.324219 97.5625 241.046875 100.992188 241.339844 102.742188 C 241.433594 103.3125 238.765625 111.714844 236.78125 112.007812 C 234.796875 112.300781 228.214844 108.507812 227.882812 107.410156 C 227.550781 106.316406 228.359375 99.203125 229.058594 98.21875 C 229.757812 97.234375 237.222656 96.46875 238.324219 97.5625 " fill-opacity="1" fill-rule="nonzero"/><path fill="#1c1c1d" d="M 235.457031 101.503906 C 235.457031 101.503906 237.882812 103.4375 237.296875 105.515625 C 236.707031 107.59375 233.140625 107.449219 232.625 107.195312 C 232.109375 106.9375 230.75 105.152344 231.855469 103.253906 C 232.957031 101.359375 234.757812 101.136719 235.457031 101.503906 " fill-opacity="1" fill-rule="nonzero"/><path fill="#2e2f31" d="M 238.621094 93.21875 C 238.621094 93.21875 227.953125 92.964844 226.339844 94.351562 C 224.71875 95.738281 222.402344 104.996094 222.402344 106.625 C 222.402344 108.25 226.816406 115.65625 226.816406 115.65625 C 226.816406 115.65625 219.757812 112.957031 218.761719 110.183594 C 217.769531 107.410156 219.351562 96.101562 220.382812 94.679688 C 221.410156 93.253906 224.277344 90.59375 228.25 90.117188 C 232.222656 89.644531 238.621094 93.21875 238.621094 93.21875 " fill-opacity="1" fill-rule="nonzero"/><g clip-path="url(#9db5539985)"><path fill="#f9e043" d="M 354.089844 60.476562 C 354.089844 60.476562 341.84375 59.121094 340.789062 59.195312 C 339.738281 59.269531 335.683594 59.265625 335.382812 59.191406 C 335.082031 59.121094 337.035156 60.097656 334.40625 59.832031 C 331.773438 59.570312 320.957031 59.71875 320.429688 59.832031 C 319.902344 59.949219 311.640625 59.1875 311.640625 59.1875 C 311.640625 59.1875 308.5 59.121094 309.054688 59.496094 C 309.609375 59.875 309.910156 60.476562 309.910156 60.476562 C 309.910156 60.476562 307.882812 60.328125 308.03125 60.851562 C 308.183594 61.378906 309.460938 62.058594 309.460938 62.058594 C 309.460938 62.058594 310.851562 72.234375 310.832031 73.441406 C 310.8125 74.648438 310.585938 90.625 310.511719 91.078125 C 310.4375 91.527344 309.160156 98.613281 309.683594 98.917969 C 310.210938 99.214844 312.015625 98.386719 312.390625 98.464844 C 312.765625 98.539062 314.71875 98.898438 315.621094 98.984375 C 316.523438 99.066406 315.996094 99.066406 316.523438 99.066406 C 317.046875 99.066406 342.746094 98.691406 344.921875 98.691406 C 347.101562 98.691406 351.460938 99.746094 351.460938 99.367188 C 351.460938 98.992188 351.460938 98.992188 351.460938 98.992188 L 356.117188 99.140625 C 356.117188 99.140625 355.140625 96.203125 355.140625 95.828125 C 355.140625 95.449219 353.5625 64.246094 354.089844 62.964844 C 354.617188 61.683594 354.914062 59.949219 354.691406 59.875 C 354.464844 59.796875 354.089844 60.476562 354.089844 60.476562 " fill-opacity="1" fill-rule="nonzero"/></g><g clip-path="url(#8b03778fbc)"><path fill="#e9bc41" d="M 310.109375 67.003906 C 310.109375 67.003906 313.472656 68.074219 314.261719 69.320312 C 315.050781 70.5625 314.871094 72.273438 314.488281 76.101562 C 314.105469 79.925781 316.289062 86.671875 316.855469 87.238281 C 317.417969 87.800781 319.109375 87.859375 323.222656 87.859375 C 327.335938 87.859375 339.957031 87.292969 344.015625 86.613281 C 348.070312 85.9375 345.648438 85.484375 346.4375 83.675781 C 347.226562 81.867188 346.886719 80.90625 346.269531 78.046875 C 345.648438 75.191406 346.945312 73.785156 346.15625 71.214844 C 345.367188 68.640625 346.097656 67.226562 346.210938 66.605469 C 346.324219 65.980469 337.027344 65.644531 337.027344 65.644531 C 337.027344 65.644531 311.445312 64.34375 313.867188 63.777344 C 316.289062 63.214844 329.703125 63.609375 330.886719 63.609375 C 332.066406 63.609375 348.859375 62.535156 349.480469 62.617188 C 349.878906 62.667969 350.964844 61.25 351.699219 60.222656 C 353.113281 60.375 354.082031 60.480469 354.082031 60.480469 C 354.082031 60.480469 354.457031 59.804688 354.683594 59.878906 C 354.910156 59.953125 354.609375 61.6875 354.082031 62.96875 C 353.554688 64.25 355.132812 95.453125 355.132812 95.828125 C 355.132812 96.207031 356.113281 99.144531 356.113281 99.144531 L 351.453125 98.996094 C 351.453125 98.996094 351.453125 98.996094 351.453125 99.371094 C 351.453125 99.75 347.09375 98.691406 344.917969 98.691406 C 343.332031 98.691406 329.335938 98.894531 321.597656 99 C 328.414062 97.976562 341.824219 95.566406 339.902344 94.925781 C 337.535156 94.132812 334.152344 94.019531 328.234375 93.566406 C 322.320312 93.117188 321.472656 94.304688 316.910156 94.304688 C 313.851562 94.304688 311.371094 93.972656 310.058594 93.757812 C 310.273438 92.394531 310.476562 91.253906 310.503906 91.082031 C 310.578125 90.628906 310.804688 74.652344 310.824219 73.445312 C 310.832031 72.816406 310.464844 69.785156 310.109375 67.003906 " fill-opacity="1" fill-rule="nonzero"/></g><path fill="#e9bc41" d="M 330.910156 64.921875 C 331.027344 65.292969 330.308594 87.042969 330.121094 87.496094 C 329.933594 87.949219 316.484375 90.058594 316.484375 90.058594 C 316.484375 90.058594 311.75 71.277344 312.203125 71.207031 C 312.652344 71.140625 324.035156 64.621094 324.035156 64.621094 C 324.035156 64.621094 330.722656 64.320312 330.910156 64.921875 " fill-opacity="1" fill-rule="nonzero"/><path fill="#e6481e" d="M 298.566406 80.582031 L 308.671875 80.582031 L 308.070312 88.289062 L 296.175781 86.007812 L 298.566406 80.582031 " fill-opacity="1" fill-rule="nonzero"/><path fill="#e68825" d="M 256.480469 62.109375 L 256.433594 61.382812 C 248.214844 65.0625 222.875 76.402344 214.320312 80.171875 L 215.308594 82.527344 Z M 294.582031 85.253906 L 295.023438 84.316406 C 289.542969 80.96875 266.652344 66.800781 259.566406 62.417969 C 259.574219 62.910156 259.578125 63.351562 259.585938 63.730469 Z M 259.472656 47.179688 C 259.464844 47.789062 259.460938 48.464844 259.457031 49.1875 L 297.953125 78.042969 L 298.414062 77.058594 Z M 207.308594 63.398438 L 207.90625 64.832031 L 255.875 52.621094 L 255.640625 48.980469 Z M 206.007812 62.105469 L 206.636719 61.796875 L 206.679688 61.890625 L 255.484375 46.546875 L 255.324219 44.046875 L 259.609375 44.046875 C 259.5625 44.171875 259.527344 44.675781 259.503906 45.4375 L 300.21875 76.832031 L 295.636719 87.234375 L 259.605469 65.089844 C 259.609375 65.148438 259.609375 65.1875 259.609375 65.1875 L 256.679688 65.1875 L 256.582031 63.660156 L 216 84.1875 L 216.441406 85.246094 L 212.050781 87.234375 L 202.46875 63.832031 L 206.007812 62.105469 " fill-opacity="1" fill-rule="nonzero"/><path fill="#f46920" d="M 259.457031 49.1875 L 259.566406 62.417969 C 259.566406 62.417969 265.421875 66.039062 265.339844 65.988281 C 265.257812 65.941406 261.035156 61.570312 261.035156 61.570312 L 261.523438 52.488281 C 261.523438 52.488281 266.378906 54.375 266.289062 54.308594 C 266.195312 54.238281 259.457031 49.1875 259.457031 49.1875 " fill-opacity="1" fill-rule="nonzero"/><path fill="#f46920" d="M 255.875 52.621094 L 256.433594 61.382812 L 247.789062 65.25 C 247.789062 65.25 254.386719 60.554688 254.386719 60.289062 C 254.386719 60.023438 254.046875 54.785156 254.046875 54.785156 L 240.828125 56.453125 L 255.875 52.621094 " fill-opacity="1" fill-rule="nonzero"/><path fill="#f46920" d="M 207.90625 64.832031 L 214.320312 80.171875 C 214.320312 80.171875 234.308594 71.277344 233.96875 71.429688 C 233.628906 71.582031 216.613281 76.039062 216.613281 76.039062 L 210.527344 64.164062 L 207.90625 64.832031 " fill-opacity="1" fill-rule="nonzero"/><path fill="#f46920" d="M 310.832031 68.464844 L 310.832031 90.625 L 307.28125 90.625 L 307.28125 68.464844 L 310.832031 68.464844 " fill-opacity="1" fill-rule="nonzero"/><path fill="#e68825" d="M 325 81.953125 L 324.847656 77.246094 L 317.789062 77.246094 Z M 317.257812 73.339844 L 324.714844 73.21875 L 324.582031 69.078125 C 323.292969 69.808594 319.796875 71.851562 317.257812 73.339844 Z M 306.042969 77.246094 L 306.042969 73.515625 L 312.976562 73.40625 L 324.5 66.527344 L 324.449219 64.921875 L 329.820312 64.921875 C 329.820312 65.1875 329.632812 85.914062 329.632812 85.914062 L 325.125 85.914062 L 325.078125 84.421875 C 323.035156 83.136719 317.117188 79.546875 313.316406 77.246094 L 306.042969 77.246094 " fill-opacity="1" fill-rule="nonzero"/><path fill="#f9b129" d="M 329.296875 65.339844 C 329.296875 65.339844 325.09375 65.1875 325 65.339844 C 324.898438 65.488281 325.953125 84.4375 325.953125 84.4375 L 328.242188 84.671875 L 326.589844 67.148438 L 329.296875 65.339844 " fill-opacity="1" fill-rule="nonzero"/><path fill="#c88e3c" d="M 350.730469 74.050781 C 351.25 73.214844 351.640625 72.308594 352.179688 71.480469 C 352.390625 71.152344 352.921875 71.476562 352.695312 71.785156 C 352.144531 72.535156 351.699219 73.355469 351.179688 74.128906 C 350.636719 74.941406 350.042969 75.707031 349.570312 76.566406 C 349.53125 76.640625 349.414062 76.59375 349.433594 76.511719 C 349.683594 75.59375 350.230469 74.84375 350.730469 74.050781 " fill-opacity="1" fill-rule="nonzero"/><path fill="#c88e3c" d="M 348.734375 79.964844 C 349.152344 80.839844 349.355469 81.808594 349.957031 82.589844 C 350.019531 82.671875 349.882812 82.777344 349.820312 82.699219 C 349.222656 81.960938 348.789062 80.945312 348.617188 80.015625 C 348.605469 79.949219 348.703125 79.894531 348.734375 79.964844 " fill-opacity="1" fill-rule="nonzero"/><path fill="#c88e3c" d="M 345.074219 93.972656 C 346.136719 92.269531 347.347656 90.695312 348.273438 88.90625 C 348.347656 88.761719 348.558594 88.886719 348.484375 89.03125 C 347.578125 90.808594 346.5 92.554688 345.207031 94.078125 C 345.144531 94.148438 345.023438 94.054688 345.074219 93.972656 " fill-opacity="1" fill-rule="nonzero"/><path fill="#c88e3c" d="M 337.453125 90.203125 C 338.203125 90.820312 338.84375 91.625 339.429688 92.394531 C 339.484375 92.464844 339.363281 92.558594 339.308594 92.488281 C 338.707031 91.710938 338 91.039062 337.363281 90.292969 C 337.3125 90.230469 337.390625 90.152344 337.453125 90.203125 " fill-opacity="1" fill-rule="nonzero"/><path fill="#c88e3c" d="M 338.871094 74.011719 C 338.921875 73.863281 339.152344 73.929688 339.101562 74.074219 C 338.527344 75.78125 337.148438 77.015625 336.449219 78.648438 C 336.441406 78.667969 336.410156 78.65625 336.417969 78.636719 C 336.960938 76.941406 338.304688 75.691406 338.871094 74.011719 " fill-opacity="1" fill-rule="nonzero"/><path fill="#c88e3c" d="M 334.253906 79.789062 C 335.269531 79.886719 336.230469 80.261719 336.992188 80.941406 C 337.144531 81.074219 336.921875 81.296875 336.773438 81.164062 C 336.035156 80.496094 335.15625 80.222656 334.238281 79.902344 C 334.183594 79.882812 334.1875 79.785156 334.253906 79.789062 " fill-opacity="1" fill-rule="nonzero"/><path fill="#c88e3c" d="M 318.6875 93.65625 C 319.648438 94.578125 320.53125 95.597656 321.65625 96.332031 C 321.875 96.46875 321.671875 96.820312 321.457031 96.679688 C 320.292969 95.910156 319.347656 94.898438 318.554688 93.757812 C 318.496094 93.675781 318.617188 93.589844 318.6875 93.65625 " fill-opacity="1" fill-rule="nonzero"/><path fill="#c88e3c" d="M 317.003906 84.898438 C 317.152344 84.523438 317.703125 84.753906 317.515625 85.113281 C 316.949219 86.203125 316.164062 87.15625 315.621094 88.257812 C 315.578125 88.347656 315.429688 88.285156 315.460938 88.191406 C 315.84375 87.03125 316.5625 86.03125 317.003906 84.898438 " fill-opacity="1" fill-rule="nonzero"/><path fill="#c88e3c" d="M 318.632812 61.957031 C 319.0625 61.488281 319.414062 61.023438 319.773438 60.507812 C 319.894531 60.339844 320.246094 60.371094 320.214844 60.628906 C 320.152344 61.171875 319.722656 61.625 319.355469 62.003906 C 318.894531 62.480469 318.398438 62.929688 317.964844 63.429688 C 317.878906 63.527344 317.71875 63.425781 317.753906 63.308594 C 317.914062 62.765625 318.261719 62.363281 318.632812 61.957031 " fill-opacity="1" fill-rule="nonzero"/><path fill="#c88e3c" d="M 312.371094 60.832031 C 313.40625 61.519531 314.34375 62.4375 315.039062 63.464844 C 315.183594 63.679688 314.839844 63.878906 314.699219 63.667969 C 314.011719 62.636719 313.027344 61.9375 312.234375 61.007812 C 312.15625 60.917969 312.257812 60.757812 312.371094 60.832031 " fill-opacity="1" fill-rule="nonzero"/><path fill="#c88e3c" d="M 336.710938 65.394531 C 337.53125 64.175781 338.140625 62.882812 338.847656 61.601562 C 338.949219 61.417969 339.222656 61.578125 339.128906 61.765625 C 338.484375 63.027344 337.984375 64.578125 336.890625 65.53125 C 336.796875 65.609375 336.636719 65.507812 336.710938 65.394531 " fill-opacity="1" fill-rule="nonzero"/><path fill="#c88e3c" d="M 332.3125 97.285156 C 332.890625 98.34375 333.703125 99.199219 334.570312 100.03125 C 334.695312 100.144531 334.507812 100.332031 334.386719 100.214844 C 333.546875 99.402344 332.527344 98.488281 332.132812 97.359375 C 332.09375 97.253906 332.257812 97.1875 332.3125 97.285156 " fill-opacity="1" fill-rule="nonzero"/><path fill="#c88e3c" d="M 350.898438 96.171875 C 350.953125 96.039062 351.171875 96.097656 351.117188 96.234375 C 350.714844 97.246094 350.210938 98.226562 349.792969 99.234375 C 349.765625 99.292969 349.667969 99.292969 349.667969 99.214844 C 349.695312 98.148438 350.515625 97.140625 350.898438 96.171875 " fill-opacity="1" fill-rule="nonzero"/><path fill="#202022" d="M 211.410156 104.457031 C 211.410156 104.457031 211.710938 86.554688 227.148438 83.839844 C 242.589844 81.128906 251.34375 87.796875 251.34375 87.796875 L 251.34375 84.707031 C 251.34375 84.707031 232.109375 75.195312 219.601562 83.25 C 207.089844 91.304688 207.90625 104.347656 207.90625 104.347656 L 211.410156 104.457031 " fill-opacity="1" fill-rule="nonzero"/><g clip-path="url(#e9c4cb85f6)"><path fill="#202022" d="M 189.621094 104.457031 L 185.566406 104.523438 C 185.566406 104.523438 188.871094 78.210938 171.4375 69.082031 C 154.007812 59.949219 136.878906 68.789062 132.96875 73.339844 L 129.222656 70.5 C 129.222656 70.5 145.679688 52.109375 172.941406 65.25 C 193.679688 75.246094 189.621094 104.457031 189.621094 104.457031 " fill-opacity="1" fill-rule="nonzero"/></g><path fill="#f7942b" d="M 145.574219 29.0625 C 145.574219 29.0625 171.925781 24.78125 189.527344 29.476562 C 175.945312 30.40625 145.574219 29.0625 145.574219 29.0625 " fill-opacity="1" fill-rule="nonzero"/><path fill="#f7942b" d="M 204.101562 74.457031 L 202.695312 104.523438 L 199.988281 104.457031 L 201.453125 74.457031 L 204.101562 74.457031 " fill-opacity="1" fill-rule="nonzero"/><path fill="#f7942b" d="M 191.199219 74.738281 L 191.199219 104.457031 L 189.167969 104.523438 L 187.816406 74.738281 L 191.199219 74.738281 " fill-opacity="1" fill-rule="nonzero"/><path fill="#f7942b" d="M 189.507812 82.339844 L 202.46875 82.339844 L 202.46875 79.714844 L 189.507812 79.714844 L 189.507812 82.339844 " fill-opacity="1" fill-rule="nonzero"/><path fill="#f7942b" d="M 189.246094 90.074219 L 202.207031 90.074219 L 202.207031 87.449219 L 189.246094 87.449219 L 189.246094 90.074219 " fill-opacity="1" fill-rule="nonzero"/><path fill="#f7942b" d="M 189.453125 98.621094 L 202.414062 98.621094 L 202.414062 95.996094 L 189.453125 95.996094 L 189.453125 98.621094 " fill-opacity="1" fill-rule="nonzero"/><path fill="#f7942b" d="M 189.453125 104.824219 L 202.414062 104.824219 L 202.414062 102.199219 L 189.453125 102.199219 L 189.453125 104.824219 " fill-opacity="1" fill-rule="nonzero"/><path fill="#f46920" d="M 186.84375 26.734375 C 186.84375 26.777344 186.523438 29.109375 186.480469 29.109375 C 186.4375 29.109375 183.421875 29.109375 183.421875 29.109375 L 183.011719 26.734375 L 186.84375 26.734375 " fill-opacity="1" fill-rule="nonzero"/><g clip-path="url(#b846514f97)"><path fill="#ee252c" d="M 186.394531 26.734375 C 186.394531 26.734375 186.183594 24.121094 185.875 23.738281 C 185.5625 23.355469 184.042969 23.46875 183.84375 23.738281 C 183.648438 24.007812 183.4375 26.734375 183.4375 26.734375 L 186.394531 26.734375 " fill-opacity="1" fill-rule="nonzero"/></g><g clip-path="url(#5f6870c9f0)"><path fill="#ffffff" d="M 183.96875 26.214844 C 183.96875 26.183594 183.976562 24.074219 184.15625 23.917969 C 184.339844 23.757812 185.769531 23.769531 185.707031 23.8125 C 185.644531 23.851562 183.96875 26.214844 183.96875 26.214844 " fill-opacity="1" fill-rule="nonzero"/></g></svg>